<svg xmlns="http://www.w3.org/2000/svg" viewBox="0 0 59 59"><defs><style>.cls-1{fill:#036;}.cls-1,.cls-2{stroke:#fff;stroke-miterlimit:10;}.cls-2{fill:#fff;stroke-width:0.5px;}</style></defs><title>アセット 9</title><g id="レイヤー_2" data-name="レイヤー 2"><g id="レイヤー_14" data-name="レイヤー 14"><rect class="cls-1" x="0.5" y="0.5" width="58" height="58"/><path class="cls-2" d="M16.37,27H11.89l-.82,3.84h3.22l-.2.94H10.87L10,35.89h4.59l-.2.94H8.66L11,26h5.61Z"/><path class="cls-2" d="M19.6,26h1.3l1.58,8.07h0L24.23,26h1.13L23,36.94H22l-1.7-8.71,0,0-1.83,8.58H17.3Z"/><path class="cls-2" d="M34.79,27H31.72l-2.1,9.85H28.49L30.59,27h-3l.19-.95H35Z"/><path class="cls-2" d="M37.84,26h2.8c2.7,0,2.43,2.43,2.29,3.06a4.27,4.27,0,0,1-2.56,3l1.9,4.75H40.91l-1.66-4.5-1.64,0-.94,4.47H35.54Zm1,5.37A2.77,2.77,0,0,0,41.83,29c.3-1.44-.18-2.05-2-2.05H38.77l-.95,4.42Z"/><path class="cls-2" d="M51.17,26h1.25l-4.08,6.24-1,4.56H46.24l1-4.56L45.77,26H47l1,4.89Z"/></g></g></svg>