<svg xmlns="http://www.w3.org/2000/svg" viewBox="0 0 105 59"><defs><style>.cls-1{fill:#036;}.cls-1,.cls-2{stroke:#fff;stroke-miterlimit:10;}.cls-2{fill:#fff;stroke-width:0.5px;}</style></defs><title>アセット 20</title><g id="レイヤー_2" data-name="レイヤー 2"><g id="レイヤー_14" data-name="レイヤー 14"><rect class="cls-1" x="0.5" y="0.5" width="104" height="58"/><path class="cls-2" d="M41,27H36.53l-.82,3.84h3.22l-.2.94H35.51l-.88,4.13h4.59l-.2.94H33.31L35.6,26h5.61Z"/><path class="cls-2" d="M44.24,26h1.3l1.58,8.07h0L48.88,26H50l-2.31,10.9H46.63l-1.7-8.71,0,0-1.83,8.58H41.95Z"/><path class="cls-2" d="M59.44,27H56.36l-2.1,9.85H53.14L55.24,27h-3l.19-.95h7.21Z"/><path class="cls-2" d="M62.48,26h2.8c2.7,0,2.43,2.43,2.29,3.06a4.27,4.27,0,0,1-2.56,3l1.9,4.75H65.56l-1.66-4.5-1.64,0-.94,4.47H60.19Zm1,5.37A2.77,2.77,0,0,0,66.47,29c.3-1.44-.18-2.05-2-2.05H63.41l-.95,4.42Z"/><path class="cls-2" d="M75.82,26h1.25L73,32.27l-1,4.56H70.88l1-4.56L70.42,26h1.25l1,4.89Z"/></g></g></svg>