<svg xmlns="http://www.w3.org/2000/svg" viewBox="0 0 105 59"><defs><style>.cls-1{fill:#036;stroke:#fff;stroke-miterlimit:10;}.cls-2{fill:#fff;}</style></defs><title>アセット 19</title><g id="レイヤー_2" data-name="レイヤー 2"><g id="レイヤー_14" data-name="レイヤー 14"><rect class="cls-1" x="0.5" y="0.5" width="104" height="58"/><path class="cls-2" d="M32.43,30.58A4.39,4.39,0,0,1,33,33.68C32.66,35.61,30.8,37,28.2,37c-1.87,0-3-.88-2.64-3,.06-.31.18-.77.32-1.3a11.18,11.18,0,0,1-2.2-.43l.37-1.56a8.41,8.41,0,0,0,2.25.51c.18-.57.35-1.17.53-1.75A12.45,12.45,0,0,1,24.54,29l.36-1.49a9.22,9.22,0,0,0,2.35.48c.12-.39.21-.74.28-1a9.25,9.25,0,0,0,.23-1.14l1.65.1c-.18.47-.3.81-.41,1.14s-.17.56-.31,1a16.74,16.74,0,0,0,2.21-.16l-.33,1.53a20.24,20.24,0,0,1-2.34.12c-.18.57-.36,1.18-.53,1.75h.08a22.55,22.55,0,0,0,2.42-.16l-.32,1.53c-.68.06-1.39.12-2.12.12h-.48c-.09.38-.18.7-.22.94-.19,1.05.3,1.64,1.47,1.64,1.66,0,2.72-.82,2.91-1.88a3.09,3.09,0,0,0-.77-2.5Z"/><path class="cls-2" d="M38,30.43a18,18,0,0,1,4.44-1c1.87,0,2.91,1.21,2.55,3.16-.43,2.33-2.6,3.93-6.43,4.17l-.33-1.6c2.71-.08,4.87-.84,5.19-2.6A1.29,1.29,0,0,0,42,30.92a17.65,17.65,0,0,0-5,1.53l-.3-1.69A11,11,0,0,0,38,30.43Z"/><path class="cls-2" d="M57,28.72c-.4.23-.83.45-1.3.69-.82.4-2.44,1.16-3.66,1.91a4,4,0,0,0-2.08,2.34c-.17.92.57,1.42,2.21,1.42a19.62,19.62,0,0,0,4-.47l-.36,1.86a22.48,22.48,0,0,1-3.87.31c-2.36,0-4-.71-3.61-2.92a5.51,5.51,0,0,1,2.59-3.39c-.35-1.1-.67-2.47-1-3.83L51.51,26a26.53,26.53,0,0,0,.83,3.56c1.08-.61,2.22-1.18,2.84-1.52a10.64,10.64,0,0,0,1.23-.78Z"/><path class="cls-2" d="M62.73,31.87c-.06.18-.11.36-.18.53.5.66,1.5,2.29,1.76,2.72l-1.2,1.3A24.63,24.63,0,0,0,61.88,34,9,9,0,0,1,59,37.38a4.4,4.4,0,0,0-.81-1.17,7.83,7.83,0,0,0,3.1-4.34H59.16l.27-1.46h2.22l.06-.32L62,28.35h-.48a11.94,11.94,0,0,1-1.13,1.74,6.15,6.15,0,0,0-1-.9,12.41,12.41,0,0,0,2.06-3.91l1.31.3c-.17.45-.34.9-.54,1.34h3.17l-.26,1.43H63.47l-.32,1.75-.06.31h2l-.27,1.46Zm8-5.47L68.77,36.85H67.32l.14-.74H65.71l-.17.94H64.16l2-10.65Zm-3,8.25L69,27.85H67.23L66,34.65Z"/><path class="cls-2" d="M80.77,27.37l-.93.58c-.72.48-2.18,1.62-3,2.27a4,4,0,0,1,1.14-.14c2,0,3.3,1.36,3,3.24-.37,2-2.09,3.64-5,3.64-1.66,0-2.75-.82-2.52-2.11a2.59,2.59,0,0,1,2.5-2A2,2,0,0,1,78,35.05a2.39,2.39,0,0,0,1.29-1.75c.21-1.16-.72-1.94-2.1-1.94-1.82,0-3.2,1.05-4.76,2.61l-.86-1.21c1-.74,2.64-2.05,3.46-2.68s2.2-1.68,2.89-2.24c-.61,0-2.26.09-2.89.14a7.64,7.64,0,0,0-1,.1l.26-1.68a9.7,9.7,0,0,0,1.07.06c.62,0,3.18-.06,3.86-.13a5.74,5.74,0,0,0,.93-.13Zm-4.17,8.1c.08-.83-.26-1.38-.91-1.38a.83.83,0,0,0-.84.61c-.09.48.36.81,1.05.81A5.94,5.94,0,0,0,76.6,35.47Z"/></g></g></svg>