<svg xmlns="http://www.w3.org/2000/svg" viewBox="0 0 59 59"><defs><style>.cls-1{fill:#036;stroke:#fff;stroke-miterlimit:10;}.cls-2{fill:#fff;}</style></defs><title>アセット 9</title><g id="レイヤー_2" data-name="レイヤー 2"><g id="レイヤー_14" data-name="レイヤー 14"><rect class="cls-1" x="0.5" y="0.5" width="58" height="58"/><path class="cls-2" d="M23.39,19.59A4,4,0,0,1,24,22.68C23.64,24.62,21.58,26,18.7,26c-2.07,0-3.35-.88-2.91-3,.06-.31.19-.77.36-1.3a13.51,13.51,0,0,1-2.43-.43l.41-1.56a10.16,10.16,0,0,0,2.48.51c.2-.57.38-1.17.58-1.75A15,15,0,0,1,14.67,18l.39-1.49a11.11,11.11,0,0,0,2.59.48c.13-.39.23-.74.31-1a8.6,8.6,0,0,0,.26-1.14l1.82.1c-.2.47-.34.81-.46,1.14s-.19.56-.34,1a20.5,20.5,0,0,0,2.45-.16l-.36,1.53a24.65,24.65,0,0,1-2.58.12c-.2.57-.4,1.18-.58,1.75h.09c.81,0,1.79-.07,2.67-.16l-.35,1.53c-.76.06-1.54.12-2.34.12h-.53c-.1.38-.2.7-.24.94-.21,1.05.33,1.64,1.63,1.64,1.83,0,3-.82,3.22-1.88a2.89,2.89,0,0,0-.85-2.5Z"/><path class="cls-2" d="M29.52,19.43a21.68,21.68,0,0,1,4.91-1c2.07,0,3.22,1.21,2.82,3.16-.47,2.33-2.88,3.93-7.1,4.17l-.37-1.6c3-.08,5.38-.84,5.74-2.6.19-1-.41-1.64-1.55-1.64a21.05,21.05,0,0,0-5.58,1.53l-.33-1.69A13,13,0,0,0,29.52,19.43Z"/><path class="cls-2" d="M50.53,17.73c-.45.23-.91.46-1.44.69-.9.4-2.7,1.16-4,1.91s-2.12,1.44-2.3,2.34.63,1.42,2.44,1.42a23.92,23.92,0,0,0,4.39-.47l-.4,1.86a27.46,27.46,0,0,1-4.28.31c-2.61,0-4.44-.72-4-2.92a5.61,5.61,0,0,1,2.86-3.39c-.38-1.1-.75-2.47-1.07-3.83L44.49,15a24.66,24.66,0,0,0,.92,3.56c1.2-.61,2.46-1.18,3.15-1.52a11.63,11.63,0,0,0,1.36-.78Z"/><path class="cls-2" d="M19.91,39.71c-.06.18-.13.36-.2.53.55.66,1.66,2.29,1.94,2.72l-1.32,1.3A24,24,0,0,0,19,41.81a9.31,9.31,0,0,1-3.2,3.4A4.38,4.38,0,0,0,14.89,44a7.89,7.89,0,0,0,3.43-4.34H16l.29-1.46h2.45l.07-.33.35-1.74h-.53a11.92,11.92,0,0,1-1.25,1.74,6.6,6.6,0,0,0-1.09-.9,12.07,12.07,0,0,0,2.28-3.91l1.45.3c-.18.46-.38.9-.6,1.34h3.5l-.29,1.43H20.73l-.36,1.75-.06.31h2.17l-.29,1.46Zm8.8-5.47L26.59,44.69H25l.15-.74H23.22l-.19.94H21.5l2.16-10.64Zm-3.28,8.25,1.38-6.8H24.89l-1.38,6.8Z"/><path class="cls-2" d="M39.87,35.21l-1,.58c-.8.48-2.41,1.62-3.37,2.27a4.84,4.84,0,0,1,1.26-.14c2.23,0,3.65,1.37,3.27,3.24-.41,2-2.31,3.64-5.48,3.64-1.83,0-3-.82-2.78-2.1a2.81,2.81,0,0,1,2.77-2,2.07,2.07,0,0,1,2.35,2.2,2.43,2.43,0,0,0,1.43-1.75c.23-1.16-.8-1.94-2.33-1.94-2,0-3.54,1.05-5.26,2.61l-.95-1.21c1.08-.74,2.92-2.05,3.83-2.68s2.44-1.68,3.2-2.23c-.68,0-2.5.09-3.2.14a9.36,9.36,0,0,0-1.1.1l.29-1.68a11.81,11.81,0,0,0,1.18.06c.69,0,3.51-.06,4.27-.13a7.06,7.06,0,0,0,1-.13Zm-4.61,8.1c.09-.83-.29-1.38-1-1.38a.9.9,0,0,0-.93.61c-.1.48.39.81,1.16.81A7.27,7.27,0,0,0,35.26,43.31Z"/></g></g></svg>