<svg xmlns="http://www.w3.org/2000/svg" viewBox="0 0 163.5 207.5"><defs><style>.cls-1,.cls-2{fill:none;}.cls-1{stroke:#4c4b4c;stroke-miterlimit:10;stroke-dasharray:4 4;}.cls-2{stroke:#221714;stroke-linecap:round;stroke-linejoin:round;stroke-width:0.71px;}.cls-3{font-size:10px;font-family:NotoSansCJKjp-Regular-83pv-RKSJ-H, Noto Sans CJK JP;letter-spacing:0.13em;}.cls-29,.cls-3{fill:#221714;}.cls-4{letter-spacing:0.13em;}.cls-5{letter-spacing:0.14em;}.cls-6{letter-spacing:0.17em;}.cls-7{letter-spacing:0.15em;}.cls-8{letter-spacing:0.14em;}.cls-9{letter-spacing:0.11em;}.cls-10{letter-spacing:0.04em;}.cls-11{letter-spacing:0.1em;}.cls-12{letter-spacing:0.03em;}.cls-13{letter-spacing:-0.03em;}.cls-14{letter-spacing:0.05em;}.cls-15{letter-spacing:0.06em;}.cls-16{letter-spacing:0.1em;}.cls-17{letter-spacing:0.1em;}.cls-18{letter-spacing:0.09em;}.cls-19{letter-spacing:-0.16em;}.cls-20{letter-spacing:-0.2em;}.cls-21{letter-spacing:-0.09em;}.cls-22{letter-spacing:-0.09em;}.cls-23{letter-spacing:0.09em;}.cls-24{letter-spacing:0.09em;}.cls-25{letter-spacing:0.06em;}.cls-26{letter-spacing:0.07em;}.cls-27{letter-spacing:0.09em;}.cls-28{letter-spacing:-0.44em;}.cls-29{font-size:14px;font-family:AxisStd-Bold, AxisStd Bold;font-weight:700;letter-spacing:0.04em;}.cls-30{letter-spacing:0.01em;}.cls-31{letter-spacing:0.08em;}.cls-32{letter-spacing:0.1em;}</style></defs><title>アセット 5</title><g id="レイヤー_2" data-name="レイヤー 2"><g id="レイヤー_14" data-name="レイヤー 14"><rect class="cls-1" x="0.5" y="0.5" width="162.5" height="206.5"/><path class="cls-2" d="M96.13,76.23h0c0-.09,0-.18,0-.27A18.57,18.57,0,1,0,59,76c0,.09,0,.18,0,.27h0a3.18,3.18,0,1,0,.65,6.29,4,4,0,0,0-.06.6,4.5,4.5,0,0,0,9,0h0a4.5,4.5,0,0,0,9,0,4.35,4.35,0,0,0-.05-.53h.11a4.36,4.36,0,0,0-.05.53,4.49,4.49,0,0,0,9,0h0a4.49,4.49,0,0,0,9,0,4,4,0,0,0-.06-.6,3.18,3.18,0,1,0,.65-6.29Z"/><path class="cls-2" d="M95.76,97.07c0-1.76,3.18-8.26,3.18-8.26s3.18,6.5,3.18,8.26a3.18,3.18,0,1,1-6.36,0Z"/><polyline class="cls-2" points="92.08 87.75 77.81 119.27 62.99 88"/><line class="cls-2" x1="82.86" y1="87.83" x2="73.11" y2="109.36"/><line class="cls-2" x1="74.64" y1="87.9" x2="68.92" y2="100.53"/><text class="cls-3" transform="translate(20.61 150.31)">あ<tspan class="cls-4" x="11.3" y="0">つ</tspan><tspan class="cls-5" x="22.58" y="0">い</tspan><tspan class="cls-6" x="33.95" y="0">夏</tspan><tspan class="cls-7" x="45.6" y="0">に</tspan><tspan class="cls-8" x="57.08" y="0">は</tspan><tspan class="cls-9" x="68.48" y="0">ア</tspan><tspan class="cls-10" x="79.53" y="0">イ</tspan><tspan class="cls-11" x="89.97" y="0">ス</tspan><tspan class="cls-12" x="100.92" y="0">ク</tspan><tspan class="cls-13" x="111.23" y="0">リ</tspan><tspan class="cls-14"><tspan x="0.07" y="14">ー</tspan><tspan class="cls-15" x="10.54" y="14">ム</tspan><tspan class="cls-16" x="21.13" y="14">食</tspan><tspan class="cls-17" x="32.15" y="14">べ</tspan><tspan class="cls-18" x="43.1" y="14">放</tspan><tspan class="cls-19" x="53.99" y="14">題</tspan><tspan class="cls-20" x="62.37" y="14">！</tspan><tspan class="cls-21" x="70.41" y="14">チ</tspan><tspan class="cls-22" x="79.46" y="14">ョ</tspan><tspan class="cls-23" x="88.57" y="14">コ</tspan><tspan class="cls-24" x="99.46" y="14">系</tspan><tspan class="cls-25" x="110.32" y="14">が</tspan></tspan><tspan class="cls-26"><tspan x="46.89" y="28">人</tspan><tspan class="cls-27" x="57.64" y="28">気</tspan><tspan class="cls-28" x="68.5" y="28">。</tspan></tspan></text><text class="cls-29" transform="translate(28.46 33.76)">ア<tspan class="cls-30" x="14.56" y="0">イ</tspan><tspan class="cls-31" x="28.7" y="0">ス</tspan><tspan class="cls-32" x="43.82" y="0">食べ放題</tspan></text></g></g></svg>