<svg xmlns="http://www.w3.org/2000/svg" viewBox="0 0 163.5 207.5"><defs><style>.cls-1,.cls-2{fill:none;}.cls-1{stroke:#4c4b4c;stroke-miterlimit:10;stroke-dasharray:4 4;}.cls-2{stroke:#221714;stroke-linecap:round;stroke-linejoin:round;stroke-width:0.71px;}.cls-3{font-size:10px;font-family:LetterGothicStd-BoldSlanted, Letter Gothic Std;}.cls-3,.cls-34{fill:#221714;}.cls-27,.cls-3{letter-spacing:0.07em;}.cls-34,.cls-4{font-weight:700;}.cls-10,.cls-11,.cls-12,.cls-24,.cls-5,.cls-6,.cls-7,.cls-8,.cls-9{font-family:NotoSansCJKjp-Regular-83pv-RKSJ-H, Noto Sans CJK JP;}.cls-5{letter-spacing:0.06em;}.cls-6{letter-spacing:0.01em;}.cls-28,.cls-7{letter-spacing:0em;}.cls-8{letter-spacing:-0.04em;}.cls-9{letter-spacing:0.01em;}.cls-10{letter-spacing:0.06em;}.cls-12{letter-spacing:-0.36em;}.cls-13{letter-spacing:0.15em;}.cls-14{letter-spacing:0.14em;}.cls-15{letter-spacing:0.06em;}.cls-16{letter-spacing:-0.05em;}.cls-17{letter-spacing:0.02em;}.cls-18{letter-spacing:0.06em;}.cls-19{letter-spacing:-0.01em;}.cls-20{letter-spacing:0.02em;}.cls-21{letter-spacing:0.05em;}.cls-22{letter-spacing:-0.03em;}.cls-23{letter-spacing:0em;}.cls-24{letter-spacing:0.06em;}.cls-25{letter-spacing:0.04em;}.cls-26{letter-spacing:0.03em;}.cls-29{letter-spacing:-0.04em;}.cls-30{letter-spacing:0.01em;}.cls-31{letter-spacing:-0.03em;}.cls-32{letter-spacing:-0.22em;}.cls-33{letter-spacing:-0.17em;}.cls-34{font-size:14px;font-family:AxisStd-Bold, AxisStd Bold;letter-spacing:0.07em;}.cls-35{letter-spacing:0.05em;}.cls-36{letter-spacing:0.03em;}.cls-37{letter-spacing:0.05em;}.cls-38{letter-spacing:0.1em;}</style></defs><title>アセット 6</title><g id="レイヤー_2" data-name="レイヤー 2"><g id="レイヤー_14" data-name="レイヤー 14"><rect class="cls-1" x="0.5" y="0.5" width="162.5" height="206.5"/><path class="cls-2" d="M84.25,116.4H77.73l1.16-1.3a1.7,1.7,0,0,0,2.2-2.46L84.39,109a3.74,3.74,0,0,0,1.24-2.46c0-2-2.22-2-2.61-2H75.09a1.72,1.72,0,0,0-1.69,1.77,1.7,1.7,0,0,0,1.69,1.64h5.7l-2.07,2.35-.12-.12a1.71,1.71,0,1,0-2.42,2.42l.27.27-2.74,3.12a3.07,3.07,0,0,0-.87,2.09c0,1.66,1.69,1.8,2.09,1.8h9.32a1.7,1.7,0,0,0,0-3.41Z"/><path class="cls-2" d="M103,93.59H94.25l1.56-1.75a2.3,2.3,0,0,0,3-3.32l4.44-5c1-1.14,1.67-2.06,1.67-3.31,0-2.63-3-2.74-3.52-2.74H90.7a2.31,2.31,0,0,0-2.28,2.38,2.29,2.29,0,0,0,2.28,2.2h7.68l-2.79,3.17-.16-.16a2.3,2.3,0,0,0-3.26,3.26l.37.37L88.85,93a4.13,4.13,0,0,0-1.17,2.81c0,2.24,2.28,2.42,2.81,2.42H103a2.29,2.29,0,0,0,0-4.59Z"/><path class="cls-2" d="M77.79,77.22H65.71l2.14-2.4a3.16,3.16,0,0,0,4.08-4.56L78,63.43c1.37-1.57,2.3-2.84,2.3-4.55,0-3.62-4.11-3.76-4.84-3.76H60.82a3.18,3.18,0,0,0-3.13,3.28,3.14,3.14,0,0,0,3.13,3H71.38l-3.83,4.36-.22-.22a3.17,3.17,0,0,0-4.48,4.48l.51.51-5.08,5.78a5.68,5.68,0,0,0-1.61,3.86c0,3.08,3.13,3.33,3.86,3.33H77.79a3.15,3.15,0,0,0,0-6.31Z"/><text class="cls-3" transform="translate(20.98 150.31)"><tspan class="cls-4">1</tspan><tspan class="cls-5" x="6.75" y="0">日</tspan><tspan class="cls-6" x="17.38" y="0">を</tspan><tspan class="cls-7" x="27.48" y="0">通</tspan><tspan class="cls-8" x="37.45" y="0">し</tspan><tspan class="cls-9" x="47.02" y="0">て</tspan><tspan class="cls-10" x="57.17" y="0">お</tspan><tspan class="cls-11" x="67.72" y="0">昼</tspan><tspan class="cls-5" x="78.47" y="0">寝</tspan><tspan class="cls-6" x="89.1" y="0">を</tspan><tspan class="cls-11" x="99.2" y="0">推奨</tspan><tspan class="cls-12"><tspan x="0.11" y="14">。</tspan><tspan class="cls-13" x="6.54" y="14">睡</tspan><tspan class="cls-14" x="18.08" y="14">眠</tspan><tspan class="cls-15" x="29.49" y="14">を</tspan><tspan class="cls-16" x="40.09" y="14">と</tspan><tspan class="cls-17" x="49.59" y="14">っ</tspan><tspan class="cls-18" x="59.83" y="14">て</tspan><tspan class="cls-19" x="70.48" y="14">ス</tspan><tspan class="cls-20" x="80.41" y="14">ッ</tspan><tspan class="cls-21" x="90.57" y="14">キ</tspan><tspan class="cls-22" x="101.1" y="14">リ</tspan><tspan class="cls-23" x="110.77" y="14">し</tspan></tspan><tspan class="cls-24"><tspan x="11.5" y="28">た</tspan><tspan class="cls-25" x="22.06" y="28">頭</tspan><tspan class="cls-26" x="32.46" y="28">で</tspan><tspan class="cls-27" x="42.8" y="28">仕</tspan><tspan class="cls-28" x="53.55" y="28">事</tspan><tspan class="cls-29" x="63.52" y="28">し</tspan><tspan class="cls-30" x="73.09" y="28">て</tspan><tspan class="cls-31" x="83.17" y="28">ま</tspan><tspan class="cls-32" x="92.88" y="28">す</tspan><tspan class="cls-33" x="100.73" y="28">！</tspan></tspan></text><text class="cls-34" transform="translate(36.67 33.76)">シ<tspan class="cls-35" x="14.98" y="0">エ</tspan><tspan class="cls-36" x="29.68" y="0">ス</tspan><tspan class="cls-37" x="44.1" y="0">タ</tspan><tspan class="cls-38" x="58.8" y="0">制度</tspan></text></g></g></svg>