<svg xmlns="http://www.w3.org/2000/svg" viewBox="0 0 163.5 207.5"><defs><style>.cls-1,.cls-46{fill:none;}.cls-1{stroke:#4c4b4c;stroke-miterlimit:10;stroke-dasharray:4 4;}.cls-2{font-size:10px;font-family:NotoSansCJKjp-Regular-83pv-RKSJ-H, Noto Sans CJK JP;letter-spacing:0.08em;}.cls-2,.cls-38{fill:#221714;}.cls-3{letter-spacing:-0.17em;}.cls-4{letter-spacing:0.08em;}.cls-5{letter-spacing:0.07em;}.cls-6{letter-spacing:-0.01em;}.cls-7{letter-spacing:0.01em;}.cls-8{letter-spacing:-0.03em;}.cls-9{letter-spacing:0em;}.cls-10{letter-spacing:0.02em;}.cls-11{letter-spacing:0.01em;}.cls-12{letter-spacing:-0.06em;}.cls-13{letter-spacing:-0.05em;}.cls-14{letter-spacing:-0.01em;}.cls-15{letter-spacing:0em;}.cls-16{letter-spacing:-0.01em;}.cls-17{letter-spacing:0.02em;}.cls-18{letter-spacing:0.04em;}.cls-19{letter-spacing:0.01em;}.cls-20{letter-spacing:0.12em;}.cls-21{letter-spacing:0.04em;}.cls-22{letter-spacing:0em;}.cls-23{letter-spacing:0.04em;}.cls-24{letter-spacing:0.08em;}.cls-25{letter-spacing:-0.02em;}.cls-26{letter-spacing:0.04em;}.cls-27{letter-spacing:0.01em;}.cls-28{letter-spacing:-0.06em;}.cls-29{letter-spacing:-0.01em;}.cls-30{letter-spacing:0.05em;}.cls-31{letter-spacing:0.03em;}.cls-32{letter-spacing:-0.03em;}.cls-33{letter-spacing:-0.01em;}.cls-34{letter-spacing:0.01em;}.cls-35{letter-spacing:-0.03em;}.cls-36{letter-spacing:-0.22em;}.cls-37{letter-spacing:-0.17em;}.cls-38{font-size:14px;font-family:AxisStd-Bold, AxisStd Bold;font-weight:700;letter-spacing:-0.04em;}.cls-39{letter-spacing:-0.03em;}.cls-40{letter-spacing:-0.06em;}.cls-41{letter-spacing:-0.02em;}.cls-42{letter-spacing:0.04em;}.cls-43{letter-spacing:0.08em;}.cls-44{letter-spacing:0.09em;}.cls-45{letter-spacing:0.05em;}.cls-46,.cls-47{stroke:#221714;stroke-linecap:round;stroke-linejoin:round;stroke-width:0.71px;}.cls-47{fill:#fff;}</style></defs><title>アセット 7</title><g id="レイヤー_2" data-name="レイヤー 2"><g id="レイヤー_14" data-name="レイヤー 14"><rect class="cls-1" x="0.5" y="0.5" width="162.5" height="206.5"/><text class="cls-2" transform="translate(21.2 150.31)">土足厳<tspan class="cls-3" x="32.54" y="0">禁！</tspan><tspan class="cls-4" x="49.24" y="0">読</tspan><tspan class="cls-5" x="60.08" y="0">書</tspan><tspan class="cls-6" x="70.81" y="0">を</tspan><tspan class="cls-7" x="80.71" y="0">や</tspan><tspan class="cls-8" x="90.83" y="0">テ</tspan><tspan class="cls-9" x="100.55" y="0">レ</tspan><tspan class="cls-10" x="110.57" y="0">ビ</tspan><tspan class="cls-11"><tspan x="-0.35" y="14">で</tspan><tspan class="cls-12" x="9.73" y="14">リ</tspan><tspan class="cls-13" x="19.12" y="14">ラ</tspan><tspan class="cls-14" x="28.61" y="14">ッ</tspan><tspan class="cls-15" x="38.5" y="14">ク</tspan><tspan class="cls-16" x="48.49" y="14">ス</tspan><tspan class="cls-17" x="58.41" y="14">し</tspan><tspan class="cls-18" x="68.58" y="14">た</tspan><tspan class="cls-19" x="78.99" y="14">り</tspan><tspan class="cls-20" x="89.13" y="14">集</tspan><tspan class="cls-21" x="100.34" y="14">中</tspan><tspan class="cls-22" x="110.77" y="14">し</tspan></tspan><tspan class="cls-23"><tspan x="-0.41" y="28">て</tspan><tspan class="cls-24" x="10" y="28">仕</tspan><tspan class="cls-9" x="20.79" y="28">事</tspan><tspan class="cls-25" x="30.81" y="28">し</tspan><tspan class="cls-26" x="40.57" y="28">た</tspan><tspan class="cls-27" x="51" y="28">い</tspan><tspan class="cls-28" x="61.12" y="28">と</tspan><tspan class="cls-29" x="70.54" y="28">き</tspan><tspan class="cls-30" x="80.45" y="28">に</tspan><tspan class="cls-31" x="90.93" y="28">も</tspan><tspan class="cls-32" x="101.23" y="28">使</tspan><tspan class="cls-33" x="110.89" y="28">っ</tspan></tspan><tspan class="cls-34"><tspan x="42.23" y="42">て</tspan><tspan class="cls-35" x="52.31" y="42">ま</tspan><tspan class="cls-36" x="62.02" y="42">す</tspan><tspan class="cls-37" x="69.86" y="42">！</tspan></tspan></text><text class="cls-38" transform="translate(16.94 33.76)">リ<tspan class="cls-39" x="13.44" y="0">ラ</tspan><tspan class="cls-40" x="27.02" y="0">ッ</tspan><tspan class="cls-41" x="40.18" y="0">ク</tspan><tspan class="cls-42" x="53.9" y="0">ス</tspan><tspan class="cls-43" x="68.46" y="0">ス</tspan><tspan class="cls-44" x="83.58" y="0">ペ</tspan><tspan class="cls-45" x="98.84" y="0">ー</tspan><tspan class="cls-43" x="113.54" y="0">ス</tspan></text><path class="cls-46" d="M117.75,76l-1.2-1.44"/><path class="cls-46" d="M120.2,72.1S87.44,99,39.65,72.1"/><path class="cls-46" d="M56.7,89.51A97.37,97.37,0,0,1,39.65,72.1"/><path class="cls-46" d="M91.18,97.78c-9.6,2.94-21.25,1.87-34.49-8.27"/><path class="cls-46" d="M120.2,72.1s-10.79,20.09-29,25.68"/><path class="cls-46" d="M85.81,98.95c-9.66-1.23-20.68-7-32.75-20.49"/><path class="cls-46" d="M89.48,98.25C81.63,96.33,73,91.37,63.64,81.84"/><path class="cls-46" d="M93.13,97.11C86.79,94.83,80,90.54,72.72,83.49"/><path class="cls-46" d="M96.76,95.53A62.05,62.05,0,0,1,80.72,84"/><path class="cls-46" d="M100.28,93.45a68,68,0,0,1-12.4-9.65"/><path class="cls-46" d="M103.86,90.95a75.51,75.51,0,0,1-9.46-8"/><path class="cls-46" d="M107.47,88a84.7,84.7,0,0,1-7-6.45"/><path class="cls-46" d="M111,84.57q-2.4-2.25-4.86-4.92"/><path class="cls-46" d="M114.39,80.6c-.85-.91-2.09-2.29-3-3.32"/><path class="cls-46" d="M51.47,77.83c-.92,1.27-2,2.69-3.25,4.16"/><path class="cls-46" d="M57.28,80a68.24,68.24,0,0,1-4.93,5.65"/><path class="cls-46" d="M63.29,81.72a63.22,63.22,0,0,1-7.17,7.35"/><path class="cls-46" d="M69.59,83a58.65,58.65,0,0,1-9.26,8.6"/><path class="cls-46" d="M76.1,84.06A53.8,53.8,0,0,1,63.84,94.22"/><path class="cls-46" d="M83.54,84a51.64,51.64,0,0,1-14.69,11.5"/><path class="cls-46" d="M91.37,83.55C86.61,88.82,79.79,94.72,71.6,97.48"/><path class="cls-46" d="M100.62,81.47c-5.46,6.61-14.16,14.7-25.42,17.06"/><path class="cls-46" d="M111,77.57C105.69,85,94.46,97.68,78.94,99.08"/><path class="cls-46" d="M113.92,80.15c-11.69,12.68-38.85,32-74.27-8"/><path class="cls-46" d="M120.2,72.1a56.59,56.59,0,0,1-6.28,8"/><rect class="cls-47" x="114.34" y="70.94" width="3.35" height="40.65" rx="1.67" ry="1.67" transform="translate(10.75 -12.21) rotate(6.32)"/><rect class="cls-47" x="118.22" y="71.31" width="3.35" height="40.65" rx="1.67" ry="1.67" transform="translate(-6.12 8.61) rotate(-4.01)"/><rect class="cls-47" x="37.33" y="70.94" width="3.35" height="40.65" rx="1.67" ry="1.67" transform="translate(10.28 -3.74) rotate(6.32)"/><rect class="cls-47" x="41.22" y="71.31" width="3.35" height="40.65" rx="1.67" ry="1.67" transform="matrix(1, -0.07, 0.07, 1, -6.31, 3.23)"/></g></g></svg>