<svg xmlns="http://www.w3.org/2000/svg" viewBox="0 0 163.5 207.5"><defs><style>.cls-1,.cls-2{fill:none;}.cls-1{stroke:#4c4b4c;stroke-miterlimit:10;stroke-dasharray:4 4;}.cls-2,.cls-3{stroke:#221714;stroke-linecap:round;stroke-linejoin:round;stroke-width:0.71px;}.cls-3{fill:#fff;}.cls-4{font-size:10px;font-family:NotoSansCJKjp-Regular-83pv-RKSJ-H, Noto Sans CJK JP;letter-spacing:0.12em;}.cls-32,.cls-4{fill:#221714;}.cls-5{letter-spacing:0.1em;}.cls-6{letter-spacing:0.1em;}.cls-7{letter-spacing:0.12em;}.cls-8{letter-spacing:0.11em;}.cls-9{letter-spacing:0.09em;}.cls-10{letter-spacing:0.09em;}.cls-11{letter-spacing:0.1em;}.cls-12{letter-spacing:0.06em;}.cls-13{letter-spacing:0.11em;}.cls-14{letter-spacing:0.12em;}.cls-15{letter-spacing:0.09em;}.cls-16{letter-spacing:0.15em;}.cls-17{letter-spacing:0.15em;}.cls-18{letter-spacing:0.1em;}.cls-19{letter-spacing:0.1em;}.cls-20{letter-spacing:0.02em;}.cls-21{letter-spacing:0.13em;}.cls-22{letter-spacing:0.16em;}.cls-23{letter-spacing:0.04em;}.cls-24{letter-spacing:-0.02em;}.cls-25{letter-spacing:-0.02em;}.cls-26{letter-spacing:0.02em;}.cls-27{letter-spacing:-0.01em;}.cls-28{letter-spacing:-0.03em;}.cls-29{letter-spacing:-0.03em;}.cls-30{letter-spacing:-0.22em;}.cls-31{letter-spacing:-0.17em;}.cls-32{font-size:14px;font-family:AxisStd-Bold, AxisStd Bold;font-weight:700;letter-spacing:0.05em;}.cls-33{letter-spacing:0.1em;}</style></defs><title>アセット 8</title><g id="レイヤー_2" data-name="レイヤー 2"><g id="レイヤー_14" data-name="レイヤー 14"><rect class="cls-1" x="0.5" y="0.5" width="162.5" height="206.5"/><path class="cls-2" d="M97.26,109H56.7V64.25l5.78-5.78H97.26a6.31,6.31,0,0,1,6.29,6.29v38A6.31,6.31,0,0,1,97.26,109Z"/><line class="cls-2" x1="97.99" y1="58.54" x2="92.34" y2="64.2"/><line class="cls-2" x1="103.6" y1="64.14" x2="97.94" y2="69.8"/><line class="cls-2" x1="102.7" y1="105.97" x2="96.01" y2="112.67"/><line class="cls-2" x1="59.43" y1="62.6" x2="73.24" y2="62.6"/><line class="cls-2" x1="60.96" y1="60.65" x2="80.51" y2="60.65"/><path class="cls-3" d="M91.48,114.8H56.7V64.25H91.48a6.31,6.31,0,0,1,6.29,6.29v38A6.31,6.31,0,0,1,91.48,114.8Z"/><path class="cls-2" d="M62.34,114.8H56.7V64.25h5.63Z"/><path class="cls-2" d="M67.44,80.68V73.84h20v6.85Z"/><text class="cls-4" transform="translate(21.43 150.31)">壁一<tspan class="cls-5" x="22.3" y="0">面</tspan><tspan class="cls-6" x="33.29" y="0">の</tspan><tspan class="cls-7" x="44.24" y="0">本</tspan><tspan class="cls-8" x="55.39" y="0">棚</tspan><tspan class="cls-9" x="66.45" y="0">に</tspan><tspan class="cls-10" x="77.33" y="0">並</tspan><tspan class="cls-11" x="88.22" y="0">ぶ</tspan><tspan class="cls-5" x="99.17" y="0">本</tspan><tspan class="cls-12" x="110.16" y="0">か</tspan><tspan class="cls-13"><tspan x="-0.77" y="14">ら</tspan><tspan class="cls-14" x="10.32" y="14">好</tspan><tspan class="cls-15" x="21.5" y="14">き</tspan><tspan class="cls-16" x="32.38" y="14">な</tspan><tspan class="cls-17" x="43.83" y="14">物</tspan><tspan class="cls-18" x="55.37" y="14">を</tspan><tspan class="cls-19" x="66.37" y="14">借</tspan><tspan class="cls-20" x="77.41" y="14">り</tspan><tspan class="cls-21" x="87.58" y="14">て</tspan><tspan class="cls-22" x="98.84" y="14">読</tspan><tspan class="cls-23" x="110.4" y="14">む</tspan></tspan><tspan class="cls-24"><tspan x="22.42" y="28">こ</tspan><tspan class="cls-25" x="32.23" y="28">と</tspan><tspan class="cls-26" x="42.05" y="28">が</tspan><tspan class="cls-27" x="52.28" y="28">で</tspan><tspan class="cls-28" x="62.15" y="28">き</tspan><tspan class="cls-29" x="71.83" y="28">ま</tspan><tspan class="cls-30" x="81.54" y="28">す</tspan><tspan class="cls-31" x="89.38" y="28">！</tspan></tspan></text><text class="cls-32" transform="translate(36.98 33.76)">地ブラ<tspan class="cls-33" x="44.1" y="0">図書館</tspan></text></g></g></svg>