<svg xmlns="http://www.w3.org/2000/svg" viewBox="0 0 163.5 207.5"><defs><style>.cls-1,.cls-2{fill:none;}.cls-1{stroke:#4c4b4c;stroke-miterlimit:10;stroke-dasharray:4 4;}.cls-2{stroke:#221714;stroke-linecap:round;stroke-linejoin:round;stroke-width:0.71px;}.cls-3{font-size:10px;font-family:NotoSansCJKjp-Regular-83pv-RKSJ-H, Noto Sans CJK JP;letter-spacing:0.07em;}.cls-3,.cls-44{fill:#221714;}.cls-4{letter-spacing:0.06em;}.cls-5{letter-spacing:-0.42em;}.cls-6{letter-spacing:0.07em;}.cls-7{letter-spacing:0.05em;}.cls-8{letter-spacing:-0.03em;}.cls-9{letter-spacing:0.01em;}.cls-10{letter-spacing:0.08em;}.cls-11{letter-spacing:0.02em;}.cls-12{letter-spacing:0.03em;}.cls-13{letter-spacing:0.03em;}.cls-14{letter-spacing:0.04em;}.cls-15{letter-spacing:0.01em;}.cls-16{letter-spacing:-0.06em;}.cls-17{letter-spacing:0em;}.cls-18{letter-spacing:0.04em;}.cls-19{letter-spacing:0.01em;}.cls-20{letter-spacing:0.01em;}.cls-21{letter-spacing:0.01em;}.cls-22{letter-spacing:-0.02em;}.cls-23{letter-spacing:-0.06em;}.cls-24{letter-spacing:0.01em;}.cls-25{letter-spacing:0.02em;}.cls-26{letter-spacing:-0.03em;}.cls-27{letter-spacing:0.01em;}.cls-28{letter-spacing:0.01em;}.cls-29{letter-spacing:-0.01em;}.cls-30{letter-spacing:-0.06em;}.cls-31{letter-spacing:-0.07em;}.cls-32{letter-spacing:-0.07em;}.cls-33{letter-spacing:0em;}.cls-34{letter-spacing:-0.48em;}.cls-35{letter-spacing:-0.05em;}.cls-36{letter-spacing:-0.09em;}.cls-37{letter-spacing:-0.07em;}.cls-38{letter-spacing:-0.02em;}.cls-39{letter-spacing:-0.08em;}.cls-40{letter-spacing:-0.07em;}.cls-41{letter-spacing:0.02em;}.cls-42{letter-spacing:-0.26em;}.cls-43{letter-spacing:-0.22em;}.cls-44{font-size:14px;font-family:AxisStd-Bold, AxisStd Bold;font-weight:700;letter-spacing:0.1em;}</style></defs><title>アセット 9</title><g id="レイヤー_2" data-name="レイヤー 2"><g id="レイヤー_14" data-name="レイヤー 14"><rect class="cls-1" x="0.5" y="0.5" width="162.5" height="206.5"/><path class="cls-2" d="M78.34,63.8c1.28,1.28,3.71,8.36,3.71,8.36S75,69.73,73.69,68.45a3.29,3.29,0,0,1,4.65-4.65Z"/><path class="cls-2" d="M93.39,59.44c0,1.82-3.29,8.54-3.29,8.54s-3.29-6.73-3.29-8.54a3.29,3.29,0,1,1,6.58,0Z"/><path class="cls-2" d="M106.51,68.45c-1.28,1.28-8.36,3.71-8.36,3.71s2.43-7.08,3.71-8.36a3.29,3.29,0,1,1,4.65,4.65Z"/><path class="cls-2" d="M94.11,89.94a1.73,1.73,0,1,1,2.35-.72A1.74,1.74,0,0,1,94.11,89.94Z"/><path class="cls-2" d="M89.87,94.35a1.73,1.73,0,1,1,2.45.14A1.74,1.74,0,0,1,89.87,94.35Z"/><path class="cls-2" d="M84.33,97a1.73,1.73,0,1,1,2.23,1A1.73,1.73,0,0,1,84.33,97Z"/><path class="cls-2" d="M78.21,97.48A1.74,1.74,0,1,1,80,99.21,1.74,1.74,0,0,1,78.21,97.48Z"/><path class="cls-2" d="M72.32,95.83a1.74,1.74,0,1,1,1,2.23A1.74,1.74,0,0,1,72.32,95.83Z"/><path class="cls-2" d="M67.4,92.23a1.73,1.73,0,1,1,.19,2.44A1.73,1.73,0,0,1,67.4,92.23Z"/><path class="cls-2" d="M64,87.12a1.73,1.73,0,1,1-.68,2.36A1.73,1.73,0,0,1,64,87.12Z"/><path class="cls-2" d="M79.84,105.75a25.37,25.37,0,0,1-25.37-25.3H46.66a33.17,33.17,0,0,0,66.34,0H105.2A25.37,25.37,0,0,1,79.84,105.75Z"/><path class="cls-2" d="M79.84,105.75a25.37,25.37,0,0,0,25.36-25.3H94.12a4,4,0,0,1-8,0H54.47A25.37,25.37,0,0,0,79.84,105.75Z"/><text class="cls-3" transform="translate(20.75 149.42)">毎<tspan class="cls-4" x="10.68" y="0">夏</tspan><tspan class="cls-5" x="21.26" y="0">、</tspan><tspan class="cls-6" x="27.03" y="0">東</tspan><tspan class="cls-7" x="37.71" y="0">京</tspan><tspan class="cls-8" x="48.22" y="0">か</tspan><tspan class="cls-9" x="57.97" y="0">ら</tspan><tspan class="cls-10" x="68.08" y="0">離</tspan><tspan class="cls-11" x="78.86" y="0">れ</tspan><tspan class="cls-12" x="89.04" y="0">て</tspan><tspan x="99.32" y="0">古</tspan><tspan class="cls-13" x="110" y="0">民</tspan><tspan class="cls-14"><tspan x="0" y="14">家</tspan><tspan class="cls-15" x="10.41" y="14">な</tspan><tspan class="cls-16" x="20.48" y="14">ど</tspan><tspan class="cls-17" x="29.91" y="14">で</tspan><tspan class="cls-18" x="39.89" y="14">会</tspan><tspan class="cls-19" x="50.28" y="14">社</tspan><tspan class="cls-20" x="60.37" y="14">や</tspan><tspan class="cls-18" x="70.44" y="14">自</tspan><tspan class="cls-21" x="80.83" y="14">分</tspan><tspan class="cls-22" x="90.95" y="14">た</tspan><tspan class="cls-23" x="100.75" y="14">ち</tspan><tspan class="cls-24" x="110.2" y="14">の</tspan></tspan><tspan class="cls-13"><tspan x="3.22" y="28">未</tspan><tspan class="cls-25" x="13.57" y="28">来</tspan><tspan class="cls-26" x="23.8" y="28">を</tspan><tspan class="cls-27" x="33.5" y="28">見</tspan><tspan class="cls-28" x="43.55" y="28">つ</tspan><tspan class="cls-25" x="53.69" y="28">め</tspan><tspan class="cls-29" x="63.92" y="28">な</tspan><tspan class="cls-30" x="73.86" y="28">お</tspan><tspan class="cls-31" x="83.23" y="28">し</tspan><tspan class="cls-32" x="92.53" y="28">ま</tspan><tspan class="cls-33" x="101.84" y="28">す</tspan><tspan class="cls-34" x="111.89" y="28">。</tspan></tspan><tspan class="cls-35"><tspan x="14.63" y="42">も</tspan><tspan class="cls-36" x="24.08" y="42">ち</tspan><tspan class="cls-37" x="33.2" y="42">ろ</tspan><tspan class="cls-30" x="42.52" y="42">ん</tspan><tspan class="cls-38" x="51.88" y="42">レ</tspan><tspan class="cls-39" x="61.68" y="42">ジ</tspan><tspan class="cls-40" x="70.91" y="42">ャ</tspan><tspan class="cls-41" x="80.25" y="42">ー</tspan><tspan class="cls-42" x="90.47" y="42">も</tspan><tspan class="cls-43" x="97.83" y="42">！</tspan></tspan></text><text class="cls-44" transform="translate(58.35 32.87)">夏合宿</text></g></g></svg>