<svg xmlns="http://www.w3.org/2000/svg" viewBox="0 0 163.5 207.5"><defs><style>.cls-1,.cls-47{fill:none;}.cls-1{stroke:#4c4b4c;stroke-miterlimit:10;stroke-dasharray:4 4;}.cls-2{font-size:10px;font-family:NotoSansCJKjp-Regular-83pv-RKSJ-H, Noto Sans CJK JP;letter-spacing:0.04em;}.cls-2,.cls-46{fill:#221714;}.cls-3{letter-spacing:0.03em;}.cls-4{letter-spacing:-0.01em;}.cls-5{letter-spacing:0.05em;}.cls-6{letter-spacing:-0.01em;}.cls-7{letter-spacing:0em;}.cls-8{letter-spacing:-0.02em;}.cls-9{letter-spacing:-0.09em;}.cls-10{letter-spacing:-0.11em;}.cls-11{letter-spacing:-0.06em;}.cls-12{letter-spacing:-0.05em;}.cls-13{letter-spacing:0.01em;}.cls-14{letter-spacing:-0.02em;}.cls-15{letter-spacing:0.03em;}.cls-16{letter-spacing:0.02em;}.cls-17{letter-spacing:-0.47em;}.cls-18{letter-spacing:-0.04em;}.cls-19{letter-spacing:-0.04em;}.cls-20{letter-spacing:-0.13em;}.cls-21{letter-spacing:-0.18em;}.cls-22{letter-spacing:0.06em;}.cls-23{letter-spacing:0.09em;}.cls-24{letter-spacing:-0.43em;}.cls-25{letter-spacing:0.03em;}.cls-26{letter-spacing:0.05em;}.cls-27{letter-spacing:0.03em;}.cls-28{letter-spacing:0.04em;}.cls-29{letter-spacing:0.08em;}.cls-30{letter-spacing:0.05em;}.cls-31{letter-spacing:-0.01em;}.cls-32{letter-spacing:-0.08em;}.cls-33{letter-spacing:-0.04em;}.cls-34{letter-spacing:-0.04em;}.cls-35{letter-spacing:0em;}.cls-36{letter-spacing:-0.02em;}.cls-37{letter-spacing:-0.07em;}.cls-38{letter-spacing:-0.02em;}.cls-39{letter-spacing:-0.06em;}.cls-40{letter-spacing:-0.08em;}.cls-41{letter-spacing:-0.02em;}.cls-42{letter-spacing:-0.07em;}.cls-43{letter-spacing:-0.11em;}.cls-44{letter-spacing:-0.3em;}.cls-45{letter-spacing:-0.25em;}.cls-46{font-size:14px;font-family:AxisStd-Bold, AxisStd Bold;font-weight:700;letter-spacing:0.1em;}.cls-47{stroke:#221714;stroke-linecap:round;stroke-linejoin:round;stroke-width:0.71px;}</style></defs><title>アセット 10</title><g id="レイヤー_2" data-name="レイヤー 2"><g id="レイヤー_14" data-name="レイヤー 14"><rect class="cls-1" x="0.5" y="0.5" width="162.5" height="206.5"/><text class="cls-2" transform="translate(20.98 149.98)">入社<tspan class="cls-3" x="20.77" y="0">式</tspan><tspan class="cls-4" x="31.1" y="0">も</tspan><tspan class="cls-5" x="41" y="0">兼</tspan><tspan class="cls-6" x="51.48" y="0">ね</tspan><tspan class="cls-7" x="61.42" y="0">て</tspan><tspan x="71.41" y="0">夏合</tspan><tspan class="cls-8" x="92.18" y="0">宿</tspan><tspan class="cls-9" x="102" y="0">よ</tspan><tspan class="cls-10" x="111.07" y="0">り</tspan><tspan class="cls-11"><tspan x="0" y="14">少</tspan><tspan class="cls-12" x="9.45" y="14">し</tspan><tspan class="cls-13" x="18.9" y="14">遠</tspan><tspan class="cls-14" x="28.96" y="14">い</tspan><tspan class="cls-15" x="38.79" y="14">所</tspan><tspan class="cls-16" x="49.06" y="14">へ</tspan><tspan class="cls-17" x="59.31" y="14">、</tspan><tspan x="64.62" y="14">少</tspan><tspan class="cls-18" x="74.07" y="14">し</tspan><tspan class="cls-14" x="83.69" y="14">ぜ</tspan><tspan class="cls-19" x="93.53" y="14">い</tspan><tspan class="cls-20" x="103.09" y="14">た</tspan><tspan class="cls-21" x="111.75" y="14">く</tspan></tspan><tspan class="cls-22"><tspan x="0.02" y="28">な</tspan><tspan class="cls-23" x="10.64" y="28">旅</tspan><tspan class="cls-24" x="21.57" y="28">。</tspan><tspan class="cls-25" x="27.24" y="28">み</tspan><tspan class="cls-26" x="37.58" y="28">ん</tspan><tspan class="cls-27" x="48.06" y="28">な</tspan><tspan class="cls-28" x="58.33" y="28">で</tspan><tspan class="cls-29" x="68.74" y="28">普段</tspan><tspan class="cls-30" x="90.38" y="28">は</tspan><tspan class="cls-31" x="100.85" y="28">で</tspan><tspan class="cls-32" x="110.79" y="28">き</tspan></tspan><tspan class="cls-33"><tspan x="0.47" y="42">な</tspan><tspan class="cls-34" x="10.05" y="42">い</tspan><tspan class="cls-35" x="19.61" y="42">体</tspan><tspan class="cls-36" x="29.56" y="42">験</tspan><tspan class="cls-37" x="39.39" y="42">を</tspan><tspan class="cls-38" x="48.69" y="42">分</tspan><tspan class="cls-39" x="58.48" y="42">か</tspan><tspan class="cls-40" x="67.87" y="42">ち</tspan><tspan class="cls-41" x="77.04" y="42">合</tspan><tspan class="cls-42" x="86.82" y="42">い</tspan><tspan class="cls-43" x="96.1" y="42">ま</tspan><tspan class="cls-44" x="105.01" y="42">す</tspan><tspan class="cls-45" x="112.05" y="42">！</tspan></tspan></text><text class="cls-46" transform="translate(43.18 32.87)">春の大旅行</text><circle class="cls-47" cx="67.58" cy="65.2" r="1.18" transform="matrix(0.04, -1, 1, 0.04, -0.07, 130.33)"/><circle class="cls-47" cx="68.81" cy="74.48" r="1.18" transform="translate(-8.15 140.49) rotate(-87.89)"/><line class="cls-47" x1="67.79" y1="66.75" x2="68.62" y2="73.07"/><circle class="cls-47" cx="72.83" cy="69.22" r="1.18" transform="translate(0.97 139.45) rotate(-87.89)"/><circle class="cls-47" cx="63.56" cy="70.46" r="1.18" transform="translate(-9.2 131.37) rotate(-87.89)"/><line class="cls-47" x1="71.28" y1="69.43" x2="64.96" y2="70.27"/><circle class="cls-47" cx="71.04" cy="66.12" r="1.18" transform="translate(-26.01 66.02) rotate(-42.89)"/><circle class="cls-47" cx="65.35" cy="73.55" r="1.18" transform="translate(-32.59 64.13) rotate(-42.89)"/><line class="cls-47" x1="70.09" y1="67.37" x2="66.21" y2="72.43"/><circle class="cls-47" cx="71.91" cy="72.68" r="1.18" transform="translate(-30.24 68.37) rotate(-42.89)"/><circle class="cls-47" cx="64.48" cy="67" r="1.18" transform="matrix(0.73, -0.68, 0.68, 0.73, -28.36, 61.79)"/><line class="cls-47" x1="70.67" y1="71.73" x2="65.61" y2="67.86"/><path class="cls-47" d="M82.93,62.91s6.7-5.29-2.53-4.45a14.37,14.37,0,0,0-7.17,3,14.48,14.48,0,0,0-2.1-8c-5.23-7.91-5.17.69-5.17.69s-2.38-8.2-5.07.67a14.56,14.56,0,0,0,.25,8.2,14.16,14.16,0,0,0-7.51-1c-9.34,1.59-1.46,5-1.46,5s-8.46-1.13-1.43,4.91a14.74,14.74,0,0,0,8,3.14,14.34,14.34,0,0,0-3.14,7.31c-.83,9.44,4.47,2.68,4.47,2.68S56.87,93,64.5,87.69a14.92,14.92,0,0,0,5.23-7.43A14.72,14.72,0,0,0,76.57,86c8.92,3.2,3.73-3.64,3.73-3.64s6.82,5.14,3.66-3.58a14.52,14.52,0,0,0-5-6.37,14.45,14.45,0,0,0,6.59-4.94C90.87,59.62,82.93,62.91,82.93,62.91Z"/><circle class="cls-47" cx="99.29" cy="97.8" r="0.75" transform="translate(-27.85 154.89) rotate(-68.75)"/><circle class="cls-47" cx="98.1" cy="103.62" r="0.75" transform="translate(-34.04 157.49) rotate(-68.75)"/><line class="cls-47" x1="99.09" y1="98.78" x2="98.28" y2="102.74"/><circle class="cls-47" cx="101.6" cy="101.31" r="0.75" transform="translate(-29.64 159.28) rotate(-68.75)"/><circle class="cls-47" cx="95.78" cy="100.12" r="0.75" transform="translate(-32.25 153.1) rotate(-68.75)"/><line class="cls-47" x1="100.63" y1="101.11" x2="96.66" y2="100.3"/><circle class="cls-47" cx="101.17" cy="99.08" r="0.75" transform="translate(-31.33 49.13) rotate(-23.75)"/><circle class="cls-47" cx="96.21" cy="102.35" r="0.75" transform="translate(-33.07 47.41) rotate(-23.75)"/><line class="cls-47" x1="100.34" y1="99.63" x2="96.96" y2="101.85"/><circle class="cls-47" cx="100.33" cy="103.19" r="0.75" transform="translate(-33.06 49.14) rotate(-23.75)"/><circle class="cls-47" cx="97.05" cy="98.23" r="0.75" transform="translate(-31.34 47.41) rotate(-23.75)"/><line class="cls-47" x1="99.78" y1="102.36" x2="97.55" y2="98.99"/><path class="cls-47" d="M109,99.62s5.12-1.78-.59-3.19a9.12,9.12,0,0,0-4.94.34,9.19,9.19,0,0,0,.41-5.25c-1.49-5.83-3.24-.66-3.24-.66s.28-5.41-3.18-.65a9.24,9.24,0,0,0-1.56,5A9,9,0,0,0,91.58,93c-5.94-1-1.92,2.7-1.92,2.7s-4.84-2.44-1.88,2.65A9.36,9.36,0,0,0,92,101.89a9.1,9.1,0,0,0-3.4,3.73c-2.47,5.49,2.12,2.54,2.12,2.54s-3.59,4.06,2.08,2.49a9.47,9.47,0,0,0,4.68-3.37,9.35,9.35,0,0,0,2.92,4.85c4.68,3.78,3-1.41,3-1.41s3,4.5,2.94-1.38a9.22,9.22,0,0,0-1.7-4.87,9.18,9.18,0,0,0,5-1.59C114.42,99.3,109,99.62,109,99.62Z"/><path class="cls-47" d="M106.88,72.8c-.26,4.38-5.07,9.15-7.87,7.65s-1.45-8.3,2.08-10.9c4.8-3.53,2.87,1.61,2.87,1.61S107.23,66.72,106.88,72.8Z"/><path class="cls-47" d="M52.61,92.7c4.36.49,8.87,5.55,7.22,8.27s-8.37,1-10.77-2.66c-3.26-5,1.76-2.78,1.76-2.78S46.55,92,52.61,92.7Z"/><path class="cls-47" d="M67.26,111.09c1.26-4.2,7-7.73,9.43-5.63s-.51,8.41-4.54,10.12c-5.49,2.32-2.42-2.23-2.42-2.23S65.51,116.92,67.26,111.09Z"/></g></g></svg>