<svg xmlns="http://www.w3.org/2000/svg" viewBox="0 0 163.5 207.5"><defs><style>.cls-1,.cls-2{fill:none;}.cls-1{stroke:#4c4b4c;stroke-miterlimit:10;stroke-dasharray:4 4;}.cls-2{stroke:#221714;stroke-linecap:round;stroke-linejoin:round;stroke-width:0.71px;}.cls-3{font-size:10px;font-family:NotoSansCJKjp-Regular-83pv-RKSJ-H, Noto Sans CJK JP;letter-spacing:0.09em;}.cls-3,.cls-43{fill:#221714;}.cls-4{letter-spacing:0.04em;}.cls-5{letter-spacing:0.07em;}.cls-6{letter-spacing:0.06em;}.cls-7{letter-spacing:-0.08em;}.cls-8{letter-spacing:-0.03em;}.cls-9{letter-spacing:0.02em;}.cls-10{letter-spacing:-0.07em;}.cls-11{letter-spacing:-0.12em;}.cls-12{letter-spacing:-0.01em;}.cls-13{letter-spacing:0.04em;}.cls-14{letter-spacing:0.05em;}.cls-15{letter-spacing:-0.01em;}.cls-16{letter-spacing:-0.03em;}.cls-17{letter-spacing:0.08em;}.cls-18{letter-spacing:0.08em;}.cls-19{letter-spacing:0.08em;}.cls-20{letter-spacing:0.03em;}.cls-21{letter-spacing:0.06em;}.cls-22{letter-spacing:0.07em;}.cls-23{letter-spacing:0em;}.cls-24{letter-spacing:0.07em;}.cls-25{letter-spacing:-0.41em;}.cls-26{letter-spacing:0.07em;}.cls-27{letter-spacing:0.1em;}.cls-28{letter-spacing:0.1em;}.cls-29{letter-spacing:0.07em;}.cls-30{letter-spacing:0.11em;}.cls-31{letter-spacing:0.11em;}.cls-32{letter-spacing:0.14em;}.cls-33{letter-spacing:0.12em;}.cls-34{letter-spacing:0.05em;}.cls-35{letter-spacing:0.08em;}.cls-36{letter-spacing:0.14em;}.cls-37{letter-spacing:-0.01em;}.cls-38{letter-spacing:-0.05em;}.cls-39{letter-spacing:-0.02em;}.cls-40{letter-spacing:-0.02em;}.cls-41{letter-spacing:0.04em;}.cls-42{letter-spacing:-0.44em;}.cls-43{font-size:14px;font-family:AxisStd-Bold, AxisStd Bold;font-weight:700;letter-spacing:0.1em;}.cls-44{letter-spacing:0.09em;}.cls-45{letter-spacing:0.01em;}.cls-46{letter-spacing:-0.01em;}.cls-47{letter-spacing:0.06em;}.cls-48{letter-spacing:0.09em;}</style></defs><title>アセット 11</title><g id="レイヤー_2" data-name="レイヤー 2"><g id="レイヤー_14" data-name="レイヤー 14"><rect class="cls-1" x="0.5" y="0.5" width="162.5" height="206.5"/><path class="cls-2" d="M66.91,87.08l31.8-31.8c3.46-3.46,7-2.94,9.56-.43h0c2.51,2.51,3,6.11-.43,9.56L76,96.21Z"/><path class="cls-2" d="M57.28,105.84h0c-2.19-2.19-2.81-5.16.21-8.18l10-10,8,8-10,10C62.44,108.65,59.47,108,57.28,105.84Z"/><path class="cls-2" d="M48.41,114.71h0c-1.64-1.64.35-6.31,1.27-7.23l5.21-5.21L56,104.54l2.66,2.66,2.22,1-5.21,5.21C54.72,114.35,50.05,116.34,48.41,114.71Z"/><path class="cls-2" d="M104.35,58.77h0c.5.5-.12,1.94-1.39,3.21L95.2,69.73l-1.82-1.82,7.75-7.75C102.4,58.9,103.85,58.27,104.35,58.77Z"/><rect class="cls-2" x="51.32" y="109.44" width="2.36" height="2.36" rx="1.18" ry="1.18" transform="translate(93.6 -4.72) rotate(45)"/><line class="cls-2" x1="51.21" y1="111.91" x2="48.41" y2="114.71"/><line class="cls-2" x1="84.25" y1="69.73" x2="93.39" y2="78.87"/><line class="cls-2" x1="50.3" y1="115.82" x2="102.51" y2="115.82"/><line class="cls-2" x1="72.91" y1="110.93" x2="106.38" y2="110.93"/><text class="cls-3" transform="translate(21.2 149.98)">学<tspan class="cls-4" x="10.9" y="0">び</tspan><tspan class="cls-5" x="21.3" y="0">の</tspan><tspan class="cls-6" x="32" y="0">場</tspan><tspan class="cls-7" x="42.62" y="0">と</tspan><tspan class="cls-8" x="51.84" y="0">し</tspan><tspan class="cls-9" x="61.57" y="0">て</tspan><tspan class="cls-10" x="71.81" y="0">た</tspan><tspan class="cls-11" x="81.15" y="0">く</tspan><tspan class="cls-12" x="89.94" y="0">さ</tspan><tspan class="cls-13" x="99.82" y="0">ん</tspan><tspan class="cls-14" x="110.2" y="0">の</tspan><tspan class="cls-15"><tspan x="-0.08" y="14">セ</tspan><tspan class="cls-16" x="9.84" y="14">ミ</tspan><tspan class="cls-17" x="19.57" y="14">ナ</tspan><tspan class="cls-18" x="30.32" y="14">ー</tspan><tspan class="cls-19" x="41.16" y="14">に</tspan><tspan class="cls-20" x="51.91" y="14">出</tspan><tspan class="cls-21" x="62.17" y="14">ら</tspan><tspan class="cls-22" x="72.73" y="14">れ</tspan><tspan class="cls-23" x="83.38" y="14">ま</tspan><tspan class="cls-24" x="93.37" y="14">す</tspan><tspan class="cls-25" x="104.09" y="14">。</tspan><tspan class="cls-26" x="110" y="14">出</tspan></tspan><tspan class="cls-27"><tspan x="-0.27" y="28">た</tspan><tspan class="cls-28" x="10.76" y="28">い</tspan><tspan class="cls-29" x="21.72" y="28">も</tspan><tspan class="cls-30" x="32.46" y="28">の</tspan><tspan class="cls-31" x="43.56" y="28">に</tspan><tspan class="cls-32" x="54.68" y="28">自</tspan><tspan class="cls-33" x="66.07" y="28">分</tspan><tspan class="cls-34" x="77.31" y="28">か</tspan><tspan class="cls-35" x="87.77" y="28">ら</tspan><tspan class="cls-36" x="98.61" y="28">参</tspan><tspan class="cls-26" x="110" y="28">加</tspan></tspan><tspan class="cls-37"><tspan x="32.62" y="42">す</tspan><tspan class="cls-38" x="42.49" y="42">る</tspan><tspan class="cls-39" x="51.97" y="42">こ</tspan><tspan class="cls-40" x="61.78" y="42">と</tspan><tspan class="cls-41" x="71.58" y="42">も</tspan><tspan class="cls-42" x="81.95" y="42">。</tspan></tspan></text><text class="cls-43" transform="translate(37.52 32.87)">社<tspan class="cls-44" x="15.4" y="0">外</tspan><tspan class="cls-45" x="30.66" y="0">セ</tspan><tspan class="cls-46" x="44.8" y="0">ミ</tspan><tspan class="cls-47" x="58.66" y="0">ナ</tspan><tspan class="cls-48" x="73.5" y="0">ー</tspan></text></g></g></svg>