<svg xmlns="http://www.w3.org/2000/svg" viewBox="0 0 163.5 207.5"><defs><style>.cls-1{fill:none;stroke:#4c4b4c;stroke-miterlimit:10;stroke-dasharray:4 4;}.cls-2{fill:#e6e6e6;stroke:#221714;stroke-linecap:round;stroke-linejoin:round;stroke-width:0.71px;}.cls-3{font-size:10px;font-family:NotoSansCJKjp-Regular-83pv-RKSJ-H, Noto Sans CJK JP;letter-spacing:0.08em;}.cls-3,.cls-39{fill:#221714;}.cls-4{letter-spacing:0.09em;}.cls-5{letter-spacing:0.03em;}.cls-6{letter-spacing:0.11em;}.cls-7{letter-spacing:0.11em;}.cls-8{letter-spacing:0.08em;}.cls-9{letter-spacing:0em;}.cls-10{letter-spacing:0.03em;}.cls-11{letter-spacing:-0.41em;}.cls-12{letter-spacing:-0.02em;}.cls-13{letter-spacing:-0.03em;}.cls-14{letter-spacing:0.05em;}.cls-15{letter-spacing:0.14em;}.cls-16{letter-spacing:0.13em;}.cls-17{letter-spacing:0.07em;}.cls-18{letter-spacing:0.12em;}.cls-19{letter-spacing:0.06em;}.cls-20{letter-spacing:0.08em;}.cls-21{letter-spacing:0.05em;}.cls-22{letter-spacing:0.08em;}.cls-23{letter-spacing:0.04em;}.cls-24{letter-spacing:0em;}.cls-25{letter-spacing:-0.07em;}.cls-26{letter-spacing:-0.01em;}.cls-27{letter-spacing:0.07em;}.cls-28{letter-spacing:0.02em;}.cls-29{letter-spacing:0.02em;}.cls-30{letter-spacing:-0.05em;}.cls-31{letter-spacing:-0.03em;}.cls-32{letter-spacing:-0.01em;}.cls-33{letter-spacing:0em;}.cls-34{letter-spacing:0.02em;}.cls-35{letter-spacing:0.01em;}.cls-36{letter-spacing:-0.03em;}.cls-37{letter-spacing:0.05em;}.cls-38{letter-spacing:-0.44em;}.cls-39{font-size:14px;font-family:AxisStd-Bold, AxisStd Bold;font-weight:700;}.cls-40{letter-spacing:0.07em;}.cls-41{letter-spacing:0.09em;}.cls-42{letter-spacing:0.1em;}</style></defs><title>アセット 12</title><g id="レイヤー_2" data-name="レイヤー 2"><g id="レイヤー_14" data-name="レイヤー 14"><rect class="cls-1" x="0.5" y="0.5" width="162.5" height="206.5"/><path class="cls-2" d="M110.1,60.75s-.88-3.11-11.77,12.92c-.37-.3.41.24,0,0l6.86-10.58c.57-.93,1-4.47.62-4.67,0,0-2.83,1.3-3.85,2.77-1.39,2-2.36,4.28-6.74,11.07-.31-.1.3.08,0,0C104.68,55.19,101.39,56,101.39,56c-.37-.2-1.15.4-1.72,1.33L91,71.45l-2.89,4.7-.63,1c-.57.93-.82,3.63.47,4.33l.33.18L68.53,113.84c-.57.93,0,2.27,1.31,3s2.82.51,3.39-.42L93,84.22l.33.18c1.29.7,3.65-.85,4.23-1.78l.63-1,2.89-4.71,8.66-14.08C110.3,61.88,110.47,61,110.1,60.75Z"/><path class="cls-2" d="M57.84,58.05c1.29-.7,2.82-.51,3.39.42l7.92,12.88L79.46,88.13l15.81,25.71c.57.93,0,2.27-1.31,3s-2.82.51-3.39-.42l-14.76-24L72.8,94c-1.29.7-2.82.51-3.39-.42l-6-9.8C53.76,62.53,57.84,58.05,57.84,58.05Z"/><text class="cls-3" transform="translate(21.22 149.98)">お<tspan class="cls-4" x="10.78" y="0">昼</tspan><tspan class="cls-5" x="21.64" y="0">を</tspan><tspan class="cls-6" x="31.97" y="0">食</tspan><tspan class="cls-7" x="43.08" y="0">べ</tspan><tspan class="cls-8" x="54.15" y="0">な</tspan><tspan class="cls-9" x="64.9" y="0">が</tspan><tspan class="cls-10" x="74.93" y="0">ら</tspan><tspan class="cls-11" x="85.26" y="0">、</tspan><tspan class="cls-10" x="91.15" y="0">ゆ</tspan><tspan class="cls-12" x="101.48" y="0">る</tspan><tspan class="cls-13" x="111.28" y="0">り</tspan><tspan class="cls-14"><tspan x="-0.08" y="14">と</tspan><tspan class="cls-15" x="10.39" y="14">社内勉強</tspan><tspan class="cls-16" x="55.88" y="14">会</tspan><tspan class="cls-17" x="67.14" y="14">を</tspan><tspan class="cls-18" x="77.86" y="14">開</tspan><tspan class="cls-19" x="89.06" y="14">い</tspan><tspan class="cls-20" x="99.64" y="14">て</tspan><tspan class="cls-21" x="110.41" y="14">お</tspan></tspan><tspan class="cls-22"><tspan x="0.21" y="28">互</tspan><tspan class="cls-23" x="11.04" y="28">い</tspan><tspan class="cls-24" x="21.49" y="28">の</tspan><tspan class="cls-25" x="31.53" y="28">ノ</tspan><tspan class="cls-26" x="40.81" y="28">ウ</tspan><tspan class="cls-27" x="50.74" y="28">ハ</tspan><tspan class="cls-28" x="61.42" y="28">ウ</tspan><tspan class="cls-29" x="71.65" y="28">を</tspan><tspan class="cls-30" x="81.88" y="28">シ</tspan><tspan class="cls-31" x="91.34" y="28">ェ</tspan><tspan class="cls-32" x="101.09" y="28">ア</tspan><tspan class="cls-33" x="110.98" y="28">し</tspan></tspan><tspan class="cls-34"><tspan x="37.34" y="42">て</tspan><tspan class="cls-35" x="47.54" y="42">い</tspan><tspan class="cls-36" x="57.61" y="42">ま</tspan><tspan class="cls-37" x="67.33" y="42">す</tspan><tspan class="cls-38" x="77.78" y="42">。</tspan></tspan></text><text class="cls-39" transform="translate(36.56 33.43)">ラ<tspan class="cls-40" x="14" y="0">ン</tspan><tspan class="cls-41" x="28.98" y="0">チ</tspan><tspan class="cls-42" x="44.24" y="0">勉強会</tspan></text></g></g></svg>