<svg xmlns="http://www.w3.org/2000/svg" viewBox="0 0 163.5 207.5"><defs><style>.cls-1,.cls-2{fill:none;}.cls-1{stroke:#4c4b4c;stroke-miterlimit:10;stroke-dasharray:4 4;}.cls-2{stroke:#221714;stroke-linecap:round;stroke-linejoin:round;stroke-width:0.71px;}.cls-3{fill:#221714;}</style></defs><title>アセット 11</title><g id="レイヤー_2" data-name="レイヤー 2"><g id="レイヤー_14" data-name="レイヤー 14"><rect class="cls-1" x="0.5" y="0.5" width="162.5" height="206.5"/><path class="cls-2" d="M96.13,76.23h0c0-.09,0-.18,0-.27A18.57,18.57,0,1,0,59,76c0,.09,0,.18,0,.27h0a3.18,3.18,0,1,0,.65,6.29,4,4,0,0,0-.06.6,4.5,4.5,0,0,0,9,0h0a4.5,4.5,0,0,0,9,0,4.35,4.35,0,0,0-.05-.53h.11a4.36,4.36,0,0,0-.05.53,4.49,4.49,0,0,0,9,0h0a4.49,4.49,0,0,0,9,0,4,4,0,0,0-.06-.6,3.18,3.18,0,1,0,.65-6.29Z"/><path class="cls-2" d="M95.76,97.07c0-1.76,3.18-8.26,3.18-8.26s3.18,6.5,3.18,8.26a3.18,3.18,0,1,1-6.36,0Z"/><polyline class="cls-2" points="92.08 87.75 77.81 119.27 62.99 88"/><line class="cls-2" x1="82.86" y1="87.83" x2="73.11" y2="109.36"/><line class="cls-2" x1="74.64" y1="87.9" x2="68.92" y2="100.53"/><path class="cls-3" d="M27.65,145.4a2.44,2.44,0,0,1,2,2.34c0,1.42-.94,2.66-3.24,3l-.43-.67c1.78-.19,2.88-1.11,2.88-2.39A1.75,1.75,0,0,0,27.42,146a8,8,0,0,1-2.19,3.2c.08.28.16.55.24.8l-.73.22c0-.17-.11-.35-.16-.55a3.32,3.32,0,0,1-1.66.54A1.12,1.12,0,0,1,21.74,149a4,4,0,0,1,2.47-3.2c0-.5.07-1,.11-1.46h-.6c-.43,0-1.2,0-1.6-.06l0-.75a16,16,0,0,0,1.63.12h.66c0-.29.06-.55.08-.76a4.13,4.13,0,0,0,0-.47l.84,0a3.68,3.68,0,0,0-.12.44q-.06.31-.12.75a20.62,20.62,0,0,0,3.47-.42v.75a33.82,33.82,0,0,1-3.57.36c0,.38-.07.8-.1,1.22a5.89,5.89,0,0,1,1.66-.26h.36l0-.09a3.55,3.55,0,0,0,.1-.57l.8.2c-.06.13-.14.4-.2.55Zm-3.47,1.13a3.14,3.14,0,0,0-1.69,2.33c0,.4.19.6.56.6a2.51,2.51,0,0,0,1.36-.52,11.92,11.92,0,0,1-.23-2.24Zm2.38-.62a4.93,4.93,0,0,0-1.68.31v.39a10.39,10.39,0,0,0,.17,1.8,6.75,6.75,0,0,0,1.67-2.5Z"/><path class="cls-3" d="M33.78,144.8a16,16,0,0,1,4.23-1A2.65,2.65,0,0,1,41,146.43c0,2.38-2.36,3.53-5.42,3.7l-.35-.83c2.59-.07,4.89-.85,4.89-2.88A1.86,1.86,0,0,0,38,144.57a16.41,16.41,0,0,0-4.93,1.4l-.37-.88C33,145,33.41,144.91,33.78,144.8Z"/><path class="cls-3" d="M45.37,144.31c0,.62,0,1.53.07,2.34.16,1.66.64,2.75,1.34,2.75.51,0,1-1,1.23-2l.63.72c-.59,1.68-1.2,2.25-1.88,2.25-.93,0-1.83-.93-2.1-3.5a26.28,26.28,0,0,1-.11-2.64,5.2,5.2,0,0,0-.06-.88l1,0C45.41,143.59,45.38,144,45.37,144.31Zm7,4.16-.81.32a9.79,9.79,0,0,0-1.71-4.9l.78-.27A10.2,10.2,0,0,1,52.35,148.47Z"/><path class="cls-3" d="M62.51,148.07a5.43,5.43,0,0,1-2.07,1.68,15,15,0,0,0,3.75.66,3.32,3.32,0,0,0-.42.68,13.31,13.31,0,0,1-4.18-1,17.83,17.83,0,0,1-4.35.95,2.48,2.48,0,0,0-.29-.62,16.49,16.49,0,0,0,3.87-.72,5.74,5.74,0,0,1-1.42-1.15,10.49,10.49,0,0,1-1.9.91,2.51,2.51,0,0,0-.45-.52,7.3,7.3,0,0,0,3-1.71H56.31v-3.68h2.63c0-.19.1-.38.14-.57H55.34v-.62h8.43V143H59.89c-.07.21-.14.39-.21.57H62.8v3.68H59a4.18,4.18,0,0,1-.51.53h3.47l.14,0ZM57,144.65h5v-.58H57Zm0,1.07h5v-.59H57Zm0,1.08h5v-.6H57Zm1,1.55a5,5,0,0,0,1.59,1.09,5.94,5.94,0,0,0,1.74-1.09Z"/><path class="cls-3" d="M68.9,142.81c-.06.17-.15.49-.19.67a22.71,22.71,0,0,0-.48,3.79,10.42,10.42,0,0,0,.08,1.36c.17-.45.39-1,.55-1.42l.43.32a21.39,21.39,0,0,0-.7,2.22,2.44,2.44,0,0,0,0,.44l0,.35-.72.05a12.44,12.44,0,0,1-.36-3.18,27.47,27.47,0,0,1,.44-4,5.85,5.85,0,0,0,.07-.7Zm2.26,4.8a3.68,3.68,0,0,0-.13.91c0,.45.3.89,1.66.89a10.76,10.76,0,0,0,2.45-.26V150a13.14,13.14,0,0,1-2.47.2c-1.66,0-2.4-.55-2.4-1.48a5.75,5.75,0,0,1,.16-1.17Zm-.39-4a17.32,17.32,0,0,0,4.07,0v.82a24.91,24.91,0,0,1-4.06,0Z"/><path class="cls-3" d="M80.28,142.7a4.75,4.75,0,0,0-.17.67,24.39,24.39,0,0,0-.49,4,8.69,8.69,0,0,0,.09,1.35c.16-.45.39-1,.56-1.44l.42.33a21.27,21.27,0,0,0-.7,2.19,1.69,1.69,0,0,0-.05.44c0,.1,0,.24,0,.34l-.71.06a12,12,0,0,1-.38-3.14,30.85,30.85,0,0,1,.45-4.16,4.35,4.35,0,0,0,.07-.7Zm6.44,7.21a7.51,7.51,0,0,0-1.49-1.13V149a1.5,1.5,0,0,1-1.72,1.62c-1.33,0-2.06-.55-2.06-1.43s.74-1.51,2-1.51a4.37,4.37,0,0,1,.92.09c0-.76-.09-1.71-.1-2.53l-.95,0c-.56,0-1.08,0-1.66-.06v-.76a15.33,15.33,0,0,0,1.68.09l.93,0v-1.23a4.14,4.14,0,0,0,0-.6h.91a5.48,5.48,0,0,0-.06.59c0,.27,0,.73,0,1.19a12.7,12.7,0,0,0,1.71-.23V145c-.54.09-1.12.15-1.71.19,0,1,.08,2,.12,2.81a6.76,6.76,0,0,1,1.95,1.29Zm-2.28-1.47a3.11,3.11,0,0,0-1-.16c-.74,0-1.25.33-1.25.79s.48.77,1.19.77,1.08-.41,1.08-1.07C84.44,148.68,84.44,148.56,84.43,148.44Z"/><path class="cls-3" d="M98.4,143.55c-.07.1-.2.25-.27.36a9.66,9.66,0,0,1-2.49,2.76l-.66-.53a6.73,6.73,0,0,0,2.18-2.24H91.47a11.29,11.29,0,0,0-1.14.06v-.9a10.52,10.52,0,0,0,1.14.08h5.74a5,5,0,0,0,.7-.06Zm-4,1.32c0,2.71-.24,4.54-2.79,5.81l-.73-.6a3.88,3.88,0,0,0,.89-.44c1.55-.95,1.77-2.38,1.77-4a6.17,6.17,0,0,0,0-.72Z"/><path class="cls-3" d="M108.75,143.1a15.69,15.69,0,0,1-2.68,2.17v4.28a7.53,7.53,0,0,0,.06,1.07h-1a9.17,9.17,0,0,0,.06-1.07v-3.78a20,20,0,0,1-3.76,1.56l-.46-.78a15.78,15.78,0,0,0,4.47-1.84,11,11,0,0,0,2.63-2.21Z"/><path class="cls-3" d="M118.58,143.62a2.85,2.85,0,0,0-.25.44,12.64,12.64,0,0,1-1.68,2.93,28.73,28.73,0,0,1,2.92,3l-.7.61a23,23,0,0,0-2.75-3,12.67,12.67,0,0,1-3.9,2.92l-.64-.67a11.42,11.42,0,0,0,4.12-3,8.91,8.91,0,0,0,1.66-2.78h-3.9c-.35,0-.9,0-1,0v-.91c.14,0,.71.07,1,.07h3.86a2.67,2.67,0,0,0,.75-.09Z"/><path class="cls-3" d="M130.25,144.06a4.15,4.15,0,0,0-.24.53,9.76,9.76,0,0,1-1.77,3.44,8.76,8.76,0,0,1-4,2.72l-.72-.65a7.73,7.73,0,0,0,5.58-5.63h-3.38a9.9,9.9,0,0,1-2.53,2.46l-.69-.52a8.17,8.17,0,0,0,3.14-3.38,3,3,0,0,0,.31-.79l.93.31c-.17.26-.35.59-.45.78a4.26,4.26,0,0,1-.24.42h2.72a1.9,1.9,0,0,0,.65-.09Z"/><path class="cls-3" d="M135,142.8c0,.19,0,.48,0,.72v3.34c0,.25,0,.58,0,.76h-.92c0-.15,0-.47,0-.77v-3.33c0-.18,0-.53,0-.72Zm4.63-.07c0,.24,0,.53,0,.86v1.62c0,2.4-.32,3.19-1,4a5.34,5.34,0,0,1-2.38,1.46l-.65-.69a4.61,4.61,0,0,0,2.4-1.33c.72-.83.84-1.64.84-3.53v-1.58c0-.33,0-.62,0-.86Z"/><path class="cls-3" d="M21.7,160c.3,0,.83,0,1.39,0h5.48c.5,0,.86,0,1.08,0v1c-.2,0-.62,0-1.07,0H23.09c-.55,0-1.08,0-1.39,0Z"/><path class="cls-3" d="M39.64,164.65c-.13-.36-.33-.82-.55-1.31-1.55.2-4.89.57-6.23.69-.25,0-.54.07-.83.11l-.15-.93c.3,0,.64,0,.93,0l.5,0c.56-1.38,1.58-4.58,1.86-5.56a8.28,8.28,0,0,0,.2-1l1,.2c-.1.25-.21.51-.34.93-.3.94-1.28,4-1.78,5.31,1.47-.14,3.39-.36,4.48-.5a14.23,14.23,0,0,0-1.21-2l.75-.34a27.14,27.14,0,0,1,2.21,4.07Z"/><path class="cls-3" d="M50.69,162.16a18.44,18.44,0,0,1-2.28,1.36,7.85,7.85,0,0,0,2.83.91,2.8,2.8,0,0,0-.45.64,6,6,0,0,1-4.59-2.89H44.64v1.95l2.57-.24v.66c-1.56.17-3.19.33-4.33.43l-.11-.69,1.13-.1V158.9a12.24,12.24,0,0,1-1.34.72,3,3,0,0,0-.44-.6,10.81,10.81,0,0,0,4.16-3.09H47a11.61,11.61,0,0,0,4.37,3,5,5,0,0,0-.48.65,14,14,0,0,1-1.33-.69v3.26l.55-.4Zm-1.44-3.49a11.9,11.9,0,0,1-2.55-2.07,11.2,11.2,0,0,1-2.42,2.07h2.06v-1h.75v1Zm-4.61,1.45h4.21v-.84H44.64Zm0,1.45h4.21v-.88H44.64Zm2.31.61a3.82,3.82,0,0,0,.91,1,14.62,14.62,0,0,0,1.64-1Z"/><path class="cls-3" d="M54,161.06c.53-.53,1.37-1.66,1.94-2.35s1.11-.77,1.76-.11,1.36,1.59,2,2.27,1.57,1.7,2.46,2.5l-.63.71c-.75-.71-1.66-1.73-2.34-2.5s-1.39-1.69-1.86-2.19-.61-.39-.94,0c-.46.58-1.29,1.67-1.78,2.28-.21.26-.43.58-.59.78l-.73-.76A5.23,5.23,0,0,0,54,161.06Zm6.65-1.9-.59.26a10.72,10.72,0,0,0-.94-1.61l.58-.25A17.56,17.56,0,0,1,60.62,159.16Zm1.32-.54-.57.28a11.37,11.37,0,0,0-1-1.59L61,157A12.66,12.66,0,0,1,61.94,158.62Z"/><path class="cls-3" d="M68.15,159.58s0,.23,0,.33c-.07,3.32-.14,4.45-.39,4.79a.75.75,0,0,1-.6.32,9.77,9.77,0,0,1-1.08,0,1.61,1.61,0,0,0-.19-.67c.41,0,.78,0,.94,0a.29.29,0,0,0,.3-.13c.18-.24.25-1.22.31-4H66.06v.07a6.39,6.39,0,0,1-1.52,4.74,3.13,3.13,0,0,0-.54-.48,5.83,5.83,0,0,0,1.36-4.27v-2.07H64.18v-.68H66V156h.72v1.6h1.86v.68H66.06v1.34Zm4.41-1.09a11.33,11.33,0,0,1-1.32,4,5.08,5.08,0,0,0,2.12,1.94,2.41,2.41,0,0,0-.51.63,5.48,5.48,0,0,1-2.06-1.92,6.82,6.82,0,0,1-2.44,2,4.29,4.29,0,0,0-.43-.64,5.88,5.88,0,0,0,2.48-2,12.08,12.08,0,0,1-1-2.72,7.33,7.33,0,0,1-.62,1.11,5.6,5.6,0,0,0-.64-.49,10.66,10.66,0,0,0,1.59-4.42l.76.11c-.11.6-.24,1.19-.4,1.75H73.3v.69Zm-2.65,0a1.23,1.23,0,0,0,0,.14,12.27,12.27,0,0,0,1,3.12,10.52,10.52,0,0,0,1-3.26Z"/><path class="cls-3" d="M77.71,163.83a8.12,8.12,0,0,0,3,.41c.44,0,2.9,0,3.48,0a2,2,0,0,0-.27.64H80.75c-2.16,0-3.65-.24-4.55-1.58a4.07,4.07,0,0,1-.76,1.82,2.14,2.14,0,0,0-.47-.48,5.9,5.9,0,0,0,.82-3.28h.62c0,.38,0,.77-.08,1.14a2.63,2.63,0,0,0,.74,1v-2.66h-2v-.58h4.48v.58H77.71v1.07H79.4v.57H77.71ZM79,159.48h-3.3v-3.12H79Zm-.68-2.57H76.35v.74H78.3Zm0,1.26H76.35v.76H78.3Zm3,4.35A6.48,6.48,0,0,1,79.57,164a3.83,3.83,0,0,0-.5-.47,4.89,4.89,0,0,0,1.65-1.2Zm-.19-4.76c.08-.24.16-.51.22-.76H79.51v-.57H84V157h-2c-.09.26-.19.53-.28.76h1.85v4.39H79.89v-4.39Zm1.79.55H80.56v.75h2.38Zm0,1.27H80.56v.74h2.38Zm0,1.27H80.56v.75h2.38Zm-.33,1.46a7.45,7.45,0,0,1,1.56,1.28l-.54.35a8.26,8.26,0,0,0-1.53-1.34Z"/><path class="cls-3" d="M87.18,163.57a.8.8,0,1,1,.8.79A.77.77,0,0,1,87.18,163.57Zm.23-5.56,0-1.18h1.2l0,1.18-.25,3.88h-.66Z"/><path class="cls-3" d="M99.36,159.78c.22,0,.58,0,.79,0v.83c-.22,0-.52,0-.77,0H96.59A4.74,4.74,0,0,1,94,164.72l-.78-.55a4,4,0,0,0,2.52-3.64h-3c-.32,0-.66,0-.89,0v-.83c.22,0,.57,0,.87,0h3V158c-1,.1-2.14.13-2.91.14l-.2-.74a24.12,24.12,0,0,0,3.36-.15,13.53,13.53,0,0,0,2.58-.58l.53.69-.57.15c-.49.13-1.26.28-2,.39v1.92Z"/><path class="cls-3" d="M107,164.87c0-.09,0-.25,0-.41h-4c-.31,0-.66,0-.82,0v-.8a7.49,7.49,0,0,0,.82,0h4v-1.78h-3.61l-.9,0v-.77c.19,0,.55,0,.89,0H107v-1.67h-3.71l-1,0v-.78c.19,0,.76,0,1,0h3.87l.61,0c0,.11,0,.32,0,.51v5c0,.16,0,.4,0,.54Z"/><path class="cls-3" d="M116.77,164.4c0-.11,0-.32,0-.56H111.9c-.41,0-.86,0-1.13,0V163c.26,0,.69,0,1.11,0h4.91v-4.72H112c-.37,0-.86,0-1.1,0v-.89a10.08,10.08,0,0,0,1.09.06h4.93l.74,0c0,.23,0,.54,0,.78v5.16c0,.36,0,.81,0,1Z"/><path class="cls-3" d="M123.54,162.66a11.23,11.23,0,0,1-2.38,2.21,3.75,3.75,0,0,0-.66-.51,8.12,8.12,0,0,0,2.29-2Zm5.44-.15a7.68,7.68,0,0,0-.66-.79l-2.87.09v3.26h-.77v-3.24l-3.93.1-.08-.75,2.18,0c.28-.2.56-.42.86-.66a13.44,13.44,0,0,0-2.3-1.68l.5-.46.68.4a13.61,13.61,0,0,0,1.32-1.49c-.93,0-1.87.09-2.75.11a2.56,2.56,0,0,0-.18-.66,52.65,52.65,0,0,0,7.33-.62l.54.62a35.94,35.94,0,0,1-4.08.49l.11.06a18.18,18.18,0,0,1-1.74,1.86,9.61,9.61,0,0,1,1.14.88,25.85,25.85,0,0,0,2.47-2.42l.7.38a35.56,35.56,0,0,1-3.51,3.18l3.75-.07c-.36-.36-.74-.7-1.1-1l.6-.38a16.42,16.42,0,0,1,2.45,2.38Zm-1.89-.17a21.23,21.23,0,0,1,2.48,2l-.65.46a18.82,18.82,0,0,0-2.43-2.1Z"/><path class="cls-3" d="M135.19,156.57c0,.19-.09.39-.12.59s-.15.87-.26,1.4c.46,0,.87-.07,1.11-.07.89,0,1.61.35,1.61,1.69a9.51,9.51,0,0,1-.57,3.57,1.4,1.4,0,0,1-1.45.82,6.08,6.08,0,0,1-1.17-.14l-.13-.85a4.52,4.52,0,0,0,1.22.22.83.83,0,0,0,.86-.51,8.23,8.23,0,0,0,.47-3c0-.9-.41-1.06-1-1.06-.24,0-.63,0-1.06.07a19.86,19.86,0,0,1-2.08,5.31l-.81-.33a15.69,15.69,0,0,0,2.08-4.9l-1.25.13c-.24,0-.64.07-.89.12l-.08-.87c.31,0,.56,0,.88,0s.9-.06,1.5-.11a10.88,10.88,0,0,0,.25-2.15Zm3.4,1.13a16.78,16.78,0,0,1,1.81,3.52l-.77.38a12,12,0,0,0-1.77-3.56Zm.41.16a12.29,12.29,0,0,0-.81-1.39l.53-.22a14.43,14.43,0,0,1,.83,1.37Zm1.13-.41a11.27,11.27,0,0,0-.83-1.38l.53-.22a13,13,0,0,1,.84,1.36Z"/><path class="cls-3" d="M72.81,170.25c0,.13,0,.29,0,.46.09,1.32.63,5.94,4.39,7.66a2.25,2.25,0,0,0-.55.61,8.2,8.2,0,0,1-4.16-5.78,8.28,8.28,0,0,1-4,5.78,2.74,2.74,0,0,0-.6-.57c4-2.07,4-6.84,4.12-8.16Z"/><path class="cls-3" d="M81,171.63a8,8,0,0,1-1.62,2.25,6.38,6.38,0,0,0-.68-.48,7.19,7.19,0,0,0,2.15-3.48l.77.18q-.15.46-.33.9h6.23v.63Zm3.22,3.26a10,10,0,0,1-1.27,1.74,12.84,12.84,0,0,1,1.79,1.52l-.59.56a11.82,11.82,0,0,0-1.74-1.54,11.54,11.54,0,0,1-2.89,2,4.18,4.18,0,0,0-.55-.57,10.16,10.16,0,0,0,2.86-1.83,22.3,22.3,0,0,0-1.9-1.21l.53-.49c.61.34,1.27.74,1.91,1.17a8,8,0,0,0,1.15-1.57Zm1.93-1c0,2.58.15,4.51.9,4.51.2,0,.25-.57.27-1.41a3,3,0,0,0,.52.43c-.07,1.25-.23,1.7-.84,1.71-1.32,0-1.53-1.87-1.59-4.6H79.65v-.64Zm-5.32-.8v-.62h5.74V173Z"/><path class="cls-3" d="M92.58,177.39a1.52,1.52,0,1,1-1.53-1.52A1.53,1.53,0,0,1,92.58,177.39Zm-.52,0a1,1,0,0,0-1-1,1,1,0,0,0,0,2A1,1,0,0,0,92.06,177.39Z"/><path class="cls-3" d="M42.15,24.27a7.08,7.08,0,0,0-.55.73,14.09,14.09,0,0,1-3.38,3.84l-1.44-1.16a8.34,8.34,0,0,0,2.58-2.61h-7.3c-.59,0-1.05,0-1.71.1V23.22a11.11,11.11,0,0,0,1.71.14h7.55A7,7,0,0,0,41,23.24Zm-5.71,1.89c0,3.47-.07,6.33-3.89,8.38l-1.62-1.33a5.55,5.55,0,0,0,1.47-.77c1.78-1.23,2.12-2.72,2.12-5a7.73,7.73,0,0,0-.1-1.26Z"/><path class="cls-3" d="M52,32.54a9.66,9.66,0,0,0,.13,1.83H49.91a15.78,15.78,0,0,0,.1-1.83V27.94a27.36,27.36,0,0,1-4.82,1.91l-1-1.71a21.52,21.52,0,0,0,6.37-2.54,14.78,14.78,0,0,0,3.66-3.17l1.5,1.36a22.89,22.89,0,0,1-3.71,3Z"/><path class="cls-3" d="M68.74,24.26a6.58,6.58,0,0,0-.49.87A20.61,20.61,0,0,1,66.05,29,39.38,39.38,0,0,1,70,33l-1.6,1.39a31.91,31.91,0,0,0-3.53-4,18.46,18.46,0,0,1-5.27,3.94l-1.44-1.51a15.87,15.87,0,0,0,5.74-4A10.84,10.84,0,0,0,66,25.38H61.21c-.59,0-1.36.08-1.65.1v-2a15.74,15.74,0,0,0,1.65.1h4.93a5.06,5.06,0,0,0,1.46-.18Z"/><path class="cls-3" d="M85,31.22a25.18,25.18,0,0,1-2.61,1.51,12.14,12.14,0,0,0,3.25.78,6.55,6.55,0,0,0-1,1.46c-3.05-.5-5.07-1.76-6.3-4H76.73v2.06l3-.25,0,1.47c-2.07.21-4.27.41-5.88.55l-.22-1.53,1.46-.11V26.45c-.49.28-1,.53-1.51.76a7,7,0,0,0-1-1.37,14.43,14.43,0,0,0,5.67-4h1.67a14,14,0,0,0,6,3.82,7.89,7.89,0,0,0-1.05,1.48c-.49-.21-1-.46-1.5-.73v4.1c.15-.1.29-.21.42-.31Zm-2.8-5.49a14.47,14.47,0,0,1-3-2.42,13.91,13.91,0,0,1-2.91,2.42h2.09V24.65h1.71v1.08Zm-5.46,2h5V27h-5Zm0,2h5v-.77h-5ZM80,31a5.08,5.08,0,0,0,1,1c.52-.28,1.11-.62,1.64-1Z"/><path class="cls-3" d="M89.38,28.71c.63-.66,1.71-2.09,2.56-3.1s1.88-1.19,2.89-.21,2.06,2.35,2.87,3.25,2.07,2.21,3.39,3.39l-1.44,1.64a40.6,40.6,0,0,1-3-3.36c-.85-1-1.89-2.33-2.55-3.05-.49-.53-.76-.48-1.16,0-.55.7-1.55,2.06-2.14,2.84-.32.45-.63,1-.88,1.37l-1.67-1.74A9.22,9.22,0,0,0,89.38,28.71ZM99,26.35l-1.26.55a14.14,14.14,0,0,0-1.29-2.28l1.22-.5A25.73,25.73,0,0,1,99,26.35Zm1.92-.83-1.22.59a15.78,15.78,0,0,0-1.36-2.21l1.21-.56A19.64,19.64,0,0,1,100.91,25.52Z"/><path class="cls-3" d="M115.35,26a15.59,15.59,0,0,1-1.57,5.17,6.9,6.9,0,0,0,2.77,2.33,6.26,6.26,0,0,0-1.15,1.43,7.57,7.57,0,0,1-2.62-2.26,9.13,9.13,0,0,1-3,2.37,7.91,7.91,0,0,0-.92-1.46,7.34,7.34,0,0,0,3-2.4,16.05,16.05,0,0,1-1.05-2.83,8.21,8.21,0,0,1-.59.9,9.54,9.54,0,0,0-1.13-.94c-.07,4-.14,5.49-.5,6a1.26,1.26,0,0,1-.92.6,8.1,8.1,0,0,1-1.5.06,4.55,4.55,0,0,0-.43-1.51c.45,0,.84,0,1.07,0a.41.41,0,0,0,.41-.21c.18-.28.27-1.47.32-4.79h-1.18a9.15,9.15,0,0,1-2.06,6.46,6.12,6.12,0,0,0-1.22-1.09,8,8,0,0,0,1.71-5.55v-2.7h-1.37V24h2.2V21.89h1.65V24h2.31v1.54h-3.22v1.37h2.77s0,.48,0,.66v.14a14,14,0,0,0,1.95-5.84l1.72.24c-.13.78-.29,1.55-.48,2.3h4.09V26Zm-3.53.1a16.24,16.24,0,0,0,1,3.36,14.72,14.72,0,0,0,.87-3.46h-1.85Z"/><path class="cls-3" d="M122.86,33.07a11.15,11.15,0,0,0,3.11.31c1,0,4.78,0,5.92-.06a4.56,4.56,0,0,0-.53,1.37H126c-2.63,0-4.37-.27-5.49-1.79a5.17,5.17,0,0,1-1,2.16,4.66,4.66,0,0,0-1-1.13c.78-1,.92-2.62,1-4.3h1.33c0,.52,0,1-.08,1.53a3.79,3.79,0,0,0,.71,1.11V29.06h-2.59V27.86h6.28v1.21h-2.28v1.15h2v1.21h-2Zm1.67-6h-5V22.44h5ZM123,23.54h-2v.66h2Zm0,1.71h-2v.69h2Zm5,6a8.23,8.23,0,0,1-2.45,2,10,10,0,0,0-1.06-1,6.4,6.4,0,0,0,2.16-1.51Zm-.7-6.89c.08-.24.15-.5.24-.76h-2.47V22.48h6.42v1.16h-2.45l-.34.76h2.38v6.36h-5.58V24.4Zm2.24,1.12H127v.64h2.55Zm0,1.72H127v.64h2.55Zm0,1.71H127v.67h2.55Zm.21,1.82a10.43,10.43,0,0,1,2,1.76l-1.19.7a11.24,11.24,0,0,0-2-1.86Z"/></g></g></svg>