<svg xmlns="http://www.w3.org/2000/svg" viewBox="0 0 163.5 207.5"><defs><style>.cls-1,.cls-2{fill:none;}.cls-1{stroke:#4c4b4c;stroke-miterlimit:10;stroke-dasharray:4 4;}.cls-2{stroke:#221714;stroke-linecap:round;stroke-linejoin:round;stroke-width:0.71px;}.cls-3{fill:#221714;}</style></defs><title>アセット 12</title><g id="レイヤー_2" data-name="レイヤー 2"><g id="レイヤー_14" data-name="レイヤー 14"><rect class="cls-1" x="0.5" y="0.5" width="162.5" height="206.5"/><path class="cls-2" d="M84.25,116.4H77.73l1.16-1.3a1.7,1.7,0,0,0,2.2-2.46L84.39,109a3.74,3.74,0,0,0,1.24-2.46c0-2-2.22-2-2.61-2H75.09a1.72,1.72,0,0,0-1.69,1.77,1.7,1.7,0,0,0,1.69,1.64h5.7l-2.07,2.35-.12-.12a1.71,1.71,0,1,0-2.42,2.42l.27.27-2.74,3.12a3.07,3.07,0,0,0-.87,2.09c0,1.66,1.69,1.8,2.09,1.8h9.32a1.7,1.7,0,0,0,0-3.41Z"/><path class="cls-2" d="M103,93.59H94.25l1.56-1.75a2.3,2.3,0,0,0,3-3.32l4.44-5c1-1.14,1.67-2.06,1.67-3.31,0-2.63-3-2.74-3.52-2.74H90.7a2.31,2.31,0,0,0-2.28,2.38,2.29,2.29,0,0,0,2.28,2.2h7.68l-2.79,3.17-.16-.16a2.3,2.3,0,0,0-3.26,3.26l.37.37L88.85,93a4.13,4.13,0,0,0-1.17,2.81c0,2.24,2.28,2.42,2.81,2.42H103a2.29,2.29,0,0,0,0-4.59Z"/><path class="cls-2" d="M77.79,77.22H65.71l2.14-2.4a3.16,3.16,0,0,0,4.08-4.56L78,63.43c1.37-1.57,2.3-2.84,2.3-4.55,0-3.62-4.11-3.76-4.84-3.76H60.82a3.18,3.18,0,0,0-3.13,3.28,3.14,3.14,0,0,0,3.13,3H71.38l-3.83,4.36-.22-.22a3.17,3.17,0,0,0-4.48,4.48l.51.51-5.08,5.78a5.68,5.68,0,0,0-1.61,3.86c0,3.08,3.13,3.33,3.86,3.33H77.79a3.15,3.15,0,0,0,0-6.31Z"/><path class="cls-3" d="M24.52,149.68H25.8l-.13.63H22.29l.13-.63h1.35l1.27-6-1.5.43.12-.57,2.31-.68Z"/><path class="cls-3" d="M36,142.63v8.29h-.78v-.61h-5V151h-.75v-8.33Zm-5.74.73v2.7h5v-2.7Zm5,6.22v-2.79h-5v2.79Z"/><path class="cls-3" d="M43.5,149c0-.38,0-1,0-1.54-.92.5-1.56,1-1.56,1.66s.77.89,1.79.89a17.36,17.36,0,0,0,2.7-.24l0,.81a25.27,25.27,0,0,1-2.71.16c-1.42,0-2.56-.3-2.56-1.51s1.18-1.91,2.33-2.51a.84.84,0,0,0-.89-.61,2.63,2.63,0,0,0-1.71.73c-.28.27-.56.64-.9,1l-.68-.51a10.45,10.45,0,0,0,2.28-3h-.41c-.42,0-1.09,0-1.63-.06v-.75c.53.06,1.22.1,1.67.1h.65a5.4,5.4,0,0,0,.25-1.23l.82.07c-.07.28-.16.69-.3,1.14a26.46,26.46,0,0,0,3-.3V144a30.48,30.48,0,0,1-3.28.28,7.12,7.12,0,0,1-.89,1.52,2.8,2.8,0,0,1,1.37-.37,1.24,1.24,0,0,1,1.31.9c.68-.32,1.28-.56,1.8-.8.3-.13.54-.25.82-.39l.32.75c-.25.07-.61.21-.87.31-.56.22-1.27.51-2,.86,0,.57,0,1.41,0,1.89Z"/><path class="cls-3" d="M51.07,149.07a2.86,2.86,0,0,0,2.51,1.12c1.09,0,3.37,0,4.56-.06a3.67,3.67,0,0,0-.23.73c-1.11,0-3.23.07-4.33,0a3.43,3.43,0,0,1-2.82-1.19c-.51.44-1,.87-1.61,1.29l-.36-.72a17.25,17.25,0,0,0,1.56-1.13v-2.57H48.91v-.7h2.16Zm-.33-4.78a7.64,7.64,0,0,0-1.66-1.66l.52-.46a7.49,7.49,0,0,1,1.69,1.61Zm2.06,5.29h-.7v-5.14h2.85c-.59-.29-1.3-.61-1.9-.83l.47-.42c.43.15.92.35,1.39.55a7.69,7.69,0,0,0,1.37-.79H52.11v-.59H57l.14,0,.46.35a8.83,8.83,0,0,1-2,1.37c.29.14.55.28.77.4h1.26v4.4c0,.36-.08.54-.34.65a4.41,4.41,0,0,1-1.35.11,2.34,2.34,0,0,0-.21-.61c.47,0,.9,0,1,0s.17,0,.17-.17v-.91H55.14v1.62h-.67v-1.62H52.79Zm0-4.57v.88h1.68V145Zm1.68,2.34v-.91H52.79v.91ZM56.88,145H55.14v.88h1.74Zm0,2.34v-.91H55.14v.91Z"/><path class="cls-3" d="M61.84,142.55c0,.32-.08.67-.1,1,0,1.12-.12,3.46-.12,4.94,0,1.09.7,1.47,1.62,1.47a4.13,4.13,0,0,0,3.56-2l.55.69a4.93,4.93,0,0,1-4.13,2.18c-1.42,0-2.4-.6-2.4-2.21s.1-4,.1-5a5,5,0,0,0-.09-1Z"/><path class="cls-3" d="M69.77,143.62c.65-.06,2.52-.25,4.34-.4,1.08-.09,2-.14,2.67-.17v.8a8.28,8.28,0,0,0-1.94.16,3.45,3.45,0,0,0-2.26,3.12c0,1.94,1.8,2.55,3.41,2.61l-.29.83c-1.83-.07-3.92-1-3.92-3.26A4,4,0,0,1,73.62,144c-.87.1-3.57.36-4.64.58l-.09-.88C69.27,143.66,69.58,143.64,69.77,143.62Z"/><path class="cls-3" d="M82.13,146.5a7.33,7.33,0,0,1,2.17-.36c1.44,0,2.48.79,2.48,2s-.75,2-2.11,2.29a6.35,6.35,0,0,1-1.22.13l-.28-.79a5.68,5.68,0,0,0,1.16-.07c.87-.16,1.66-.63,1.66-1.55s-.76-1.29-1.7-1.29a6.37,6.37,0,0,0-2.15.39c0,.84,0,1.71,0,2.14,0,.92-.35,1.21-.88,1.21-.78,0-2.07-.75-2.07-1.64s1-1.67,2.17-2.16v-.56c0-.4,0-.86,0-1.3l-.73,0a12.36,12.36,0,0,1-1.26,0l0-.76a8.94,8.94,0,0,0,1.26.08l.76,0c0-.52,0-.95,0-1.13a3.88,3.88,0,0,0-.06-.7h.87c0,.18,0,.45,0,.68s0,.63,0,1.07a13,13,0,0,0,2-.4v.79a20.16,20.16,0,0,1-2.06.34c0,.47,0,.94,0,1.34Zm-.69,2.76c0-.36,0-1,0-1.75-.8.38-1.39.94-1.39,1.39s.68.84,1.07.84C81.32,149.74,81.44,149.57,81.44,149.26Zm3.9-5.82a16.73,16.73,0,0,1,2.26,1.45l-.4.64A12.77,12.77,0,0,0,85,144Z"/><path class="cls-3" d="M96.24,144.92a5.76,5.76,0,0,0,2.1,3.38,2.94,2.94,0,0,0-.53.63,5.24,5.24,0,0,1-1.67-2.21v2.57H91.36V145.7h4.4c-.08-.25-.16-.51-.22-.78H91.18A6.88,6.88,0,0,1,89.61,149a2.5,2.5,0,0,0-.55-.53,6.79,6.79,0,0,0,1.45-4.69v-1.39h6.7v2.53Zm-6.69,5.14h8.34v.68H89.56Zm1.67-6.27c0,.15,0,.31,0,.48h5.24V143H91.23Zm4.21,2.48H92v1h3.41Zm0,1.48H92v1h3.41Z"/><path class="cls-3" d="M101.66,143.74h.67v7.32h-.67v-2.58l-1.54.9-.33-.65c.48-.22,1.17-.6,1.87-1Zm-.78,3.2a9.18,9.18,0,0,0-.75-1.94l.58-.25a9.41,9.41,0,0,1,.78,1.91Zm0-2.67h-.67v-1.62h3.85v-.71h.73v.71h3.92v1.62H108v-1H100.9Zm7.08,3.9a4.26,4.26,0,0,1-1.54,1.67,9.28,9.28,0,0,0,2.55.63,2.32,2.32,0,0,0-.4.58,8.43,8.43,0,0,1-2.79-.85,9.86,9.86,0,0,1-2.79.86,2.86,2.86,0,0,0-.31-.57,10.11,10.11,0,0,0,2.5-.65,4.22,4.22,0,0,1-1.17-1.17l.4-.14h-.81V148h3.83l.12,0Zm0,.19v-.89h-4.56v.89h-.64v-1.43h5.86v1.43Zm-.72-2.44v-.56h-3.74v-.46h3.74v-.53h-4v-.5H108v2.56h-4.74v-.51Zm-2.66,2.61a3.91,3.91,0,0,0,1.18,1,3.87,3.87,0,0,0,1.21-1Z"/><path class="cls-3" d="M115.23,149c0-.38,0-1,0-1.54-.92.5-1.56,1-1.56,1.66s.77.89,1.79.89a17.36,17.36,0,0,0,2.7-.24l0,.81a25.27,25.27,0,0,1-2.71.16c-1.42,0-2.56-.3-2.56-1.51s1.18-1.91,2.33-2.51a.84.84,0,0,0-.89-.61,2.63,2.63,0,0,0-1.71.73c-.28.27-.56.64-.9,1l-.68-.51a10.45,10.45,0,0,0,2.28-3h-.41c-.42,0-1.09,0-1.63-.06v-.75c.53.06,1.22.1,1.67.1h.65a5.4,5.4,0,0,0,.25-1.23l.82.07c-.07.28-.16.69-.3,1.14a26.46,26.46,0,0,0,3-.3V144a30.48,30.48,0,0,1-3.28.28,7.12,7.12,0,0,1-.89,1.52,2.8,2.8,0,0,1,1.37-.37,1.24,1.24,0,0,1,1.31.9c.68-.32,1.28-.56,1.8-.8.3-.13.54-.25.82-.39l.32.75c-.25.07-.61.21-.87.31-.56.22-1.27.51-2,.86,0,.57,0,1.41,0,1.89Z"/><path class="cls-3" d="M123.77,147l-1,.33v2.85c0,.42-.09.63-.34.76a3.37,3.37,0,0,1-1.32.13,3,3,0,0,0-.22-.71c.45,0,.86,0,1,0s.17,0,.17-.19v-2.63l-1.34.41-.17-.72c.41-.1.94-.25,1.51-.42v-2.18h-1.34v-.68H122v-2h.72v2h1v.68h-1v2l1-.28Zm6,3.56h-4.52v.51h-.71v-5.77a7.3,7.3,0,0,1-.74,1,5.45,5.45,0,0,0-.5-.62,8.84,8.84,0,0,0,2-3.69l.71.18a14.07,14.07,0,0,1-.64,1.71h1.53a13.89,13.89,0,0,0,.68-1.85l.78.18c-.22.55-.49,1.16-.73,1.67h2v.67h-2v1.34h1.8v.64h-1.8v1.36h1.8v.65h-1.8v1.39h2.21Zm-2.89-6.06h-1.63v1.34h1.63Zm0,2h-1.63v1.36h1.63Zm-1.63,3.4h1.63v-1.39h-1.63Z"/><path class="cls-3" d="M136.67,148.8c.63,1,1.91,1.48,3.86,1.6a2.33,2.33,0,0,0-.44.68c-2.17-.22-3.49-.85-4.18-2.28-.54,1.2-1.66,1.92-4.23,2.27a2.43,2.43,0,0,0-.35-.62c2.21-.27,3.23-.79,3.74-1.65h-3.57v-.63h3.84a6.38,6.38,0,0,0,.2-1h.77a8.35,8.35,0,0,1-.18,1h4.22v.63Zm-3.36-2.89c-.57.31-1.15.62-1.63.86l-.32-.63c.5-.21,1.22-.54,1.95-.91V142h.7v5.74h-.7Zm-.95-1.43a6.87,6.87,0,0,0-.81-1.67l.56-.23a6.93,6.93,0,0,1,.85,1.63Zm7.45-2a33.48,33.48,0,0,1-5.18.55,2.33,2.33,0,0,0-.17-.53,34.28,34.28,0,0,0,4.86-.52Zm-.73,4.4c0,.36-.08.52-.36.63a5.15,5.15,0,0,1-1.35.09,3.28,3.28,0,0,0-.23-.59c.49,0,.93,0,1.06,0s.17,0,.17-.16v-1.36H134.5v-.58h3.88v-.24l-.45-.24a10,10,0,0,0,1.2-1.58l.63.3c-.32.43-.69.88-1,1.26h.35v.5h1.35v.58h-1.35Zm-3.83-3.68a5,5,0,0,1,.72,1.31l-.57.22a5.48,5.48,0,0,0-.69-1.33Zm.46,2.33a5.32,5.32,0,0,1,1.19,1.18l-.55.36a5,5,0,0,0-1.15-1.24Zm1.23-2.51a5.06,5.06,0,0,1,.6,1.35l-.6.19a5,5,0,0,0-.57-1.38Z"/><path class="cls-3" d="M24.56,163.39A1.52,1.52,0,1,1,23,161.87,1.53,1.53,0,0,1,24.56,163.39Zm-.52,0a1,1,0,0,0-1-1,1,1,0,0,0,0,2A1,1,0,0,0,24,163.39Z"/><path class="cls-3" d="M31,163.38H29v.87h-.67v-7.73H31Zm-2-6.21v1.4h1.32v-1.4Zm0,3.44h1.32V159.2H29Zm1.32,2.11v-1.46H29v1.46Zm5.82-2v1.46h.79v.63H34.36v1.38h2.73v.66H31v-.66h2.7V162.8H31.26v-.63H32v-1.46h-.94v-.65H32v-1.35h-.75v-.62h2.41V157c-.73.06-1.47.11-2.16.13a2,2,0,0,0-.19-.57,33.38,33.38,0,0,0,4.83-.55l.51.55a19.2,19.2,0,0,1-2.31.37v1.13h2.51v.62h-.78v1.35h1v.65Zm-3.45-.65h1v-1.35h-1Zm1,2.11v-1.46h-1v1.46Zm.68-3.46v1.35h1.09v-1.35Zm1.09,2H34.36v1.46h1.09Z"/><path class="cls-3" d="M40.51,163.43v.82h-.69v-7.78h2.79v7Zm0-6.3v1.41h1.4v-1.41Zm0,3.5h1.4v-1.46h-1.4Zm1.4,2.12v-1.48h-1.4v1.48Zm4.75-1.42c.25,1.81.76,3,1.28,3,.2,0,.27-.47.3-1.44a2.59,2.59,0,0,0,.6.34c-.11,1.4-.36,1.79-1,1.79-1,0-1.61-1.53-1.92-3.69H44.23v2.62l2-.36,0,.65-3.54.71-.21-.71,1-.16V156.4h4.78v2.8h-1.8c0,.5,0,1,.09,1.44h2v.69Zm-2.43-4.26v1.47h3.35v-1.47Zm1.64,3.57c0-.46-.08-.94-.1-1.44H44.23v1.44Z"/><path class="cls-3" d="M55.62,163c0-.38,0-1,0-1.54-.92.5-1.56,1-1.56,1.66s.77.89,1.79.89a17.36,17.36,0,0,0,2.7-.24l0,.81a25.27,25.27,0,0,1-2.71.16c-1.42,0-2.56-.3-2.56-1.51s1.18-1.91,2.33-2.51a.84.84,0,0,0-.89-.61,2.63,2.63,0,0,0-1.71.73c-.28.27-.56.64-.9,1l-.68-.51a10.43,10.43,0,0,0,2.28-3h-.41c-.42,0-1.09,0-1.63-.06v-.75c.53.06,1.22.1,1.67.1H54a5.4,5.4,0,0,0,.25-1.23l.82.07c-.07.28-.16.69-.3,1.14a26.46,26.46,0,0,0,3-.3V158a30.48,30.48,0,0,1-3.28.28,7.08,7.08,0,0,1-.89,1.52,2.8,2.8,0,0,1,1.37-.37,1.24,1.24,0,0,1,1.31.9c.68-.32,1.28-.56,1.8-.8.3-.13.54-.25.82-.39l.32.75c-.25.07-.61.21-.87.31-.56.22-1.27.51-2,.86,0,.57,0,1.41,0,1.89Z"/><path class="cls-3" d="M69,158.36c-.22.14-.47.27-.76.42a33.35,33.35,0,0,0-3,1.63c-.92.6-1.47,1.25-1.47,2s.78,1.33,2.34,1.33a14.62,14.62,0,0,0,3.17-.34v.9a19.45,19.45,0,0,1-3.13.24c-1.86,0-3.21-.56-3.21-2a3.24,3.24,0,0,1,1.71-2.57,32.83,32.83,0,0,1-1.44-3l.79-.32a22.65,22.65,0,0,0,1.33,2.93c.93-.56,2-1.08,2.54-1.39a3.92,3.92,0,0,0,.71-.47Z"/><path class="cls-3" d="M73.13,160.06a13.5,13.5,0,0,1,3.5-.81A2.19,2.19,0,0,1,79,161.44c0,1.91-1.84,2.89-4.51,3l-.32-.77c2.14-.07,4-.67,4-2.29A1.5,1.5,0,0,0,76.57,160a14.54,14.54,0,0,0-4,1.15l-.33-.83A6.46,6.46,0,0,0,73.13,160.06Z"/><path class="cls-3" d="M82.58,157.62c.65-.06,2.52-.25,4.34-.4,1.08-.09,2-.14,2.67-.17v.8a8.28,8.28,0,0,0-1.94.16,3.45,3.45,0,0,0-2.26,3.12c0,1.94,1.8,2.55,3.41,2.61l-.29.83c-1.83-.07-3.92-1-3.92-3.26A4,4,0,0,1,86.42,158c-.87.1-3.57.36-4.64.58l-.09-.88C82.08,157.66,82.39,157.64,82.58,157.62Z"/><path class="cls-3" d="M99.45,157.62a2.77,2.77,0,0,0-.25.44A12.64,12.64,0,0,1,97.52,161a28.73,28.73,0,0,1,2.92,3l-.7.61a23,23,0,0,0-2.75-3,12.67,12.67,0,0,1-3.9,2.92l-.64-.67a11.42,11.42,0,0,0,4.12-3,8.91,8.91,0,0,0,1.66-2.78h-3.9c-.35,0-.9,0-1,0v-.91c.14,0,.71.07,1,.07h3.86a2.67,2.67,0,0,0,.75-.09Z"/><path class="cls-3" d="M104.8,161.31l-.76.28a17.74,17.74,0,0,0-.89-2.25l.74-.29C104.09,159.48,104.61,160.79,104.8,161.31Zm5-2.2c-.07.21-.11.37-.15.5a7.84,7.84,0,0,1-1.42,3.07,7.7,7.7,0,0,1-3.26,2.38l-.66-.68a6.65,6.65,0,0,0,3.25-2.12,6.86,6.86,0,0,0,1.38-3.42Zm-2.83,1.6-.74.26a18.65,18.65,0,0,0-.78-2.17l.73-.25C106.38,158.95,106.87,160.27,107,160.71Z"/><path class="cls-3" d="M120.53,161.15c-.21,0-.53.07-.9.13l-2.46.39c.2,1,.36,1.78.41,2s.15.63.24.91l-.91.17c-.05-.34-.08-.64-.15-.94s-.2-1-.39-2l-2.69.46a7.76,7.76,0,0,0-.88.18l-.18-.87c.23,0,.62,0,.88-.09l2.73-.42-.4-2-2.2.36a7.5,7.5,0,0,0-.81.17l-.17-.9c.25,0,.51,0,.83-.07s1.26-.17,2.2-.32c-.11-.54-.18-.93-.21-1a4.63,4.63,0,0,0-.19-.68l.9-.16c0,.19.06.47.09.69s.09.52.21,1.08l2.31-.39a6.3,6.3,0,0,0,.71-.17l.17.84-.72.1-2.33.37.4,2,2.47-.42c.38-.08.66-.14.87-.2Z"/><path class="cls-3" d="M125.21,156.8c0,.19,0,.48,0,.72v3.34c0,.25,0,.58,0,.76h-.92c0-.15,0-.47,0-.77v-3.33c0-.18,0-.53,0-.72Zm4.63-.07c0,.24,0,.53,0,.86v1.62c0,2.4-.32,3.19-1,4a5.34,5.34,0,0,1-2.38,1.46l-.65-.69a4.61,4.61,0,0,0,2.4-1.33c.72-.83.84-1.64.84-3.53v-1.58c0-.33,0-.62,0-.86Z"/><path class="cls-3" d="M135.17,156.55c0,.32-.08.67-.1,1,0,1.12-.12,3.46-.12,4.94,0,1.09.7,1.47,1.62,1.47a4.13,4.13,0,0,0,3.56-2l.55.69a4.93,4.93,0,0,1-4.13,2.18c-1.42,0-2.4-.6-2.4-2.21s.1-4,.1-5a5,5,0,0,0-.09-1Z"/><path class="cls-3" d="M38.49,172.42a19.19,19.19,0,0,1-2,.34c-.09.43-.2.89-.31,1.31a29.41,29.41,0,0,1-1.55,4.54l-.88-.29a22.06,22.06,0,0,0,1.66-4.43c.09-.33.17-.69.25-1l-.9,0c-.44,0-.8,0-1.15,0l0-.78a8.73,8.73,0,0,0,1.19.07c.33,0,.68,0,1.06,0,.07-.36.12-.67.15-.87a4.75,4.75,0,0,0,0-.82l1,.08c-.07.22-.14.59-.18.79l-.15.73a14.32,14.32,0,0,0,1.89-.36Zm-.39,3.47a3.54,3.54,0,0,0-.14.89c0,.47.22.92,1.63.92a11,11,0,0,0,1.93-.19l0,.81a14.63,14.63,0,0,1-1.91.13c-1.56,0-2.38-.48-2.38-1.46a5.51,5.51,0,0,1,.15-1.17Zm-.25-2.41c.52,0,1.17-.08,1.81-.08a15.64,15.64,0,0,1,1.71.08l0,.76a14.12,14.12,0,0,0-1.67-.12,16,16,0,0,0-1.83.11Z"/><path class="cls-3" d="M47.64,177.62c-1.41.34-2.91.67-4,.9l-.19-.69,2.89-.58-.5-.15a15.67,15.67,0,0,0,.45-2l.71.18c-.19.67-.39,1.45-.58,2l1.16-.24Zm-.13-6.45H43.6v-.68h3.91Zm-.23,3.62H43.87v-2.67h3.41Zm-2.79,2.38a6.35,6.35,0,0,0-.38-1.85l.6-.15a6.1,6.1,0,0,1,.42,1.84Zm2.11-4.44H44.52v1.45H46.6Zm3.07,5a6.82,6.82,0,0,1-2.19,1.31,4.62,4.62,0,0,0-.49-.49,5.9,5.9,0,0,0,2-1.19Zm-.2-5.76c.07-.3.15-.64.2-.95H47.78v-.64h4.79v.64H50.49c-.1.33-.19.66-.29.95h2v5.18H48.08V172Zm2.08.58H48.77v1h2.78Zm0,1.5H48.77v1h2.78Zm0,1.53H48.77v1h2.78Zm-.48,1.83a11.75,11.75,0,0,1,1.71,1.23l-.59.4a12,12,0,0,0-1.68-1.27Z"/><path class="cls-3" d="M55.15,171.68l4.34-.4c1.08-.09,2-.14,2.67-.17v.8a8.17,8.17,0,0,0-1.94.16A3.46,3.46,0,0,0,58,175.2c0,1.93,1.8,2.54,3.41,2.6l-.29.84c-1.83-.08-3.92-1.06-3.92-3.27A4,4,0,0,1,59,172c-.87.1-3.57.36-4.64.58l-.09-.88C54.65,171.72,55,171.7,55.15,171.68Zm6.43,2.83-.51.24a9.26,9.26,0,0,0-.82-1.41l.51-.22A12,12,0,0,1,61.58,174.51Zm1.14-.43-.52.24a8.83,8.83,0,0,0-.85-1.39l.5-.23A14.83,14.83,0,0,1,62.72,174.08Z"/><path class="cls-3" d="M67.48,170.19a15.84,15.84,0,0,1-1.08,2.14v6.73h-.73v-5.64a9.67,9.67,0,0,1-1.17,1.34,3.3,3.3,0,0,0-.45-.72A11.31,11.31,0,0,0,66.77,170Zm3,3.63v4.13h2.69v.72h-6v-.72h2.6v-4.13H66.94v-.72h2.84v-3h.75v3h2.86v.72Z"/><path class="cls-3" d="M84,176.24H83V178h-.74v-.45h-2.4v.69c0,.46-.14.63-.44.74a6,6,0,0,1-1.66.12,2.47,2.47,0,0,0-.26-.63c.6,0,1.2,0,1.37,0s.25-.07.25-.24v-.69H75.9V177h3.23v-.75H75v-.59h4.09v-.7H76v-.55h3.14v-.7H76.27v-1.76h2.86v-.58h-3.9v-.61h3.9V170h.74v.8h4v.61h-4v.58h3v1.76h-3v.7H83v1.25h1Zm-4.91-3.06v-.72H77v.72Zm.74-.72v.72h2.24v-.72Zm0,3.19h2.4v-.7h-2.4Zm2.4.59h-2.4V177h2.4Z"/><path class="cls-3" d="M87.92,170.55c0,.32-.08.67-.1,1,0,1.12-.12,3.46-.12,4.94,0,1.09.7,1.47,1.62,1.47a4.13,4.13,0,0,0,3.56-2l.55.69a4.93,4.93,0,0,1-4.13,2.18c-1.42,0-2.4-.6-2.4-2.21s.1-4,.1-5a5,5,0,0,0-.09-1Z"/><path class="cls-3" d="M95.84,171.62c.65-.06,2.52-.25,4.34-.4,1.08-.09,2-.14,2.67-.17v.8a8.28,8.28,0,0,0-1.94.16,3.45,3.45,0,0,0-2.26,3.12c0,1.94,1.8,2.55,3.41,2.61l-.29.83c-1.83-.07-3.92-1-3.92-3.26A4,4,0,0,1,99.69,172c-.87.1-3.57.36-4.64.58l-.09-.88C95.34,171.66,95.65,171.64,95.84,171.62Z"/><path class="cls-3" d="M112.32,178.19a7.35,7.35,0,0,0-2.39-1.49c0,.25,0,.47,0,.62,0,.68-.46,1.39-1.75,1.39s-2.21-.51-2.21-1.47.87-1.51,2.3-1.51a5.57,5.57,0,0,1,.83.06c0-.44,0-.91,0-1.32h-.55c-.68,0-1.78-.06-2.49-.14v-.76a17.58,17.58,0,0,0,2.49.19H109v-1.42h-.49c-.69,0-1.74-.08-2.33-.15v-.74a15.72,15.72,0,0,0,2.32.19h.51V171a5.4,5.4,0,0,0,0-.59h.85a5.17,5.17,0,0,0,0,.66c0,.12,0,.31,0,.55a22.07,22.07,0,0,0,2.54-.24v.73c-.78.08-1.63.16-2.56.21v1.42a26.73,26.73,0,0,0,2.75-.26v.75c-.93.12-1.81.19-2.75.23,0,.51,0,1,.07,1.5a8.11,8.11,0,0,1,2.88,1.54Zm-3.17-1.71a5.07,5.07,0,0,0-1-.09c-.94,0-1.45.36-1.45.81s.39.8,1.37.8c.57,0,1-.17,1-.85C109.16,177,109.15,176.75,109.15,176.48Z"/><path class="cls-3" d="M120.06,172.39c0,.56,0,1.17,0,1.62a2.42,2.42,0,0,1,.32,1.27c0,1.34-.65,2.83-2.95,3.52l-.69-.67a3.54,3.54,0,0,0,2.63-1.72,1.42,1.42,0,0,1-.85.25A1.59,1.59,0,0,1,116.9,175a1.74,1.74,0,0,1,1.75-1.73,2,2,0,0,1,.66.11c0-.29,0-.64,0-1-1.5,0-3.18.08-4.42.17l0-.78c1.1,0,3-.08,4.43-.1,0-.28,0-.51,0-.65s0-.5-.06-.62h.91l0,.62c0,.15,0,.38,0,.64h3v.75c-.56,0-1.46,0-2.91,0Zm-.53,2.17a.88.88,0,0,0-.88-.61,1,1,0,0,0-1,1,1,1,0,0,0,1,1C119.24,176,119.62,175.5,119.53,174.56Z"/><path class="cls-3" d="M125.9,177.57a.8.8,0,1,1,.8.79A.77.77,0,0,1,125.9,177.57Zm.23-5.56,0-1.18h1.2l0,1.18-.25,3.88h-.66Z"/><path class="cls-3" d="M42.38,27.83l-1,1.57a36.65,36.65,0,0,0-3.19-2l1-1.55C40.13,26.36,41.67,27.33,42.38,27.83ZM43.52,31A14.27,14.27,0,0,0,49,25.79L50,27.69a16.92,16.92,0,0,1-5.58,5,17.05,17.05,0,0,1-4.68,1.74l-1.05-1.85A15.54,15.54,0,0,0,43.52,31Zm1-6.37-1.05,1.55c-.78-.55-2.24-1.5-3.17-2l1-1.54C42.27,23.18,43.81,24.16,44.54,24.67Z"/><path class="cls-3" d="M63.05,31.56a8.14,8.14,0,0,0,1.3-.11v2a10.94,10.94,0,0,0-1.3-.07H53.82a11.78,11.78,0,0,0-1.37.07v-2a7.56,7.56,0,0,0,1.37.11h3.56V25.84h-2.7c-.38,0-1,0-1.33.06V24a10.35,10.35,0,0,0,1.33.08h7.62c.42,0,.91,0,1.32-.08V25.9c-.42,0-.91-.06-1.32-.06h-3v5.71Z"/><path class="cls-3" d="M77.61,24.26a6.58,6.58,0,0,0-.49.87A20.61,20.61,0,0,1,74.92,29a39.38,39.38,0,0,1,3.91,4l-1.6,1.39a31.91,31.91,0,0,0-3.53-4,18.46,18.46,0,0,1-5.27,3.94L67,32.83a15.87,15.87,0,0,0,5.74-4,10.84,10.84,0,0,0,2.09-3.43H70.08c-.59,0-1.36.08-1.65.1v-2a15.74,15.74,0,0,0,1.65.1H75a5.08,5.08,0,0,0,1.46-.18Z"/><path class="cls-3" d="M93.32,24.82a6.51,6.51,0,0,0-.46,1,16.11,16.11,0,0,1-1.93,3.84c.52.32,1,.64,1.34.9L91,32.19a16,16,0,0,0-1.3-1,13.38,13.38,0,0,1-5.17,3.49L82.9,33.27a11.85,11.85,0,0,0,5.22-3.14c-1-.62-1.9-1.19-2.62-1.6l1.19-1.33c.74.38,1.7.91,2.63,1.47a10.19,10.19,0,0,0,1.46-3h-4a16.48,16.48,0,0,1-3.7,3.61l-1.51-1.16A12.82,12.82,0,0,0,86,23.49,6.2,6.2,0,0,0,86.65,22l2,.63c-.34.49-.7,1.13-.87,1.43h2.86a4.46,4.46,0,0,0,1.22-.15Z"/><path class="cls-3" d="M100.61,26.3h3.07v1.5h-3.07v1h2.73V32.4c0,.64-.1,1-.5,1.27a3.06,3.06,0,0,1-1.62.25,5.23,5.23,0,0,0-.41-1.42,6.35,6.35,0,0,0,.87,0c.13,0,.17,0,.17-.17v-2h-1.23V35H99V30.31H97.88v3.54H96.39v-5H99v-1H95.85V26.3H96.9a13.12,13.12,0,0,0-1.26-.53,10.93,10.93,0,0,0,1.29-3.63l1.53.32a12.74,12.74,0,0,1-.32,1.27H99V22h1.58v1.76h2.51v1.51h-2.51ZM99,26.3V25.25H97.61c-.15.39-.32.74-.48,1.05Zm6.84,4.62h-1.55V23h1.55Zm2.55-8.8V33c0,.9-.18,1.34-.69,1.63a5.74,5.74,0,0,1-2.41.32,7.36,7.36,0,0,0-.49-1.68c.71,0,1.44,0,1.68,0s.31-.07.31-.31V22.13Z"/><path class="cls-3" d="M113.88,27.08c0,2.27-.21,5.7-1.48,7.86A6,6,0,0,0,111,34c1.16-2,1.25-4.9,1.25-6.95V23.15h5V21.91H119v1.25h5v1.48h-10.1Zm9.33,3.25a6.87,6.87,0,0,1-2.4,2.66,18.55,18.55,0,0,0,3.45.6,6.62,6.62,0,0,0-1,1.43A14.81,14.81,0,0,1,119,33.91,19,19,0,0,1,114.41,35a5.62,5.62,0,0,0-.67-1.4,19,19,0,0,0,3.63-.63,7.1,7.1,0,0,1-1.61-1.55l.66-.24h-2.09v-1.3h7.55l.29-.07Zm-7.09-1V27.13h-1.89V25.81h1.89v-.92h1.57v.92h2.55v-.92h1.65v.92h2v1.32h-2v2.19Zm1.32,1.86a5.6,5.6,0,0,0,1.64,1.15,6.39,6.39,0,0,0,1.68-1.15Zm.25-4v.92h2.55v-.92Z"/></g></g></svg>