<svg xmlns="http://www.w3.org/2000/svg" viewBox="0 0 163.5 207.5"><defs><style>.cls-1,.cls-3{fill:none;}.cls-1{stroke:#4c4b4c;stroke-miterlimit:10;stroke-dasharray:4 4;}.cls-2{fill:#221714;}.cls-3,.cls-4{stroke:#221714;stroke-linecap:round;stroke-linejoin:round;stroke-width:0.71px;}.cls-4{fill:#fff;}</style></defs><title>アセット 13</title><g id="レイヤー_2" data-name="レイヤー 2"><g id="レイヤー_14" data-name="レイヤー 14"><rect class="cls-1" x="0.5" y="0.5" width="162.5" height="206.5"/><path class="cls-2" d="M30.66,149.91v.73h-8.9v-.73h4v-4h-3.4v-.73h3.4V142h.78v3.17H30v.73H26.57v4Z"/><path class="cls-2" d="M37.48,150.08a8.65,8.65,0,0,0,1.74.15h2.43a2.59,2.59,0,0,0-.27.72h-2.2c-2.12,0-3.65-.38-4.6-2.11A5,5,0,0,1,33,151.08a3.06,3.06,0,0,0-.52-.5,5.78,5.78,0,0,0,1.8-4l.79.09a11.32,11.32,0,0,1-.25,1.25,3.15,3.15,0,0,0,1.86,2v-4h-3v-3.39h6.8v3.39H37.48v1.54h3.35V148H37.48Zm-3-5h5.3v-2h-5.3Z"/><path class="cls-2" d="M44.76,146.24a9.92,9.92,0,0,1-1,4.85,2.19,2.19,0,0,0-.56-.43,9,9,0,0,0,.85-4.43v-2.85h1.26a6.32,6.32,0,0,0-.73-1.07l.61-.3a5.49,5.49,0,0,1,.84,1.15l-.41.22h2.06a4.47,4.47,0,0,0-.58-1.22l.62-.24a4.46,4.46,0,0,1,.64,1.21l-.6.25H50l-.24-.09a8.26,8.26,0,0,0,.95-1.38l.75.24c-.32.43-.66.88-1,1.23h1.78V144H44.76Zm3.53.2v4.65h-.63v-.9l-2.78.31-.15-.6.78-.06v-3.4H45v-.56h1.53v-.77H45.28v-.55h3.28v.55H47.21v.77H48.7v.56Zm-.63,0H46.13v.71h1.53Zm-1.53,2h1.53v-.74H46.13Zm0,1.38,1.53-.15v-.71H46.13ZM52,146a8.72,8.72,0,0,1-1.07,3.07,4.19,4.19,0,0,0,1.69,1.45,2.7,2.7,0,0,0-.45.56,4.53,4.53,0,0,1-1.63-1.45,5.65,5.65,0,0,1-1.69,1.44,2.71,2.71,0,0,0-.45-.54,5,5,0,0,0,1.77-1.49,8.86,8.86,0,0,1-.75-1.93,5.59,5.59,0,0,1-.5.84,3.33,3.33,0,0,0-.51-.47,7.59,7.59,0,0,0,1.19-3.21l.66.12c-.06.34-.14.67-.22,1h2.41V146Zm-2.22.24a8.52,8.52,0,0,0,.76,2.2,7.73,7.73,0,0,0,.77-2.44H49.83Z"/><path class="cls-2" d="M56.18,144.28A6.42,6.42,0,0,1,54.61,146a3.19,3.19,0,0,0-.46-.51,5.76,5.76,0,0,0,1.8-1.92H54.51V143h1.67v-1h.69v1h1.39v.62H56.87v.09c.37.23,1.3.9,1.55,1.1l-.4.49c-.23-.21-.74-.63-1.15-1v1.79h-.69Zm.76,4.81a7.45,7.45,0,0,1-2,1.86,7.3,7.3,0,0,0-.59-.47,5.84,5.84,0,0,0,1.92-1.61Zm-2.51-1.24h8.65v.64H59.15v1.8c0,.41-.09.59-.42.69a5.94,5.94,0,0,1-1.61.11,3,3,0,0,0-.26-.66c.63,0,1.18,0,1.34,0s.21,0,.21-.18v-1.78h-4Zm1.13-1.42h6.5V147h-6.5Zm5.84-2.86a6.41,6.41,0,0,0,1.89,1.86,2.23,2.23,0,0,0-.47.51,7.45,7.45,0,0,1-1.63-1.71v1.85h-.7v-1.9a6.35,6.35,0,0,1-1.75,1.76,2.67,2.67,0,0,0-.45-.5,6,6,0,0,0,1.94-1.87H58.72V143h1.77v-1h.7v1h1.75v.62Zm-.49,5.28A15,15,0,0,1,63,150.54l-.6.39a13.85,13.85,0,0,0-2-1.72Z"/><path class="cls-2" d="M66.29,149.57a.8.8,0,1,1,.8.79A.77.77,0,0,1,66.29,149.57Zm.23-5.56,0-1.18h1.2l0,1.18-.25,3.88h-.66Z"/><path class="cls-2" d="M74.23,144.21H70.86v-.61h3.37ZM74,150.49H71.9V151h-.63v-3.35H74Zm-2.69-5.54H74v.59H71.28Zm0,1.32H74v.6H71.28Zm2.65-3.38H71.34v-.6h2.59Zm-2,5.33v1.67h1.44v-1.67Zm4.71-1.2c-.09,2.12-.42,3.37-2.18,4.06a2.57,2.57,0,0,0-.43-.58c1.6-.57,1.83-1.61,1.91-3.48Zm-1.5.49h-.67v-1.76h5.44v1.76h-.69v-1.15H75.11Zm1.63-4H74.48v-.63h2.26v-.9h.74v.9h2.36v.63H77.48v.93h2.07V145H74.8v-.63h1.94Zm2.47,6.82c.22,0,.26-.16.29-1.31a2,2,0,0,0,.61.29c-.05,1.34-.23,1.69-.82,1.69h-.83c-.68,0-.84-.22-.84-.95v-3h.69v3c0,.25,0,.28.24.28Z"/><path class="cls-2" d="M90.7,147v.55H81.87V147h4v-.59H82.55v-.51h3.34v-.55H82.83v-.5h3.06v-.59h-4v-.56h4v-.56H82.94v-.5h2.95v-.7h.73v.7h2.86v1.06h1.22v.56H89.47v1.09H86.61v.55H90v.51H86.61V147Zm-7.56,1h6.38v3.07h-.74v-.31H83.86v.33h-.72Zm.72.51v.61h4.92v-.61Zm4.92,1.73v-.64H83.86v.64Zm-2.17-6.56h2.13v-.56H86.61Zm0,1.15h2.13v-.59H86.61Z"/><path class="cls-2" d="M97.16,149c0-.38,0-1,0-1.54-.92.5-1.56,1-1.56,1.66s.77.89,1.79.89a17.36,17.36,0,0,0,2.7-.24l0,.81a25.27,25.27,0,0,1-2.71.16c-1.42,0-2.56-.3-2.56-1.51s1.18-1.91,2.33-2.51a.84.84,0,0,0-.89-.61,2.63,2.63,0,0,0-1.71.73c-.28.27-.56.64-.9,1l-.68-.51a10.45,10.45,0,0,0,2.28-3h-.41c-.42,0-1.09,0-1.63-.06v-.75c.53.06,1.22.1,1.67.1h.65a5.4,5.4,0,0,0,.25-1.23l.82.07c-.07.28-.16.69-.3,1.14a26.46,26.46,0,0,0,3-.3V144a30.48,30.48,0,0,1-3.28.28,7.12,7.12,0,0,1-.89,1.52,2.8,2.8,0,0,1,1.37-.37,1.24,1.24,0,0,1,1.31.9c.68-.32,1.28-.56,1.8-.8.3-.13.54-.25.82-.39l.32.75c-.25.07-.61.21-.87.31-.56.22-1.27.51-2,.86,0,.57,0,1.41,0,1.89Z"/><path class="cls-2" d="M104.31,143.13c.08.16.25.48.35.65.17.33.37.73.57,1.14a10,10,0,0,1,3.56-1.06c1.37,0,2.21.79,2.21,1.87s-.73,2-2.28,2a4.44,4.44,0,0,1-1.48-.28l0-.8a3.27,3.27,0,0,0,1.4.33c1.09,0,1.53-.59,1.53-1.29s-.46-1.13-1.44-1.13a8.94,8.94,0,0,0-3.22,1c.13.27.26.55.38.82.54,1.22,1.16,3.07,1.5,4.16l-.86.23a29.1,29.1,0,0,0-1.35-4.06c-.12-.28-.25-.56-.37-.82-.76.37-1.45.73-1.9.93l-.39-.82c.29-.08.64-.2.82-.27.33-.13.73-.31,1.16-.5a10.51,10.51,0,0,0-.56-1.09,6.23,6.23,0,0,0-.48-.7Zm3,.71a11.73,11.73,0,0,0-1.29-1.15l.58-.42a12,12,0,0,1,1.29,1.12Z"/><path class="cls-2" d="M120.39,145.47a5.35,5.35,0,0,0,.78-.05v.83l-.78,0h-2.72a6,6,0,0,1-.59,2.73,4.8,4.8,0,0,1-2,1.82l-.74-.54a4.13,4.13,0,0,0,1.89-1.53,4.83,4.83,0,0,0,.58-2.48h-3c-.31,0-.6,0-.87,0v-.83a7.76,7.76,0,0,0,.87.05Zm-5.31-1.76c-.33,0-.66,0-.91,0v-.83a8.51,8.51,0,0,0,.9.06h4a7.36,7.36,0,0,0,.93-.06v.83c-.29,0-.64,0-.93,0Z"/><path class="cls-2" d="M124,150a1.09,1.09,0,0,0,.1-.49v-5.72a7.63,7.63,0,0,0-.08-.91h1a6.59,6.59,0,0,0-.07.91v5.67a10.78,10.78,0,0,0,5.47-3.41l.45.7a11.63,11.63,0,0,1-5.85,3.57,1.44,1.44,0,0,0-.42.18Z"/><path class="cls-2" d="M134.51,148.9c0,.51.21.64.7.74a9.51,9.51,0,0,0,1.32.08,16.38,16.38,0,0,0,3.42-.32v.91a28,28,0,0,1-3.46.21,10.6,10.6,0,0,1-1.6-.1c-.77-.14-1.2-.49-1.2-1.3v-5.5a4.37,4.37,0,0,0-.06-.81h.93a6.8,6.8,0,0,0,0,.81v2.26a27.29,27.29,0,0,0,3.8-1.22,6.6,6.6,0,0,0,.88-.45l.35.8c-.28.12-.64.28-.94.39a38.31,38.31,0,0,1-4.09,1.3Zm4.82-4.81a11.3,11.3,0,0,0-.81-1.39l.53-.22a14.32,14.32,0,0,1,.82,1.36Zm.82-2a14,14,0,0,1,.84,1.36l-.54.25a10.41,10.41,0,0,0-.83-1.38Z"/><path class="cls-2" d="M22.56,157.68l4.34-.4c1.08-.09,2-.14,2.67-.17v.8a8.17,8.17,0,0,0-1.94.16,3.46,3.46,0,0,0-2.26,3.13c0,1.93,1.8,2.54,3.41,2.6l-.29.84c-1.83-.08-3.92-1.06-3.92-3.27A4,4,0,0,1,26.41,158c-.87.1-3.57.36-4.64.58l-.09-.88C22.06,157.72,22.37,157.7,22.56,157.68ZM29,160.51l-.51.24a9.26,9.26,0,0,0-.82-1.41l.51-.22A12,12,0,0,1,29,160.51Zm1.14-.43-.52.24a8.83,8.83,0,0,0-.85-1.39l.5-.23A15,15,0,0,1,30.13,160.08Z"/><path class="cls-2" d="M34.06,156.8c0,.19,0,.48,0,.72v3.34c0,.25,0,.58,0,.76h-.92c0-.15,0-.47,0-.77v-3.33c0-.18,0-.53,0-.72Zm4.63-.07c0,.24,0,.53,0,.86v1.62c0,2.4-.32,3.19-1,4a5.34,5.34,0,0,1-2.38,1.46l-.65-.69A4.61,4.61,0,0,0,37,162.7c.72-.83.84-1.64.84-3.53v-1.58c0-.33,0-.62,0-.86Z"/><path class="cls-2" d="M49.1,159.5a1.71,1.71,0,0,0-.13.29,6.9,6.9,0,0,1-1.46,2.84,7.29,7.29,0,0,1-3.58,2.09l-.62-.71a6.73,6.73,0,0,0,3.52-1.83A5.11,5.11,0,0,0,48,160H42.71l-1,0v-.84a9.13,9.13,0,0,0,1,.06H48a1.33,1.33,0,0,0,.55-.08Zm-6.47-2.64a6.24,6.24,0,0,0,.9.05h3.93a6.22,6.22,0,0,0,.91-.05v.83c-.24,0-.58,0-.92,0H43.53c-.31,0-.63,0-.9,0Z"/><path class="cls-2" d="M53.23,161.31l-.76.28a17.74,17.74,0,0,0-.89-2.25l.74-.29C52.53,159.48,53,160.79,53.23,161.31Zm5-2.2c-.07.21-.11.37-.15.5a7.84,7.84,0,0,1-1.42,3.07,7.7,7.7,0,0,1-3.26,2.38l-.66-.68A6.65,6.65,0,0,0,56,162.26a6.86,6.86,0,0,0,1.38-3.42Zm-2.83,1.6-.74.26a18.65,18.65,0,0,0-.78-2.17l.73-.25C54.81,158.95,55.3,160.27,55.43,160.71Z"/><path class="cls-2" d="M68.42,158.06a4.15,4.15,0,0,0-.24.53A9.76,9.76,0,0,1,66.41,162a8.76,8.76,0,0,1-4,2.72l-.72-.65a7.73,7.73,0,0,0,5.58-5.63H63.92a9.9,9.9,0,0,1-2.53,2.46l-.69-.52A8.17,8.17,0,0,0,63.83,157a3,3,0,0,0,.31-.79l.93.31c-.17.26-.35.59-.45.78a4.26,4.26,0,0,1-.24.42H67.1a1.9,1.9,0,0,0,.65-.09Z"/><path class="cls-2" d="M77.68,157.62a2.85,2.85,0,0,0-.25.44A12.64,12.64,0,0,1,75.75,161a28.73,28.73,0,0,1,2.92,3l-.7.61a23,23,0,0,0-2.75-3,12.67,12.67,0,0,1-3.9,2.92l-.64-.67a11.42,11.42,0,0,0,4.12-3,8.91,8.91,0,0,0,1.66-2.78h-3.9c-.35,0-.9,0-1,0v-.91c.14,0,.71.07,1,.07h3.86a2.67,2.67,0,0,0,.75-.09Z"/><path class="cls-2" d="M83,156.55c0,.32-.08.67-.1,1,0,1.12-.12,3.46-.12,4.94,0,1.09.7,1.47,1.62,1.47a4.13,4.13,0,0,0,3.56-2l.55.69a4.93,4.93,0,0,1-4.13,2.18c-1.42,0-2.4-.6-2.4-2.21s.1-4,.1-5a5,5,0,0,0-.09-1Z"/><path class="cls-2" d="M95.79,158.42a19.19,19.19,0,0,1-2,.34c-.09.43-.2.89-.31,1.31a29.41,29.41,0,0,1-1.55,4.54l-.88-.29a22,22,0,0,0,1.66-4.43c.09-.33.17-.69.25-1l-.9,0c-.44,0-.8,0-1.15,0l0-.78a8.73,8.73,0,0,0,1.19.07c.33,0,.68,0,1.06,0,.07-.36.12-.67.15-.87a4.75,4.75,0,0,0,0-.82l1,.08c-.07.22-.14.59-.18.79l-.15.73a14.32,14.32,0,0,0,1.89-.36Zm-.39,3.47a3.54,3.54,0,0,0-.14.89c0,.47.22.92,1.63.92a11,11,0,0,0,1.93-.19l0,.81a14.63,14.63,0,0,1-1.91.13c-1.56,0-2.38-.48-2.38-1.46a5.51,5.51,0,0,1,.15-1.17Zm-.25-2.41c.52,0,1.17-.08,1.81-.08a15.64,15.64,0,0,1,1.71.08l0,.76a14.12,14.12,0,0,0-1.67-.12,16,16,0,0,0-1.83.11Z"/><path class="cls-2" d="M103.6,156.45a18.41,18.41,0,0,0-.46,2.75,3.31,3.31,0,0,1,2.68-2.25c1.32,0,2.27,1.32,2.27,3.4,0,2.75-1.73,4-4.19,4.41l-.47-.72c2.15-.33,3.83-1.19,3.83-3.68,0-1.56-.52-2.68-1.57-2.68-1.23,0-2.37,1.79-2.49,3.09a4.09,4.09,0,0,0,0,1.21l-.78.06a12.13,12.13,0,0,1-.1-1.57,26.13,26.13,0,0,1,.3-3.2c0-.31.07-.61.08-.85Z"/><path class="cls-2" d="M116.32,162.63a10.66,10.66,0,0,0,3.65,1.65,3.12,3.12,0,0,0-.48.61,11.33,11.33,0,0,1-3.82-2v2.16h-.73v-2.14a11.68,11.68,0,0,1-3.79,2,2.92,2.92,0,0,0-.49-.61,10.76,10.76,0,0,0,3.66-1.72H110.9V162h4v-.62h-2.83v-2.94a10.15,10.15,0,0,1-.94.9,2.24,2.24,0,0,0-.53-.49,8.8,8.8,0,0,0,2.36-2.94l.77.15q-.27.51-.63,1h1.93a8.35,8.35,0,0,0,.52-1.19l.83.12c-.2.37-.41.75-.6,1.07h3.28v.59h-3.26v.67h2.87v.53h-2.87v.66h2.9v.53h-2.9v.69h3.65v.6h-3.82V162h4.1v.61Zm-1.19-4.91H112.8v.67h2.33Zm0,1.2H112.8v.66h2.33Zm-2.33,1.88h2.33v-.69H112.8Z"/><path class="cls-2" d="M130.53,157.72v4.68h-.76v-.57H126.9v3.24h-.77v-3.24h-2.86v.62h-.73v-4.73h3.59v-1.78h.77v1.78Zm-4.4,3.38v-2.65h-2.86v2.65Zm3.64,0v-2.65H126.9v2.65Z"/><path class="cls-2" d="M135.39,156.55c0,.32-.08.67-.1,1,0,1.12-.12,3.46-.12,4.94,0,1.09.7,1.47,1.62,1.47a4.13,4.13,0,0,0,3.56-2l.55.69a4.93,4.93,0,0,1-4.13,2.18c-1.42,0-2.4-.6-2.4-2.21s.1-4,.1-5a5,5,0,0,0-.09-1Z"/><path class="cls-2" d="M22.56,171.62c.65-.06,2.52-.25,4.34-.4,1.08-.09,2-.14,2.67-.17v.8a8.28,8.28,0,0,0-1.94.16,3.45,3.45,0,0,0-2.26,3.12c0,1.94,1.8,2.55,3.41,2.61l-.29.83c-1.83-.07-3.92-1-3.92-3.26A4,4,0,0,1,26.41,172c-.87.1-3.57.36-4.64.58l-.09-.88C22.06,171.66,22.37,171.64,22.56,171.62Z"/><path class="cls-2" d="M34.9,170.19a15.84,15.84,0,0,1-1.08,2.14v6.73h-.73v-5.64a9.67,9.67,0,0,1-1.17,1.34,3.3,3.3,0,0,0-.45-.72A11.31,11.31,0,0,0,34.19,170Zm3,3.63v4.13h2.69v.72h-6v-.72h2.6v-4.13H34.36v-.72H37.2v-3h.75v3H40.8v.72Z"/><path class="cls-2" d="M51.5,176.24h-1V178h-.74v-.45h-2.4v.69c0,.46-.14.63-.44.74a6,6,0,0,1-1.66.12,2.47,2.47,0,0,0-.26-.63c.6,0,1.2,0,1.37,0s.25-.07.25-.24v-.69H43.37V177h3.23v-.75H42.51v-.59h4.09v-.7H43.46v-.55h3.14v-.7H43.74v-1.76h2.86v-.58H42.7v-.61h3.9V170h.74v.8h4v.61h-4v.58h3v1.76h-3v.7h3.14v1.25h1Zm-4.91-3.06v-.72H44.44v.72Zm.74-.72v.72h2.24v-.72Zm0,3.19h2.4v-.7h-2.4Zm2.4.59h-2.4V177h2.4Z"/><path class="cls-2" d="M55.43,170.55c0,.32-.08.67-.1,1,0,1.12-.12,3.46-.12,4.94,0,1.09.7,1.47,1.62,1.47a4.13,4.13,0,0,0,3.56-2l.55.69a4.93,4.93,0,0,1-4.13,2.18c-1.42,0-2.4-.6-2.4-2.21s.1-4,.1-5a5,5,0,0,0-.09-1Z"/><path class="cls-2" d="M67.78,172.42a19.19,19.19,0,0,1-2,.34c-.09.43-.2.89-.31,1.31a29.41,29.41,0,0,1-1.55,4.54l-.88-.29a22,22,0,0,0,1.66-4.43c.09-.33.17-.69.25-1l-.9,0c-.44,0-.8,0-1.15,0l0-.78a8.73,8.73,0,0,0,1.19.07c.33,0,.68,0,1.06,0,.07-.36.12-.67.15-.87a4.75,4.75,0,0,0,0-.82l1,.08c-.07.22-.14.59-.18.79l-.15.73a14.32,14.32,0,0,0,1.89-.36Zm-.39,3.47a3.54,3.54,0,0,0-.14.89c0,.47.22.92,1.63.92a11,11,0,0,0,1.93-.19l0,.81a14.63,14.63,0,0,1-1.91.13c-1.56,0-2.38-.48-2.38-1.46a5.51,5.51,0,0,1,.15-1.17Zm-.25-2.41c.52,0,1.17-.08,1.81-.08a15.64,15.64,0,0,1,1.71.08l0,.76a14.12,14.12,0,0,0-1.67-.12,16,16,0,0,0-1.83.11Z"/><path class="cls-2" d="M74.38,172.31c0,.62,0,1.53.07,2.34.16,1.66.64,2.75,1.34,2.75.51,0,1-1,1.23-2l.63.72c-.59,1.68-1.2,2.25-1.88,2.25-.93,0-1.83-.93-2.1-3.5a26.28,26.28,0,0,1-.11-2.64,5.2,5.2,0,0,0-.06-.88l1,0C74.42,171.59,74.39,172,74.38,172.31Zm7,4.16-.81.32a9.79,9.79,0,0,0-1.71-4.9l.78-.27A10.2,10.2,0,0,1,81.36,176.47Z"/><path class="cls-2" d="M90.23,172.36c-.22.14-.47.27-.76.42a33.35,33.35,0,0,0-3,1.63c-.92.6-1.47,1.25-1.47,2s.78,1.33,2.34,1.33a14.62,14.62,0,0,0,3.17-.34v.9a19.45,19.45,0,0,1-3.13.24c-1.86,0-3.21-.56-3.21-2a3.24,3.24,0,0,1,1.71-2.57,32.83,32.83,0,0,1-1.44-3l.79-.32a22.65,22.65,0,0,0,1.33,2.93c.93-.56,2-1.08,2.54-1.39a3.92,3.92,0,0,0,.71-.47Z"/><path class="cls-2" d="M100.31,173.64a13.26,13.26,0,0,1-1.68.42c.29.63.61,1.3.89,1.82l-.39.49c-.5-.09-1.3-.2-1.93-.28l.07-.61,1.26.14c-.19-.39-.42-.91-.65-1.43a23.82,23.82,0,0,1-4.43.09l0-.73a19.75,19.75,0,0,0,4.16,0l-.35-.81c-.08-.17-.15-.35-.22-.51a20.37,20.37,0,0,1-3.48,0l0-.73a18,18,0,0,0,3.24.08l-.13-.3a7.27,7.27,0,0,0-.37-.7l.9-.19a10.05,10.05,0,0,0,.37,1.1,11.09,11.09,0,0,0,2-.47l.14.71a13.69,13.69,0,0,1-1.84.42l.18.41c.08.21.22.52.39.89a10.27,10.27,0,0,0,1.83-.49Zm-5.69,2.06a3.38,3.38,0,0,0-.23,1c0,.76.6,1.24,2,1.24a11.86,11.86,0,0,0,2.44-.23l0,.81a15.28,15.28,0,0,1-2.39.19c-1.77,0-2.81-.61-2.81-1.85a4.49,4.49,0,0,1,.23-1.24Z"/><path class="cls-2" d="M104.34,170.81c-.06.17-.15.49-.19.67a22.71,22.71,0,0,0-.48,3.79,10.42,10.42,0,0,0,.08,1.36c.17-.45.39-1,.55-1.42l.43.32a21.39,21.39,0,0,0-.7,2.22,2.44,2.44,0,0,0,0,.44l0,.35-.72.05a12.44,12.44,0,0,1-.36-3.18,27.61,27.61,0,0,1,.44-4,5.85,5.85,0,0,0,.07-.7Zm2.26,4.8a3.68,3.68,0,0,0-.13.91c0,.45.3.89,1.66.89a10.76,10.76,0,0,0,2.45-.26V178a13.14,13.14,0,0,1-2.47.2c-1.66,0-2.4-.55-2.4-1.48a5.75,5.75,0,0,1,.16-1.17Zm-.39-4a17.32,17.32,0,0,0,4.07,0v.82a24.91,24.91,0,0,1-4.06,0Z"/><path class="cls-2" d="M119.79,174.06a3.28,3.28,0,0,1,1,2.29c0,1.47-1.33,2.37-3.28,2.37-1.35,0-2.44-.59-2.44-2.21,0-.27,0-.67.08-1.14a9.59,9.59,0,0,1-2.06-.36l0-.76a8.14,8.14,0,0,0,2.09.4c.07-.58.15-1.2.22-1.78a13.49,13.49,0,0,1-2.11-.34l0-.74a9,9,0,0,0,2.16.36c0-.4.09-.76.11-1a4,4,0,0,0,0-.69l.9,0a5.48,5.48,0,0,0-.13.69c0,.25-.08.6-.13,1a15,15,0,0,0,2-.12l0,.75a19.93,19.93,0,0,1-2,.1h-.07c-.08.58-.15,1.2-.22,1.77h.19a16,16,0,0,0,2.06-.12l0,.76a17.79,17.79,0,0,1-1.94.09h-.36c0,.39-.06.74-.06,1,0,.94.54,1.54,1.67,1.54,1.5,0,2.46-.64,2.46-1.67a2.72,2.72,0,0,0-1.09-2Z"/><path class="cls-2" d="M125.93,170.14a16.11,16.11,0,0,1-1,2.08v6.9h-.71v-5.83a10.37,10.37,0,0,1-1.1,1.3,3.77,3.77,0,0,0-.42-.72,11.18,11.18,0,0,0,2.56-3.95Zm3.17,5.31a4.13,4.13,0,0,1-.66,1.92,10.2,10.2,0,0,0,3.68,1.06,2.57,2.57,0,0,0-.44.67,10,10,0,0,1-3.68-1.21,5.3,5.3,0,0,1-2.26,1.22,2.53,2.53,0,0,0-.45-.61,4.93,4.93,0,0,0,2.11-1,5.52,5.52,0,0,1-1.45-1.63l.62-.2a4.2,4.2,0,0,0,1.26,1.33,3.43,3.43,0,0,0,.54-1.54h-2.42v-2.74h2.47v-1h-2.76V171h2.76V170h.73V171H132v.68h-2.88v1h2.55v2.74Zm-.69-.63c0-.15,0-.3,0-.45v-1h-1.78v1.48Zm.74-1.48v1c0,.15,0,.3,0,.45H131v-1.48Z"/><path class="cls-2" d="M134.65,174.06a13.5,13.5,0,0,1,3.5-.81,2.19,2.19,0,0,1,2.42,2.19c0,1.91-1.84,2.89-4.51,3l-.32-.77c2.14-.07,4-.67,4-2.29a1.5,1.5,0,0,0-1.67-1.45,14.54,14.54,0,0,0-4,1.15l-.33-.83A6.46,6.46,0,0,0,134.65,174.06Z"/><path class="cls-2" d="M65.2,185.62c.65-.06,2.52-.25,4.34-.4,1.08-.09,2-.14,2.67-.17v.8a8.28,8.28,0,0,0-1.94.16A3.45,3.45,0,0,0,68,189.13c0,1.94,1.8,2.55,3.41,2.61l-.29.83c-1.83-.07-3.92-1-3.92-3.26A4,4,0,0,1,69,186c-.87.1-3.57.36-4.64.58l-.09-.88C64.7,185.66,65,185.64,65.2,185.62Z"/><path class="cls-2" d="M81.68,192.19a7.35,7.35,0,0,0-2.39-1.49c0,.25,0,.47,0,.62,0,.68-.46,1.39-1.75,1.39s-2.21-.51-2.21-1.47.87-1.51,2.3-1.51a5.57,5.57,0,0,1,.83.06c0-.44,0-.91,0-1.32h-.55c-.68,0-1.78-.06-2.49-.14v-.76a17.58,17.58,0,0,0,2.49.19h.53v-1.42h-.49c-.69,0-1.74-.08-2.33-.15v-.74a15.72,15.72,0,0,0,2.32.19h.51V185a5.4,5.4,0,0,0,0-.59h.85a5.17,5.17,0,0,0,0,.66c0,.12,0,.31,0,.55a22.07,22.07,0,0,0,2.54-.24v.73c-.78.08-1.63.16-2.56.21v1.42a26.73,26.73,0,0,0,2.75-.26v.75c-.93.12-1.81.19-2.75.23,0,.51,0,1,.07,1.5a8.11,8.11,0,0,1,2.88,1.54Zm-3.17-1.71a5.07,5.07,0,0,0-1-.09c-.94,0-1.45.36-1.45.81s.39.8,1.37.8c.57,0,1-.17,1-.85C78.52,191,78.51,190.75,78.51,190.48Z"/><path class="cls-2" d="M89.42,186.39c0,.56,0,1.17,0,1.62a2.42,2.42,0,0,1,.32,1.27c0,1.34-.65,2.83-2.95,3.52l-.69-.67a3.54,3.54,0,0,0,2.63-1.72,1.42,1.42,0,0,1-.85.25A1.59,1.59,0,0,1,86.26,189,1.74,1.74,0,0,1,88,187.27a2,2,0,0,1,.66.11c0-.29,0-.64,0-1-1.5,0-3.18.08-4.42.17l0-.78c1.1,0,3-.08,4.43-.1,0-.28,0-.51,0-.65s0-.5-.06-.62h.91l0,.62c0,.15,0,.38,0,.64h3v.75c-.56,0-1.46,0-2.91,0Zm-.53,2.17a.88.88,0,0,0-.88-.61,1,1,0,0,0-1,1,1,1,0,0,0,1,1C88.6,190,89,189.5,88.89,188.56Z"/><path class="cls-2" d="M95.26,191.57a.8.8,0,1,1,.8.79A.77.77,0,0,1,95.26,191.57Zm.23-5.56,0-1.18h1.2l0,1.18-.25,3.88h-.66Z"/><path class="cls-2" d="M21.54,23c0,.31,0,.62,0,1.06v4.74c0,.35,0,.9,0,1.22H19.47c0-.27.07-.81.07-1.23V24.08A9.54,9.54,0,0,0,19.49,23ZM28,22.89c0,.39-.06.84-.06,1.4v2.77c0,3-.59,4.3-1.62,5.45a8.14,8.14,0,0,1-3.4,2L21.45,33a6.55,6.55,0,0,0,3.43-1.76c1-1.05,1.13-2.1,1.13-4.29V24.29a9.8,9.8,0,0,0-.08-1.4Z"/><path class="cls-2" d="M42.84,27.08a5.22,5.22,0,0,0-.27.59,10.06,10.06,0,0,1-2.07,3.88,10.48,10.48,0,0,1-5,3L34.1,33A9.45,9.45,0,0,0,39,30.54a6.08,6.08,0,0,0,1.44-2.42H33.64c-.34,0-1,0-1.62.07V26.36c.59.06,1.19.08,1.63.08h6.93a3,3,0,0,0,1-.14ZM33.3,23a11.67,11.67,0,0,0,1.46.07h5.39A13.08,13.08,0,0,0,41.67,23v1.81c-.38,0-1,0-1.54,0H34.76c-.45,0-1,0-1.46,0Z"/><path class="cls-2" d="M49.1,29.36,47.39,30a28.41,28.41,0,0,0-1.27-3.24l1.68-.6C48.14,26.88,48.82,28.57,49.1,29.36Zm7.12-2.91c-.17.45-.25.74-.34,1A11.29,11.29,0,0,1,54,31.57,10.94,10.94,0,0,1,49.28,35l-1.47-1.5a9.42,9.42,0,0,0,4.65-2.93,9.44,9.44,0,0,0,1.78-4.8Zm-4,2-1.68.59A23.53,23.53,0,0,0,49.38,26L51,25.42C51.31,26,52,27.85,52.19,28.49Z"/><path class="cls-2" d="M70.62,25a5.55,5.55,0,0,0-.46,1,14.63,14.63,0,0,1-2.44,4.68,13.2,13.2,0,0,1-5.66,4L60.41,33.2a11.16,11.16,0,0,0,5.65-3.46,10,10,0,0,0,2-3.82H64.1a16,16,0,0,1-3.53,3.39L59,28.14a12.33,12.33,0,0,0,4.37-4.51A6.72,6.72,0,0,0,64,22.16l2,.67c-.34.49-.69,1.12-.85,1.43l0,.07H68a4.51,4.51,0,0,0,1.22-.17Z"/><path class="cls-2" d="M83.46,24.26a6.58,6.58,0,0,0-.49.87A20.61,20.61,0,0,1,80.77,29a39.38,39.38,0,0,1,3.91,4l-1.6,1.39a31.91,31.91,0,0,0-3.53-4,18.46,18.46,0,0,1-5.27,3.94l-1.44-1.51a15.87,15.87,0,0,0,5.74-4,10.84,10.84,0,0,0,2.09-3.43H75.92c-.59,0-1.36.08-1.65.1v-2a15.74,15.74,0,0,0,1.65.1h4.93a5.08,5.08,0,0,0,1.46-.18Z"/><path class="cls-2" d="M98,24.26a6.58,6.58,0,0,0-.49.87A20.61,20.61,0,0,1,95.34,29a39.38,39.38,0,0,1,3.91,4l-1.6,1.39a31.91,31.91,0,0,0-3.53-4,18.46,18.46,0,0,1-5.27,3.94l-1.44-1.51a15.87,15.87,0,0,0,5.74-4,10.84,10.84,0,0,0,2.09-3.43H90.5c-.59,0-1.36.08-1.65.1v-2a15.74,15.74,0,0,0,1.65.1h4.93a5.08,5.08,0,0,0,1.46-.18Z"/><path class="cls-2" d="M103,28.71c.64-.64,1.74-2,2.69-3.17.84-1,1.6-1.09,2.75-.13a36.48,36.48,0,0,1,2.86,2.84c.94,1,2.44,2.62,3.45,3.78l-1.5,1.63c-.9-1.15-2.17-2.7-3-3.67a30.35,30.35,0,0,0-2.58-2.77c-.49-.42-.73-.42-1.13.08-.55.7-1.55,2.09-2.13,2.86-.32.43-.66.94-.9,1.3l-1.65-1.7A15.64,15.64,0,0,0,103,28.71Zm9.36-5.35a1.81,1.81,0,1,1,0,3.63,1.81,1.81,0,0,1,0-3.63Zm0,2.7a.89.89,0,0,0,.9-.88.9.9,0,0,0-.9-.9.89.89,0,0,0-.88.9A.88.88,0,0,0,112.38,26.07Z"/><path class="cls-2" d="M117.78,27.27c.5,0,1.53.08,2.25.08h7.52c.64,0,1.27-.06,1.64-.08v2.2c-.34,0-1.05-.07-1.64-.07H120c-.8,0-1.74,0-2.25.07Z"/><path class="cls-2" d="M142.73,24.26a6.58,6.58,0,0,0-.49.87A20.61,20.61,0,0,1,140,29,39.38,39.38,0,0,1,144,33l-1.6,1.39a31.91,31.91,0,0,0-3.53-4,18.46,18.46,0,0,1-5.27,3.94l-1.44-1.51a15.87,15.87,0,0,0,5.74-4,10.84,10.84,0,0,0,2.09-3.43H135.2c-.59,0-1.36.08-1.65.1v-2a15.74,15.74,0,0,0,1.65.1h4.93a5.06,5.06,0,0,0,1.46-.18Z"/><path class="cls-3" d="M117.75,76l-1.2-1.44"/><path class="cls-3" d="M120.2,72.1S87.44,99,39.65,72.1"/><path class="cls-3" d="M56.7,89.51A97.37,97.37,0,0,1,39.65,72.1"/><path class="cls-3" d="M91.18,97.78c-9.6,2.94-21.25,1.87-34.49-8.27"/><path class="cls-3" d="M120.2,72.1s-10.79,20.09-29,25.68"/><path class="cls-3" d="M85.81,98.95c-9.66-1.23-20.68-7-32.75-20.49"/><path class="cls-3" d="M89.48,98.25C81.63,96.33,73,91.37,63.64,81.84"/><path class="cls-3" d="M93.13,97.11C86.79,94.83,80,90.54,72.72,83.49"/><path class="cls-3" d="M96.76,95.53A62.05,62.05,0,0,1,80.72,84"/><path class="cls-3" d="M100.28,93.45a68,68,0,0,1-12.4-9.65"/><path class="cls-3" d="M103.86,90.95a75.51,75.51,0,0,1-9.46-8"/><path class="cls-3" d="M107.47,88a84.7,84.7,0,0,1-7-6.45"/><path class="cls-3" d="M111,84.57q-2.4-2.25-4.86-4.92"/><path class="cls-3" d="M114.39,80.6c-.85-.91-2.09-2.29-3-3.32"/><path class="cls-3" d="M51.47,77.83c-.92,1.27-2,2.69-3.25,4.16"/><path class="cls-3" d="M57.28,80a68.24,68.24,0,0,1-4.93,5.65"/><path class="cls-3" d="M63.29,81.72a63.22,63.22,0,0,1-7.17,7.35"/><path class="cls-3" d="M69.59,83a58.65,58.65,0,0,1-9.26,8.6"/><path class="cls-3" d="M76.1,84.06A53.8,53.8,0,0,1,63.84,94.22"/><path class="cls-3" d="M83.54,84a51.64,51.64,0,0,1-14.69,11.5"/><path class="cls-3" d="M91.37,83.55C86.61,88.82,79.79,94.72,71.6,97.48"/><path class="cls-3" d="M100.62,81.47c-5.46,6.61-14.16,14.7-25.42,17.06"/><path class="cls-3" d="M111,77.57C105.69,85,94.46,97.68,78.94,99.08"/><path class="cls-3" d="M113.92,80.15c-11.69,12.68-38.85,32-74.27-8"/><path class="cls-3" d="M120.2,72.1a56.59,56.59,0,0,1-6.28,8"/><rect class="cls-4" x="114.34" y="70.94" width="3.35" height="40.65" rx="1.67" ry="1.67" transform="translate(10.75 -12.21) rotate(6.32)"/><rect class="cls-4" x="118.22" y="71.31" width="3.35" height="40.65" rx="1.67" ry="1.67" transform="translate(-6.12 8.61) rotate(-4.01)"/><rect class="cls-4" x="37.33" y="70.94" width="3.35" height="40.65" rx="1.67" ry="1.67" transform="translate(10.28 -3.74) rotate(6.32)"/><rect class="cls-4" x="41.22" y="71.31" width="3.35" height="40.65" rx="1.67" ry="1.67" transform="matrix(1, -0.07, 0.07, 1, -6.31, 3.23)"/></g></g></svg>