<svg xmlns="http://www.w3.org/2000/svg" viewBox="0 0 163.5 207.5"><defs><style>.cls-1,.cls-2{fill:none;}.cls-1{stroke:#4c4b4c;stroke-miterlimit:10;stroke-dasharray:4 4;}.cls-2,.cls-3{stroke:#221714;stroke-linecap:round;stroke-linejoin:round;stroke-width:0.71px;}.cls-3{fill:#fff;}.cls-4{fill:#221714;}</style></defs><title>アセット 14</title><g id="レイヤー_2" data-name="レイヤー 2"><g id="レイヤー_14" data-name="レイヤー 14"><rect class="cls-1" x="0.5" y="0.5" width="162.5" height="206.5"/><path class="cls-2" d="M97.26,109H56.7V64.25l5.78-5.78H97.26a6.31,6.31,0,0,1,6.29,6.29v38A6.31,6.31,0,0,1,97.26,109Z"/><line class="cls-2" x1="97.99" y1="58.54" x2="92.34" y2="64.2"/><line class="cls-2" x1="103.6" y1="64.14" x2="97.94" y2="69.8"/><line class="cls-2" x1="102.7" y1="105.97" x2="96.01" y2="112.67"/><line class="cls-2" x1="59.43" y1="62.6" x2="73.24" y2="62.6"/><line class="cls-2" x1="60.96" y1="60.65" x2="80.51" y2="60.65"/><path class="cls-3" d="M91.48,114.8H56.7V64.25H91.48a6.31,6.31,0,0,1,6.29,6.29v38A6.31,6.31,0,0,1,91.48,114.8Z"/><path class="cls-2" d="M62.34,114.8H56.7V64.25h5.63Z"/><path class="cls-2" d="M67.44,80.68V73.84h20v6.85Z"/><path class="cls-4" d="M22.87,146a4.47,4.47,0,0,1-.64,1.52,3.24,3.24,0,0,0-.48-.5,5.41,5.41,0,0,0,.66-3v-1.74h3.54v2.16H23.06c0,.22,0,.45,0,.68h3v2.21H22.87Zm3.92,4.06h4.09v.66H22v-.66h4V149H23v-.65H26v-.77h.75v.77H30V149H26.79Zm-3.72-7.16v1h2.2v-1Zm2.28,2.84H23.49v1h1.86Zm5.58-1.38v.6h-2v.81H30.7v.6H28.88v1.25h-.7V146.4h-1.8v-.6h1.8V145h-2v-.6h1.19a5.78,5.78,0,0,0-.34-1l.49-.1H26.46v-.6h1.72V142h.7v.64h1.8v.6h-1l.45.08c-.17.39-.32.77-.47,1.07Zm-3.28-1.15a4.62,4.62,0,0,1,.37,1l-.5.12h2l-.48-.1a10.72,10.72,0,0,0,.38-1Z"/><path class="cls-4" d="M42.13,146v.81H33.06V146Z"/><path class="cls-4" d="M49,143.32c-.12.42-.26.87-.39,1.25h4v6.51h-.75v-.53H45.52v.53H44.8v-6.51h3.09c.11-.38.21-.84.29-1.25H44.35v-.71h8.79v.71Zm-3.52,6.54h1.42v-4.6H45.52Zm4.21-4.6H47.62v1.1h2.11Zm0,1.71H47.62v1.12h2.11Zm-2.11,2.89h2.11V148.7H47.62Zm4.29-4.6h-1.5v4.6h1.5Z"/><path class="cls-4" d="M59.58,149.82a6.33,6.33,0,0,0,.85-.12,3,3,0,0,0,2.51-2.93,2.74,2.74,0,0,0-2.63-2.87,20.84,20.84,0,0,1-.59,2.85c-.61,2-1.4,3.08-2.32,3.08s-1.77-1-1.77-2.65a4.23,4.23,0,0,1,4.34-4,3.59,3.59,0,0,1,3.8,3.64c0,2.08-1.37,3.47-3.73,3.78Zm-.65-3.24a16,16,0,0,0,.55-2.67,3.45,3.45,0,0,0-3.06,3.2c0,1.25.58,1.8,1,1.8S58.42,148.25,58.93,146.58Z"/><path class="cls-4" d="M71.51,144.78a9,9,0,0,0,3.84,4.06,2.64,2.64,0,0,0-.55.65A9.86,9.86,0,0,1,71,145.41v3.06h1.9v.74H71v1.86h-.77v-1.86H68.33v-.74h1.95v-3.06a10.41,10.41,0,0,1-3.74,4.09,3,3,0,0,0-.53-.6,9.54,9.54,0,0,0,3.81-4.12H66.35V144h3.93V142H71V144h4v.74Z"/><path class="cls-4" d="M79.72,147.32c-.11-.32-.35-.87-.57-1.35v5.1h-.66v-4.61a11.31,11.31,0,0,1-1,2.59,4.7,4.7,0,0,0-.35-.71,12.54,12.54,0,0,0,1.28-3.78H77.32v-.7h1.17v-1.92h.66v1.92h1v.7h-1v.39c.21.33.85,1.52,1,1.81Zm3.12,2.95c0,.36-.08.56-.31.68a2.43,2.43,0,0,1-1.1.13,2.64,2.64,0,0,0-.22-.65h.85c.11,0,.16,0,.16-.17v-2.6H81a7.55,7.55,0,0,1-1,3.43,2,2,0,0,0-.48-.44,9,9,0,0,0,1-4.75v-3.49h2.39ZM82.22,147v-1.7H81.07v.61c0,.34,0,.71,0,1.09ZM81.07,143v1.59h1.15V143Zm5,7.21a.68.68,0,0,1-.32.69,3,3,0,0,1-1.17.12,2.54,2.54,0,0,0-.22-.64h.89c.12,0,.17,0,.17-.18v-2.59h-1.3a8.46,8.46,0,0,1-.77,3.43,1.89,1.89,0,0,0-.48-.46,9.35,9.35,0,0,0,.66-4.08v-4.14h2.54ZM84.14,143v1.59h1.27V143ZM85.41,147v-1.7H84.14V147Z"/><path class="cls-4" d="M90.56,142.81c-.06.17-.15.49-.19.67a22.71,22.71,0,0,0-.48,3.79,10.42,10.42,0,0,0,.08,1.36c.17-.45.39-1,.55-1.42l.43.32a21.39,21.39,0,0,0-.7,2.22,2.44,2.44,0,0,0,0,.44l0,.35-.72.05a12.44,12.44,0,0,1-.36-3.18,27.61,27.61,0,0,1,.44-4,5.85,5.85,0,0,0,.07-.7Zm2.26,4.8a3.68,3.68,0,0,0-.13.91c0,.45.3.89,1.66.89a10.76,10.76,0,0,0,2.45-.26V150a13.14,13.14,0,0,1-2.47.2c-1.66,0-2.4-.55-2.4-1.48a5.75,5.75,0,0,1,.16-1.17Zm-.39-4a17.32,17.32,0,0,0,4.07,0v.82a24.91,24.91,0,0,1-4.06,0Z"/><path class="cls-4" d="M108.19,149.89v.75H99.33v-.75h3v-5.23H99.58v-.72h2.29a7,7,0,0,0-1-1.72l.65-.26a6.52,6.52,0,0,1,1,1.7l-.63.28h3.39l-.41-.15a11.7,11.7,0,0,0,1-1.84l.79.24a17.78,17.78,0,0,1-1.09,1.75h2.3v.72h-2.78v5.23Zm-7.47-4.27a11.63,11.63,0,0,1,1,3.15l-.71.18a11.09,11.09,0,0,0-.95-3.15Zm2.31,4.27h1.39v-5.23H103Zm2.6-1.12a20.94,20.94,0,0,0,1.1-3.24l.78.19A30.67,30.67,0,0,1,106.3,149Z"/><path class="cls-4" d="M110.37,150.1l-.48-.67a11.3,11.3,0,0,0,2.53-1.94l.48.6A13.36,13.36,0,0,1,110.37,150.1Zm2.18-.46a5.31,5.31,0,0,0,1.6.23c.46,0,1-.18,1-.82a4.23,4.23,0,0,0-1.27-2.17c-.22-.22-.52-.5-.8-.74l.61-.52.72.77a4.43,4.43,0,0,1,1.58,2.74c0,1.22-1,1.5-1.71,1.5a8.89,8.89,0,0,1-1.61-.15Zm1.91-4.73a6.1,6.1,0,0,0,.68-.49,9.93,9.93,0,0,0-2.11-1.15l.47-.59a13.68,13.68,0,0,1,2.44,1.3l.19.52c-.24.2-.8.63-1.16.89Zm3.8,5.11a9.85,9.85,0,0,0-1.66-3.13l.67-.36a11.6,11.6,0,0,1,1.73,3.09Zm-.14-5-.54.24a11.14,11.14,0,0,0-.81-1.4l.53-.23A12.13,12.13,0,0,1,118.11,145Zm1.13-.42-.54.24a10.06,10.06,0,0,0-.83-1.38l.52-.23A11.15,11.15,0,0,1,119.24,144.63Z"/><path class="cls-4" d="M126.43,144.78a9,9,0,0,0,3.84,4.06,2.64,2.64,0,0,0-.55.65,9.86,9.86,0,0,1-3.75-4.08v3.06h1.9v.74H126v1.86h-.77v-1.86h-1.95v-.74h1.95v-3.06a10.41,10.41,0,0,1-3.74,4.09,3,3,0,0,0-.53-.6,9.54,9.54,0,0,0,3.81-4.12h-3.47V144h3.93V142H126V144h4v.74Z"/><path class="cls-4" d="M136,142.54c0,.18-.08.39-.12.58s-.14.87-.25,1.4c.46,0,.87-.06,1.11-.06.88,0,1.61.34,1.61,1.68a9.51,9.51,0,0,1-.58,3.57,1.39,1.39,0,0,1-1.45.83,5.9,5.9,0,0,1-1.16-.15l-.13-.84a4.87,4.87,0,0,0,1.21.22.83.83,0,0,0,.87-.51,8.51,8.51,0,0,0,.46-3c0-.9-.41-1.06-1-1.06-.24,0-.63,0-1.06.07a19.87,19.87,0,0,1-2.08,5.32l-.82-.33a15.51,15.51,0,0,0,2.08-4.91l-1.25.13-.89.12-.08-.87c.31,0,.57,0,.88,0s.91-.06,1.51-.11a11.58,11.58,0,0,0,.25-2.15Zm3.41,1a17.43,17.43,0,0,1,1.81,3.54l-.78.37a11.89,11.89,0,0,0-1.77-3.59Z"/><path class="cls-4" d="M23.42,161.06a4.68,4.68,0,0,1,3.2-1.19,2.25,2.25,0,0,1,2.53,2.07c0,1.78-1.57,3-5.25,2.67l-.24-.82c3.12.38,4.65-.52,4.65-1.87,0-.79-.73-1.34-1.74-1.34a3.85,3.85,0,0,0-3.06,1.31,2.05,2.05,0,0,0-.3.5l-.75-.18a34.86,34.86,0,0,0,.5-4l.85.11C23.68,159,23.51,160.42,23.42,161.06ZM24,156.5a26.52,26.52,0,0,0,3.83.76l-.19.78c-.94-.13-3.09-.57-3.85-.78Z"/><path class="cls-4" d="M35.94,158.07a13.29,13.29,0,0,1-.93,4.36,7,7,0,0,1,1.14,1.06l-.45.59a7.49,7.49,0,0,0-1-1,5.32,5.32,0,0,1-1.92,2,2.94,2.94,0,0,0-.46-.6,4.39,4.39,0,0,0,1.81-1.86c-.33-.25-.68-.49-1-.71l-.11.42-.62-.32c.24-.86.54-2.09.82-3.34h-.95V158h1.09c.16-.72.3-1.43.41-2l.71.08c-.12.61-.26,1.28-.41,2h1.35l.13,0Zm-2.07.61c-.2.89-.41,1.78-.61,2.57.38.22.78.47,1.16.74a11.46,11.46,0,0,0,.77-3.31Zm7.48,2H39v3.49c0,.45-.1.67-.42.79a5.68,5.68,0,0,1-1.62.13,2.94,2.94,0,0,0-.28-.72c.63,0,1.19,0,1.36,0s.22-.06.22-.21v-3.49H35.89v-.69h2.34v-1.33h.3A9.53,9.53,0,0,0,40,157.14H36.22v-.68H40.5l.15,0,.49.36A11.49,11.49,0,0,1,39,159.06v.89h2.38Z"/><path class="cls-4" d="M51.5,159.64a13.26,13.26,0,0,1-1.68.42c.29.63.61,1.3.89,1.82l-.39.49c-.5-.09-1.3-.2-1.93-.28l.07-.61,1.26.14c-.19-.39-.42-.91-.65-1.43a23.82,23.82,0,0,1-4.43.09l0-.73a19.75,19.75,0,0,0,4.16,0l-.35-.81c-.08-.17-.15-.35-.22-.51a20.37,20.37,0,0,1-3.48,0l0-.73a18,18,0,0,0,3.24.08l-.13-.3a7.27,7.27,0,0,0-.37-.7l.9-.19a10.05,10.05,0,0,0,.37,1.1,11.09,11.09,0,0,0,2-.47l.14.71a13.69,13.69,0,0,1-1.84.42l.18.41c.08.21.22.52.39.89a10.27,10.27,0,0,0,1.83-.49Zm-5.69,2.06a3.38,3.38,0,0,0-.23,1c0,.76.6,1.24,2,1.24a11.86,11.86,0,0,0,2.44-.23l0,.81a15.28,15.28,0,0,1-2.39.19c-1.77,0-2.81-.61-2.81-1.85a4.49,4.49,0,0,1,.23-1.24Z"/><path class="cls-4" d="M59.51,158.31a11.76,11.76,0,0,1-1.79.36,17.78,17.78,0,0,1-2.16,4.19l-.78-.4a14.2,14.2,0,0,0,2.12-3.7c-.29,0-.58,0-.87,0l-1.15,0-.06-.75a9.17,9.17,0,0,0,1.22.07c.35,0,.72,0,1.1,0a8.06,8.06,0,0,0,.31-1.71l.89.08c-.1.36-.23,1-.39,1.53a10,10,0,0,0,1.54-.36Zm1.16,1.15a9.38,9.38,0,0,0,0,1.07c0,.36,0,1,.07,1.61a6.68,6.68,0,0,1,2,1.24l-.43.68a6.88,6.88,0,0,0-1.59-1.13c0,.15,0,.29,0,.4,0,.79-.52,1.44-1.74,1.44s-2-.45-2-1.43.86-1.5,2-1.5a4.71,4.71,0,0,1,.94.09c0-.81-.08-1.78-.1-2.47ZM60,162.63a3.6,3.6,0,0,0-1-.14c-.73,0-1.21.33-1.21.78s.37.77,1.14.77,1.08-.45,1.08-.94C60,163,60,162.81,60,162.63Zm2.64-2.9a11.87,11.87,0,0,0-2.26-1.36l.39-.62a15,15,0,0,1,2.32,1.32Z"/><path class="cls-4" d="M68.19,161.44v3.64H67.5v-3.42l-1.65.51-.2-.71c.51-.14,1.15-.31,1.85-.53V158.7h-.91a7.92,7.92,0,0,1-.44,1.48,3.58,3.58,0,0,0-.57-.33,11.69,11.69,0,0,0,.69-3.33l.65.11c0,.45-.12.91-.19,1.35h.77v-2h.69v2h1v.72h-1v2l1.16-.36.1.66Zm6.54-3.82s0,.28,0,.37c-.22,4.53-.44,6.08-.84,6.58a.86.86,0,0,1-.69.38,6.09,6.09,0,0,1-1.14,0,1.61,1.61,0,0,0-.21-.73c.45,0,.85,0,1,0a.42.42,0,0,0,.37-.17c.32-.35.54-1.83.74-5.79h-.48c-.5,2.62-1.6,5.28-3.26,6.6a2.23,2.23,0,0,0-.62-.45c1.64-1.18,2.72-3.64,3.24-6.15h-.82a9.72,9.72,0,0,1-2.46,4.53,2.44,2.44,0,0,0-.59-.43,8.44,8.44,0,0,0,2.41-4.1h-.86a8.23,8.23,0,0,1-1.14,1.9,4.82,4.82,0,0,0-.57-.43,8.55,8.55,0,0,0,1.75-3.84l.68.14a12.49,12.49,0,0,1-.45,1.54h3.9Z"/><path class="cls-4" d="M81.94,163c0-.38,0-1,0-1.54-.92.5-1.56,1-1.56,1.66s.77.89,1.79.89a17.36,17.36,0,0,0,2.7-.24l0,.81a25.27,25.27,0,0,1-2.71.16c-1.42,0-2.56-.3-2.56-1.51s1.18-1.91,2.33-2.51a.84.84,0,0,0-.89-.61,2.63,2.63,0,0,0-1.71.73c-.28.27-.56.64-.9,1l-.68-.51a10.43,10.43,0,0,0,2.28-3h-.41c-.42,0-1.09,0-1.63-.06v-.75c.53.06,1.22.1,1.67.1h.65a5.4,5.4,0,0,0,.25-1.23l.82.07c-.07.28-.16.69-.3,1.14a26.46,26.46,0,0,0,3-.3V158a30.48,30.48,0,0,1-3.28.28,7.08,7.08,0,0,1-.89,1.52,2.8,2.8,0,0,1,1.37-.37,1.24,1.24,0,0,1,1.31.9c.68-.32,1.28-.56,1.8-.8.3-.13.54-.25.82-.39l.32.75c-.25.07-.61.21-.87.31-.56.22-1.27.51-2,.86,0,.57,0,1.41,0,1.89Z"/><path class="cls-4" d="M91.15,156.19a14.8,14.8,0,0,1-1,2.16V165h-.7v-5.61a9.75,9.75,0,0,1-1,1.23,4.11,4.11,0,0,0-.42-.72,11.29,11.29,0,0,0,2.47-4Zm6.29,3v.68h-6.8v-.68h1.75v-1.35H91.06v-.65h1.33V156h.71v1.15H95V156h.72v1.15h1.39v.65H95.68v1.35Zm-5.74,1.48h4.85v4.39h-.73v-.4H92.41v.44H91.7Zm.71.63v1.06h3.41V161.3ZM95.82,164v-1.08H92.41V164Zm-2.72-4.84H95v-1.35H93.1Z"/><path class="cls-4" d="M102.24,156.45a18.41,18.41,0,0,0-.46,2.75,3.31,3.31,0,0,1,2.68-2.25c1.32,0,2.27,1.32,2.27,3.4,0,2.75-1.73,4-4.19,4.41l-.47-.72c2.15-.33,3.83-1.19,3.83-3.68,0-1.56-.52-2.68-1.57-2.68-1.23,0-2.37,1.79-2.49,3.09a4.09,4.09,0,0,0,0,1.21l-.78.06a12.13,12.13,0,0,1-.1-1.57,26.13,26.13,0,0,1,.3-3.2c0-.31.07-.61.08-.85Z"/><path class="cls-4" d="M110.78,157.62c.65-.06,2.52-.25,4.34-.4,1.08-.09,2-.14,2.67-.17v.8a8.28,8.28,0,0,0-1.94.16,3.45,3.45,0,0,0-2.26,3.12c0,1.94,1.8,2.55,3.41,2.61l-.29.83c-1.83-.07-3.92-1-3.92-3.26a4,4,0,0,1,1.84-3.34c-.87.1-3.57.36-4.64.58l-.09-.88C110.28,157.66,110.59,157.64,110.78,157.62Z"/><path class="cls-4" d="M124.06,158.21h-3.37v-.61h3.37Zm-.26,6.28h-2.07V165h-.63v-3.35h2.7Zm-2.69-5.54h2.69v.59h-2.69Zm0,1.32h2.69v.6h-2.69Zm2.65-3.38h-2.59v-.6h2.59Zm-2,5.33v1.67h1.44v-1.67Zm4.71-1.2c-.09,2.12-.42,3.37-2.18,4.06a2.57,2.57,0,0,0-.43-.58c1.6-.57,1.83-1.61,1.91-3.48Zm-1.5.49h-.67v-1.76h5.44v1.76H129v-1.15h-4.08Zm1.63-4h-2.26v-.63h2.26v-.9h.74v.9h2.36v.63H127.3v.93h2.07V159h-4.75v-.63h1.94Zm2.47,6.82c.22,0,.26-.16.29-1.31a2,2,0,0,0,.61.29c-.05,1.34-.23,1.69-.82,1.69h-.83c-.68,0-.84-.22-.84-.95v-3h.69v3c0,.25,0,.28.24.28Z"/><path class="cls-4" d="M140.07,161.81c0,.53,0,.66,0,1.07a1.5,1.5,0,0,1-1.29,1.61,10.8,10.8,0,0,1-2,.19c-2,0-2.28-.48-2.28-1.21,0-.17,0-.33,0-.48a1.45,1.45,0,0,1-.31,0c-.56,0-1.28-.41-1.28-1.56a1.79,1.79,0,0,1,1.62-1.95l.26,0v-1h-.35a11.7,11.7,0,0,1-1.58-.1l0-.74a10.14,10.14,0,0,0,1.57.13h.4v-.49a4.55,4.55,0,0,0-.07-.94h.88a7.18,7.18,0,0,0-.06.94v.43a11.36,11.36,0,0,0,1.89-.35v.77a15.63,15.63,0,0,1-1.89.3V160a1.56,1.56,0,0,1,.25.88,2.62,2.62,0,0,1-.52,1.68c0,.21,0,.45,0,.63,0,.55.13.75,1.57.75a7.94,7.94,0,0,0,1.68-.17,1,1,0,0,0,.82-1.1,7,7,0,0,0-.07-1.12Zm-5.84.47c.57,0,.79-.7.79-1.37,0-.47-.24-.75-.57-.75-.49,0-.91.52-.91,1.26C133.55,162,133.88,162.28,134.24,162.28Zm4.8-4.88a11,11,0,0,1,2,1.83l-.56.57a11.32,11.32,0,0,0-1.93-1.87Z"/><path class="cls-4" d="M46.63,175.3a3.9,3.9,0,0,0-.2,1.13c0,.74.76,1.26,2.34,1.26a12.89,12.89,0,0,0,3.39-.38v.86a14.58,14.58,0,0,1-3.38.34c-2,0-3.18-.66-3.18-1.9a6.27,6.27,0,0,1,.2-1.39Zm-.41-4a22.1,22.1,0,0,0,2.62.13c.95,0,2-.07,2.67-.14v.82c-.67,0-1.76.12-2.67.12s-1.83,0-2.62-.11Z"/><path class="cls-4" d="M61.57,172.36c-.22.14-.47.27-.76.42a33.35,33.35,0,0,0-3,1.63c-.92.6-1.47,1.25-1.47,2s.78,1.33,2.34,1.33a14.62,14.62,0,0,0,3.17-.34v.9a19.45,19.45,0,0,1-3.13.24c-1.86,0-3.21-.56-3.21-2a3.24,3.24,0,0,1,1.71-2.57,32.83,32.83,0,0,1-1.44-3l.79-.32a22.65,22.65,0,0,0,1.33,2.93c.93-.56,2-1.08,2.54-1.39a3.92,3.92,0,0,0,.71-.47Z"/><path class="cls-4" d="M67.74,170.57c0,.19-.09.39-.12.59s-.15.87-.26,1.4c.46,0,.87-.07,1.11-.07.89,0,1.61.35,1.61,1.69a9.51,9.51,0,0,1-.57,3.57,1.4,1.4,0,0,1-1.45.82,6.08,6.08,0,0,1-1.17-.14l-.13-.85a4.52,4.52,0,0,0,1.22.22.83.83,0,0,0,.86-.51,8.23,8.23,0,0,0,.47-3c0-.9-.41-1.06-1-1.06-.24,0-.63,0-1.06.07a19.86,19.86,0,0,1-2.08,5.31l-.81-.33a15.69,15.69,0,0,0,2.08-4.9l-1.25.13c-.24,0-.64.07-.89.12l-.08-.87c.31,0,.56,0,.88,0s.9-.06,1.5-.11a10.88,10.88,0,0,0,.25-2.15Zm3.4,1.13a16.78,16.78,0,0,1,1.81,3.52l-.77.38A12,12,0,0,0,70.41,172Zm.41.16a12.29,12.29,0,0,0-.81-1.39l.53-.22a14.43,14.43,0,0,1,.83,1.37Zm1.13-.41a11.27,11.27,0,0,0-.83-1.38l.53-.22a13,13,0,0,1,.84,1.36Z"/><path class="cls-4" d="M75.41,171.68l4.34-.4c1.08-.09,2-.14,2.67-.17v.8a8.17,8.17,0,0,0-1.94.16,3.46,3.46,0,0,0-2.26,3.13c0,1.93,1.8,2.54,3.41,2.6l-.29.84c-1.83-.08-3.92-1.06-3.92-3.27A4,4,0,0,1,79.26,172c-.87.1-3.57.36-4.64.58l-.09-.88C74.91,171.72,75.22,171.7,75.41,171.68Zm6.43,2.83-.51.24a9.26,9.26,0,0,0-.82-1.41l.51-.22A12,12,0,0,1,81.84,174.51Zm1.14-.43-.52.24a8.83,8.83,0,0,0-.85-1.39l.5-.23A14.83,14.83,0,0,1,83,174.08Z"/><path class="cls-4" d="M92.14,173.64a13.26,13.26,0,0,1-1.68.42c.29.63.61,1.3.89,1.82l-.39.49c-.5-.09-1.3-.2-1.93-.28l.07-.61,1.26.14c-.19-.39-.42-.91-.65-1.43a23.82,23.82,0,0,1-4.43.09l0-.73a19.75,19.75,0,0,0,4.16,0l-.35-.81c-.08-.17-.15-.35-.22-.51a20.37,20.37,0,0,1-3.48,0l0-.73a18,18,0,0,0,3.24.08l-.13-.3a7.27,7.27,0,0,0-.37-.7l.9-.19a10.05,10.05,0,0,0,.37,1.1,11.09,11.09,0,0,0,2-.47l.14.71a13.69,13.69,0,0,1-1.84.42l.18.41c.08.21.22.52.39.89a10.27,10.27,0,0,0,1.83-.49Zm-5.69,2.06a3.4,3.4,0,0,0-.23,1c0,.76.6,1.24,2,1.24a11.86,11.86,0,0,0,2.44-.23l0,.81a15.28,15.28,0,0,1-2.39.19c-1.77,0-2.81-.61-2.81-1.85a4.49,4.49,0,0,1,.23-1.24Z"/><path class="cls-4" d="M101.42,178.19A7.35,7.35,0,0,0,99,176.7c0,.25,0,.47,0,.62,0,.68-.46,1.39-1.75,1.39s-2.21-.51-2.21-1.47.87-1.51,2.3-1.51a5.57,5.57,0,0,1,.83.06c0-.44,0-.91,0-1.32h-.55c-.68,0-1.78-.06-2.49-.14v-.76a17.58,17.58,0,0,0,2.49.19h.53v-1.42h-.49c-.69,0-1.74-.08-2.33-.15v-.74a15.72,15.72,0,0,0,2.32.19h.51V171a5.4,5.4,0,0,0,0-.59H99a5.17,5.17,0,0,0,0,.66c0,.12,0,.31,0,.55a22.07,22.07,0,0,0,2.54-.24v.73c-.78.08-1.63.16-2.56.21v1.42a26.73,26.73,0,0,0,2.75-.26v.75c-.93.12-1.81.19-2.75.23,0,.51,0,1,.07,1.5a8.11,8.11,0,0,1,2.88,1.54Zm-3.17-1.71a5.07,5.07,0,0,0-1-.09c-.94,0-1.45.36-1.45.81s.39.8,1.37.8c.57,0,1-.17,1-.85C98.26,177,98.25,176.75,98.25,176.48Z"/><path class="cls-4" d="M109.16,172.39c0,.56,0,1.17,0,1.62a2.42,2.42,0,0,1,.32,1.27c0,1.34-.65,2.83-2.95,3.52l-.69-.67a3.54,3.54,0,0,0,2.63-1.72,1.42,1.42,0,0,1-.85.25A1.59,1.59,0,0,1,106,175a1.74,1.74,0,0,1,1.75-1.73,2,2,0,0,1,.66.11c0-.29,0-.64,0-1-1.5,0-3.18.08-4.42.17l0-.78c1.1,0,3-.08,4.43-.1,0-.28,0-.51,0-.65s0-.5-.06-.62h.91l0,.62c0,.15,0,.38,0,.64h3v.75c-.56,0-1.46,0-2.91,0Zm-.53,2.17a.88.88,0,0,0-.88-.61,1,1,0,0,0-1,1,1,1,0,0,0,1,1C108.34,176,108.72,175.5,108.63,174.56Z"/><path class="cls-4" d="M115,177.57a.8.8,0,1,1,.8.79A.77.77,0,0,1,115,177.57Zm.23-5.56,0-1.18h1.2l0,1.18-.25,3.88h-.66Z"/><path class="cls-4" d="M40.77,30l1.29-.55.38,1.47c-1.49.74-3.08,1.48-4.37,2.09l-.67-1.68c.5-.18,1.12-.42,1.82-.7V26.7H37.58V25.11h1.64v-3h1.55v3h1.41V26.7H40.77Zm7.48,3.22c.77,0,.91-.32,1-1.75a4.21,4.21,0,0,0,1.46.6c-.22,2-.71,2.63-2.35,2.63h-3c-1.89,0-2.44-.52-2.44-2.45v-3.6l-.76.32L41.6,27.5,43,26.92V23.24h1.6v3l1.16-.49V21.88h1.56v3.19l1.11-.48.29-.2.29-.2,1.16.41-.06.28c0,2.66,0,4.34-.1,4.92A1.2,1.2,0,0,1,49.28,31a3.91,3.91,0,0,1-1.46.2,4.56,4.56,0,0,0-.35-1.4,6.31,6.31,0,0,0,.67,0c.17,0,.25-.06.31-.31s0-1.25,0-3.24l-1.2.53v4.94H45.73V27.45l-1.16.5v4.31c0,.83.13,1,1,1Z"/><path class="cls-4" d="M63.26,24l.88.57a7.11,7.11,0,0,0-.31,1,14.14,14.14,0,0,1-2.1,5.1,11.09,11.09,0,0,1-5.63,3.87l-1.53-1.67a9.2,9.2,0,0,0,5.49-3.29,9,9,0,0,0,1.65-4H55.19c-.64,0-1.3,0-1.67.06v-2a15.43,15.43,0,0,0,1.67.11h6.49a5.81,5.81,0,0,0,.66,0c-.24-.46-.52-1-.78-1.36l1.15-.48a18.35,18.35,0,0,1,1.08,1.85Zm1.4-2.42c.35.5.85,1.36,1.12,1.85l-1.16.5a16.63,16.63,0,0,0-1.12-1.88Z"/><path class="cls-4" d="M78.61,27.08a5.22,5.22,0,0,0-.27.59,10.06,10.06,0,0,1-2.07,3.88,10.48,10.48,0,0,1-5,3L69.87,33a9.45,9.45,0,0,0,4.86-2.45,6.08,6.08,0,0,0,1.44-2.42H69.41c-.34,0-1,0-1.62.07V26.36c.59.06,1.19.08,1.63.08h6.93a3,3,0,0,0,1-.14ZM69.07,23a11.67,11.67,0,0,0,1.46.07h5.39A13.08,13.08,0,0,0,77.43,23v1.81c-.38,0-1,0-1.54,0H70.53c-.45,0-1,0-1.46,0Z"/><path class="cls-4" d="M94,22.5V34.93H92.21v-.57H83.73v.57H82.06V22.5ZM92.21,32.76V24.09H83.73v8.67Zm-.5-7.58a13.67,13.67,0,0,1-2.44,4.24A16.42,16.42,0,0,1,91.6,31l-1,1.3a16.23,16.23,0,0,0-2.41-1.69A12.94,12.94,0,0,1,85,32.69,7.74,7.74,0,0,0,84,31.35a11.2,11.2,0,0,0,2.73-1.61c-.73-.39-1.47-.74-2.16-1l.85-1.06-.15.07a11.36,11.36,0,0,0-1.09-2.4l1.25-.53a10.17,10.17,0,0,1,1.18,2.34l-1.06.48c.73.29,1.54.67,2.34,1.08a10.86,10.86,0,0,0,2.28-3.89Zm-4.15,2.2a10.29,10.29,0,0,0-.88-2.52l1.3-.43a9.2,9.2,0,0,1,1,2.44Z"/><path class="cls-4" d="M104.16,26.87v.49h4.48v1h-4.48v.5h5.5V30H97.1V28.87h5.39v-.5H98.08v-1h4.41v-.49h-4.1v-1h4.1v-.53H97.11V24.22h5.38V23.7h-4v-1h4v-.88h1.67v.88h3.91v1.49h1.6v1.15h-1.6v1.5Zm-5.31,3.6h9.29V35h-1.68V34.6h-6V35H98.85Zm1.61,1.06V32h6v-.5Zm6,2V33h-6v.55Zm-2.3-9.33h2.25V23.7h-2.25Zm0,1.68h2.25v-.53h-2.25Z"/><path class="cls-4" d="M120.46,29.47v.87h4.4v4.55h-1.54v-.56h-2.86V35H119V26h-.8V24.43l-.9,1a10,10,0,0,0-1.74-2.16,11.79,11.79,0,0,1-1.81,2.39h1.22V24.54h1.36V25.7h1.46v4.83h-3.18v2l1.49-.35q-.27-.5-.55-1l1.3-.56a13.18,13.18,0,0,1,1.61,3.25l-1.42.64a9.66,9.66,0,0,0-.38-1.12c-1.39.41-2.8.8-3.94,1.09L112.24,33l.84-.15V26.29l-.1.08a4.42,4.42,0,0,0-1-1.08,8.63,8.63,0,0,0,2.56-3.39H116A12.2,12.2,0,0,1,118.15,24v-.67h2.63V21.89h1.6v1.46h2.79V26h-.9v3.49Zm-5.9-2.59v.69h1.72v-.69Zm1.72,2.47v-.71h-1.72v.71Zm3.35-4.64v1h4v-1Zm3.1,2.3h-2.27v1.15h2.27Zm-2.27,4.71v1.22h2.86V31.71Z"/></g></g></svg>