<svg xmlns="http://www.w3.org/2000/svg" viewBox="0 0 163.5 207.5"><defs><style>.cls-1,.cls-2{fill:none;}.cls-1{stroke:#4c4b4c;stroke-miterlimit:10;stroke-dasharray:4 4;}.cls-2{stroke:#221714;stroke-linecap:round;stroke-linejoin:round;stroke-width:0.71px;}.cls-3{fill:#221714;}</style></defs><title>アセット 15</title><g id="レイヤー_2" data-name="レイヤー 2"><g id="レイヤー_14" data-name="レイヤー 14"><rect class="cls-1" x="0.5" y="0.5" width="162.5" height="206.5"/><path class="cls-2" d="M78.34,63.8c1.28,1.28,3.71,8.36,3.71,8.36S75,69.73,73.69,68.45a3.29,3.29,0,0,1,4.65-4.65Z"/><path class="cls-2" d="M93.39,59.44c0,1.82-3.29,8.54-3.29,8.54s-3.29-6.73-3.29-8.54a3.29,3.29,0,1,1,6.58,0Z"/><path class="cls-2" d="M106.51,68.45c-1.28,1.28-8.36,3.71-8.36,3.71s2.43-7.08,3.71-8.36a3.29,3.29,0,1,1,4.65,4.65Z"/><path class="cls-2" d="M94.11,89.94a1.73,1.73,0,1,1,2.35-.72A1.74,1.74,0,0,1,94.11,89.94Z"/><path class="cls-2" d="M89.87,94.35a1.73,1.73,0,1,1,2.45.14A1.74,1.74,0,0,1,89.87,94.35Z"/><path class="cls-2" d="M84.33,97a1.73,1.73,0,1,1,2.23,1A1.73,1.73,0,0,1,84.33,97Z"/><path class="cls-2" d="M78.21,97.48A1.74,1.74,0,1,1,80,99.21,1.74,1.74,0,0,1,78.21,97.48Z"/><path class="cls-2" d="M72.32,95.83a1.74,1.74,0,1,1,1,2.23A1.74,1.74,0,0,1,72.32,95.83Z"/><path class="cls-2" d="M67.4,92.23a1.73,1.73,0,1,1,.19,2.44A1.73,1.73,0,0,1,67.4,92.23Z"/><path class="cls-2" d="M64,87.12a1.73,1.73,0,1,1-.68,2.36A1.73,1.73,0,0,1,64,87.12Z"/><path class="cls-2" d="M79.84,105.75a25.37,25.37,0,0,1-25.37-25.3H46.66a33.17,33.17,0,0,0,66.34,0H105.2A25.37,25.37,0,0,1,79.84,105.75Z"/><path class="cls-2" d="M79.84,105.75a25.37,25.37,0,0,0,25.36-25.3H94.12a4,4,0,0,1-8,0H54.47A25.37,25.37,0,0,0,79.84,105.75Z"/><path class="cls-3" d="M28.87,146.52c0,.67-.11,1.22-.17,1.66H30v.66H28.6a2.31,2.31,0,0,1-.37,1,1,1,0,0,1-.76.37,11.47,11.47,0,0,1-1.39,0,1.5,1.5,0,0,0-.18-.58c.57,0,1.06.06,1.28.06a.46.46,0,0,0,.4-.15,1.44,1.44,0,0,0,.27-.65H23.07c0,.22-.08.43-.12.62l-.75,0c.17-.76.36-1.81.54-2.89H21.21v-.67h1.64c.12-.78.22-1.54.3-2.21H29s0,.26,0,.36c0,.69-.07,1.31-.11,1.85h1.4v.67Zm-5.35-3.79A8.83,8.83,0,0,1,22,144.47a2.68,2.68,0,0,0-.61-.45,7.53,7.53,0,0,0,2.14-3l.8.14c-.13.28-.27.57-.44.86h5.89v.68Zm-.06,3.79c-.09.58-.18,1.14-.27,1.66h2c.08-.48.16-1.06.23-1.66Zm.34-2.23c-.07.5-.15,1-.24,1.56h1.91c.06-.54.12-1.07.16-1.56ZM28,148.18c.06-.43.12-1,.17-1.66H26.08c-.07.6-.14,1.18-.22,1.66Zm.22-2.33c0-.47.06-1,.09-1.56H26.33c0,.49-.11,1-.17,1.56Z"/><path class="cls-3" d="M39.39,147.18a5.43,5.43,0,0,1-2.07,1.68,15,15,0,0,0,3.75.66,3.32,3.32,0,0,0-.42.68,13.31,13.31,0,0,1-4.18-1,17.83,17.83,0,0,1-4.35.95,2.48,2.48,0,0,0-.29-.62,16.49,16.49,0,0,0,3.87-.72,5.74,5.74,0,0,1-1.42-1.15,10.49,10.49,0,0,1-1.9.91,2.51,2.51,0,0,0-.45-.52,7.3,7.3,0,0,0,3-1.71H33.18V142.7h2.63c0-.19.1-.38.14-.57H32.21v-.62h8.43v.62H36.76c-.07.21-.14.39-.21.57h3.13v3.68H35.83a4.18,4.18,0,0,1-.51.53h3.47l.14,0Zm-5.49-3.42h5v-.58h-5Zm0,1.07h5v-.59h-5Zm0,1.08h5v-.6h-5Zm1,1.55a5,5,0,0,0,1.59,1.09,5.94,5.94,0,0,0,1.74-1.09Z"/><path class="cls-3" d="M44.74,150a16,16,0,0,0-2.21-2.23l.65-.57a18.68,18.68,0,0,1,2.24,2.22Z"/><path class="cls-3" d="M53.76,147.18a9.66,9.66,0,0,0,3.61,2.23,2.46,2.46,0,0,0-.52.64,10.6,10.6,0,0,1-3.72-2.59v2.72h-.75v-2.69A10.47,10.47,0,0,1,48.74,150a3,3,0,0,0-.52-.62,9.66,9.66,0,0,0,3.54-2.23H49.34v-3.64h3v-.84H48.47V142h3.91v-.94h.75V142h4v.7h-4v.84h3.21v3.64Zm-3.7-2.1h2.32v-.95H50.06Zm0,1.52h2.32v-1H50.06Zm3.07-2.47v.95h2.46v-.95Zm2.46,1.5H53.13v1h2.46Z"/><path class="cls-3" d="M61.53,147.59a8.55,8.55,0,0,1-2,2.22,6,6,0,0,0-.59-.44,6.37,6.37,0,0,0,1.81-2Zm6.27-4.67H59.14v-.71H63v-1.16h.77v1.16h4Zm-4,3.85v2.55c0,.43-.1.64-.44.75a7,7,0,0,1-1.78.11,3,3,0,0,0-.25-.69c.69,0,1.31,0,1.48,0s.23,0,.23-.18v-2.54h-2.7v-2.94h6.29v2.94Zm-2.72-.65h4.78v-1.64H61.1ZM66,147.36a17.64,17.64,0,0,1,1.9,2.15l-.72.37a15.38,15.38,0,0,0-1.85-2.2Z"/><path class="cls-3" d="M73.36,141.66c0,.18-.08.39-.12.58s-.14.87-.25,1.4c.46,0,.87-.06,1.11-.06.88,0,1.61.34,1.61,1.68a9.51,9.51,0,0,1-.58,3.57,1.39,1.39,0,0,1-1.45.83,5.9,5.9,0,0,1-1.16-.15l-.13-.84a4.87,4.87,0,0,0,1.21.22.83.83,0,0,0,.87-.51,8.51,8.51,0,0,0,.46-3c0-.9-.41-1.06-1-1.06-.24,0-.63,0-1.06.07a19.87,19.87,0,0,1-2.08,5.32l-.82-.33A15.49,15.49,0,0,0,72,144.43l-1.25.13-.89.12-.08-.87c.31,0,.57,0,.88,0s.91-.06,1.51-.11a11.58,11.58,0,0,0,.25-2.15Zm3.41,1a17.43,17.43,0,0,1,1.81,3.54l-.78.37A11.89,11.89,0,0,0,76,143Z"/><path class="cls-3" d="M81.48,146.17a4.68,4.68,0,0,1,3.2-1.19,2.25,2.25,0,0,1,2.53,2.07c0,1.78-1.57,3-5.25,2.67l-.24-.82c3.12.38,4.65-.52,4.65-1.87,0-.79-.73-1.34-1.74-1.34A3.85,3.85,0,0,0,81.57,147a2.05,2.05,0,0,0-.3.5l-.75-.18a34.86,34.86,0,0,0,.5-4l.85.11C81.74,144.09,81.57,145.53,81.48,146.17Zm.61-4.56a26.52,26.52,0,0,0,3.83.76l-.19.78c-.94-.13-3.09-.57-3.85-.78Z"/><path class="cls-3" d="M94.09,142.52H89.3v-.61h2v-.86h.72v.86h2Zm4.33,7.14h-3.2v.53h-.67v-5.63c-.15.25-.3.49-.45.71a4.59,4.59,0,0,0-.49-.41v.82H92l-.13.67h2v3.12c0,.32-.07.5-.31.6a3.69,3.69,0,0,1-1.22.1,2.27,2.27,0,0,0-.21-.58c.45,0,.84,0,.94,0s.16,0,.16-.14v-2.53H91.73c-.1.45-.2.9-.3,1.27l.91-.06a7.38,7.38,0,0,0-.31-.69l.43-.13A6.42,6.42,0,0,1,93.1,149l-.46.16a3.54,3.54,0,0,0-.12-.47l-2.09.16-.06-.54.51,0c.09-.37.19-.83.27-1.3h-1v3.26h-.62v-3.84h1.74c0-.23.07-.46.09-.67H89.78v-2.75h.55v2.22h2.73v-2.22h.56v1.82a11,11,0,0,0,1.59-3.69l.67.16A17.62,17.62,0,0,1,95.3,143h1.07a13.17,13.17,0,0,0,.57-1.79l.7.17c-.18.53-.4,1.14-.61,1.62h1.28v.68H97V145h1.2v.65H97V147h1.2v.65H97V149h1.4Zm-5.88-4.81a6.73,6.73,0,0,0-.74-.62,6.07,6.07,0,0,1-.9.86,3,3,0,0,0-.43-.34,4.71,4.71,0,0,0,.91-.82,8.58,8.58,0,0,0-.8-.49l.31-.34c.25.13.53.29.79.46a5,5,0,0,0,.44-.78l.52.13a5.71,5.71,0,0,1-.54.93,5.35,5.35,0,0,1,.76.62Zm3.84-1.22H95.22V145h1.16Zm0,2H95.22V147h1.16ZM95.22,149h1.16v-1.38H95.22Z"/><path class="cls-3" d="M109.3,148.62a2.53,2.53,0,0,1-1.82.83c-.65,0-1.1-.44-1.1-1.26,0-1.1.37-2.73.37-3.69a.7.7,0,0,0-.79-.81c-.8,0-2,.93-2.91,1.91,0,.42,0,.81,0,1.16,0,.9,0,1.5,0,2.39,0,.17,0,.42,0,.6h-.87c0-.14,0-.43,0-.59,0-.95,0-1.44,0-2.54,0-.1,0-.23,0-.38-.48.73-1.13,1.68-1.61,2.34l-.5-.69c.55-.69,1.69-2.23,2.19-3,0-.32,0-.64.06-1l-1.93.25-.08-.83a4.87,4.87,0,0,0,.65,0c.32,0,.9-.08,1.41-.16,0-.47,0-.82,0-.93a3.76,3.76,0,0,0,0-.74l.95,0c0,.24-.13.8-.2,1.49l0,0,.29.35-.44.69c0,.18,0,.37,0,.56a5.6,5.6,0,0,1,3-1.66,1.24,1.24,0,0,1,1.4,1.33c0,1-.37,2.7-.37,3.7,0,.34.16.6.51.6a2.18,2.18,0,0,0,1.49-.82Z"/><path class="cls-3" d="M111.56,142.73c.65-.06,2.52-.25,4.34-.4,1.08-.09,2-.14,2.67-.17v.8a8.28,8.28,0,0,0-1.94.16,3.45,3.45,0,0,0-2.26,3.12c0,1.94,1.8,2.55,3.41,2.61l-.29.83c-1.83-.07-3.92-1-3.92-3.26a4,4,0,0,1,1.84-3.34c-.87.1-3.57.36-4.64.58l-.09-.88C111.06,142.77,111.37,142.75,111.56,142.73Z"/><path class="cls-3" d="M125.46,143.58v2.15h3v4.43h-.79v-.49h-5.2v.53h-.75v-4.47h2.95v-2.15h-4v-.73h4v-1.8h.79v1.8h4.07v.73Zm2.21,2.86h-5.2V149h5.2Z"/><path class="cls-3" d="M136.88,146.6c.51,1.7,1.44,2.86,2.36,2.85.3,0,.41-.42.46-1.48a2,2,0,0,0,.66.35c-.12,1.47-.43,1.85-1.16,1.85-1.37,0-2.53-1.49-3.1-3.57h-3v2.45l3.14-.44,0,.72-4.79.72-.17-.77,1-.13v-7.57h7.06v3h-2.91a9.62,9.62,0,0,0,.19,1.35h3.45v.7Zm-3.77-4.34v1.59h5.56v-1.59Zm2.83,3.64a9.83,9.83,0,0,1-.18-1.35h-2.65v1.35Z"/><path class="cls-3" d="M29.78,159.1a16.1,16.1,0,0,1-2.07,1.41,5.33,5.33,0,0,0,2.57,2.25,3.17,3.17,0,0,0-.51.64c-1.89-.86-3-2.76-3.67-5.13h0a7,7,0,0,1-1,.7c1.91,1.65,1.93,4.22.95,4.9a1.5,1.5,0,0,1-1.06.33c-.24,0-.55,0-.87,0a1.74,1.74,0,0,0-.21-.71,8.92,8.92,0,0,0,.93,0,1,1,0,0,0,.69-.19,1.87,1.87,0,0,0,.33-1.85,14.06,14.06,0,0,1-4.12,2.24,3.41,3.41,0,0,0-.39-.62,11.41,11.41,0,0,0,4.29-2.27,3.61,3.61,0,0,0-.35-.64,14.15,14.15,0,0,1-3.19,1.67,3.1,3.1,0,0,0-.4-.58,11.09,11.09,0,0,0,3.25-1.54c-.14-.15-.29-.3-.46-.45a15.64,15.64,0,0,1-2.45.95,4.38,4.38,0,0,0-.41-.58,12,12,0,0,0,3.47-1.39H22.93v-.64h5.59v.64H26.76a9,9,0,0,0,.64,1.67,14.88,14.88,0,0,0,1.81-1.33Zm-7.4-1.19h-.73v-2h3.72v-.88h.74v.88h3.8v2h-.76v-1.28H22.38Z"/><path class="cls-3" d="M36.86,157.42a11.76,11.76,0,0,1-1.79.36A17.78,17.78,0,0,1,32.91,162l-.78-.4a14.2,14.2,0,0,0,2.12-3.7c-.29,0-.58,0-.87,0l-1.15,0-.06-.75a9.17,9.17,0,0,0,1.22.07c.35,0,.72,0,1.1,0a8.06,8.06,0,0,0,.31-1.71l.89.08c-.1.36-.23,1-.39,1.53a10,10,0,0,0,1.54-.36ZM38,158.57a9.38,9.38,0,0,0,0,1.07c0,.36,0,1,.07,1.61a6.68,6.68,0,0,1,2,1.24l-.43.68A6.88,6.88,0,0,0,38.11,162c0,.15,0,.29,0,.4,0,.79-.52,1.44-1.74,1.44s-2-.45-2-1.43.86-1.5,2-1.5a4.71,4.71,0,0,1,.94.09c0-.81-.08-1.78-.1-2.47Zm-.67,3.17a3.6,3.6,0,0,0-1-.14c-.73,0-1.21.33-1.21.78s.37.77,1.14.77,1.08-.45,1.08-.94C37.36,162.08,37.36,161.92,37.35,161.74Zm2.64-2.9a11.87,11.87,0,0,0-2.26-1.36l.39-.62a15,15,0,0,1,2.32,1.32Z"/><path class="cls-3" d="M48.7,157.73c-.22.14-.46.27-.75.42a29.42,29.42,0,0,0-2.74,1.5c-.92.61-1.47,1.25-1.47,2s.78,1.33,2.34,1.33a14.62,14.62,0,0,0,3.17-.34v.9a19.36,19.36,0,0,1-3.13.24c-1.85,0-3.21-.56-3.21-2a3.25,3.25,0,0,1,1.71-2.58c-.45-.81-1-2-1.43-3l.79-.33a20.91,20.91,0,0,0,1.32,2.93c.87-.53,1.77-1,2.31-1.26a4.72,4.72,0,0,0,.7-.47Zm.2-2.06a14.35,14.35,0,0,1,.82,1.38l-.54.24a10.25,10.25,0,0,0-.82-1.39Zm1.1-.4a12.49,12.49,0,0,1,.84,1.36l-.54.25a8.26,8.26,0,0,0-.83-1.38Z"/><path class="cls-3" d="M52.37,156.79l4.34-.4c1.08-.09,2-.14,2.67-.17v.8a8.17,8.17,0,0,0-1.94.16,3.46,3.46,0,0,0-2.26,3.13c0,1.93,1.8,2.54,3.41,2.6l-.29.84c-1.83-.08-3.92-1.06-3.92-3.27a4,4,0,0,1,1.84-3.34c-.87.1-3.57.36-4.64.58l-.09-.88C51.87,156.83,52.18,156.81,52.37,156.79Zm6.43,2.83-.51.24a9.26,9.26,0,0,0-.82-1.41l.51-.22A12,12,0,0,1,58.8,159.62Zm1.14-.43-.52.24a8.83,8.83,0,0,0-.85-1.39l.5-.23A14.83,14.83,0,0,1,59.94,159.19Z"/><path class="cls-3" d="M65.94,155.08a10.77,10.77,0,0,0,4.36,3.42,4,4,0,0,0-.48.66,12.26,12.26,0,0,1-4.22-3.37,11.44,11.44,0,0,1-4.13,3.41,2.32,2.32,0,0,0-.43-.59,10.5,10.5,0,0,0,4.14-3.53Zm-4.38,5h8.21v.69H65.09c-.35.74-.78,1.6-1.18,2.3l4-.15a15.43,15.43,0,0,0-1.32-1.35l.63-.34a13.27,13.27,0,0,1,2.35,2.61l-.67.41a6.26,6.26,0,0,0-.46-.67c-2.45.12-5,.23-6.75.29l-.1-.73,1.47,0a18.87,18.87,0,0,0,1.08-2.33H61.56Zm6.43-1.9v.68H63.26v-.68Z"/><path class="cls-3" d="M75.18,161.31c-.26-.29-.81-.85-1.26-1.27v4.14h-.73v-3.87a9.9,9.9,0,0,1-1.53,1.24,3.44,3.44,0,0,0-.39-.67,8.66,8.66,0,0,0,3.13-3.28H71.62v-.68h1.57v-1.86h.73v1.86h.87l.13,0,.42.28A9.27,9.27,0,0,1,74,159.35c.46.37,1.34,1.14,1.59,1.36Zm5.51,1.86v.73h-5.6v-.73h2.53V159H75.48v-.72h2.14v-3.17h.74v3.17h2.13V159H78.35v4.15Z"/><path class="cls-3" d="M83.52,156.25c.08.16.25.48.35.65.17.33.37.73.57,1.14A10,10,0,0,1,88,157c1.37,0,2.21.79,2.21,1.87s-.73,2-2.28,2a4.44,4.44,0,0,1-1.48-.28l0-.8a3.27,3.27,0,0,0,1.4.33c1.09,0,1.53-.59,1.53-1.29s-.46-1.13-1.44-1.13a8.94,8.94,0,0,0-3.22,1c.13.27.26.55.38.82.54,1.22,1.16,3.07,1.5,4.16l-.86.23a29.1,29.1,0,0,0-1.35-4.06c-.12-.28-.25-.56-.37-.82-.76.37-1.45.73-1.9.93l-.39-.82c.29-.08.64-.2.82-.27.33-.13.73-.31,1.16-.5a10.51,10.51,0,0,0-.56-1.09,6.23,6.23,0,0,0-.48-.7Zm3,.71a11.73,11.73,0,0,0-1.29-1.15l.58-.42a12,12,0,0,1,1.29,1.12Z"/><path class="cls-3" d="M99.69,156.41v7.74h-.77v-.51H93.59v.56h-.74v-7.79h2.51a12.79,12.79,0,0,0,.39-1.37l.85.11c-.15.43-.33.88-.5,1.26Zm-6.1.71v1.49h5.33v-1.49Zm0,2.19v1.45h5.33v-1.45Zm5.33,3.63v-1.48H93.59v1.48Z"/><path class="cls-3" d="M105.62,155.49a10.3,10.3,0,0,1-3.14,4.11,4.94,4.94,0,0,0-.63-.58,8.4,8.4,0,0,0,3-3.75Zm4.06,3.33s0,.26,0,.36c-.14,3.07-.29,4.22-.63,4.6a1,1,0,0,1-.77.35,14.15,14.15,0,0,1-1.57,0,1.82,1.82,0,0,0-.25-.74c.65.06,1.27.07,1.5.07s.33,0,.42-.13c.26-.25.4-1.25.52-3.77H106.3c-.26,2-.9,3.78-3.44,4.7a3,3,0,0,0-.48-.65,4.31,4.31,0,0,0,3.13-4h-2v-.72Zm-1.39-3.57a10.59,10.59,0,0,0,3,3.6,3.76,3.76,0,0,0-.61.66,13.21,13.21,0,0,1-3.1-4Z"/><path class="cls-3" d="M117.71,157.53a19.19,19.19,0,0,1-2,.34c-.09.43-.2.89-.31,1.31a29.41,29.41,0,0,1-1.55,4.54l-.88-.29a22.06,22.06,0,0,0,1.66-4.43c.09-.33.17-.69.25-1l-.9,0c-.44,0-.8,0-1.15,0l0-.78a8.73,8.73,0,0,0,1.19.07c.33,0,.68,0,1.06,0,.07-.36.12-.67.15-.87a4.75,4.75,0,0,0,0-.82l1,.08c-.07.22-.14.59-.18.79l-.15.73a14.32,14.32,0,0,0,1.89-.36Zm-.39,3.47a3.54,3.54,0,0,0-.14.89c0,.47.22.92,1.63.92a11,11,0,0,0,1.93-.19l0,.81a14.63,14.63,0,0,1-1.91.13c-1.56,0-2.38-.48-2.38-1.46a5.51,5.51,0,0,1,.15-1.17Zm-.25-2.41c.52,0,1.17-.08,1.81-.08a15.64,15.64,0,0,1,1.71.08l0,.76a14.12,14.12,0,0,0-1.67-.12,16,16,0,0,0-1.83.11Z"/><path class="cls-3" d="M129.32,157.31a31.9,31.9,0,0,1-4,.42,20.26,20.26,0,0,1-.62,2.34,4.41,4.41,0,0,1,2.77-.86c1.58,0,2.5.81,2.5,2,0,2.06-2.1,2.84-5.1,2.51l-.22-.79c2.28.32,4.5-.08,4.5-1.7,0-.74-.6-1.3-1.76-1.3a3.72,3.72,0,0,0-2.92,1.18,2.08,2.08,0,0,0-.31.46l-.74-.27a16.36,16.36,0,0,0,1.15-3.52h0c-.67,0-1.31,0-1.88-.09v-.79a12.16,12.16,0,0,0,1.88.17h.16c0-.26.08-.48.1-.65a3.92,3.92,0,0,0,.05-.82l.89,0c-.07.26-.13.57-.18.83s-.06.35-.11.57a23.41,23.41,0,0,0,3.86-.48Z"/><path class="cls-3" d="M135.81,162.93a6.33,6.33,0,0,0,.85-.12,3,3,0,0,0,2.51-2.93,2.74,2.74,0,0,0-2.63-2.87,20.84,20.84,0,0,1-.59,2.85c-.61,2-1.4,3.08-2.32,3.08s-1.77-1-1.77-2.65a4.23,4.23,0,0,1,4.34-4,3.59,3.59,0,0,1,3.8,3.64c0,2.08-1.37,3.47-3.73,3.78Zm-.65-3.24a16,16,0,0,0,.55-2.67,3.45,3.45,0,0,0-3.06,3.2c0,1.25.58,1.8,1,1.8S134.65,161.36,135.16,159.69Z"/><path class="cls-3" d="M29.77,173.87A10.06,10.06,0,0,0,33.59,177a3.33,3.33,0,0,0-.54.63,11.08,11.08,0,0,1-3.71-3.23v3.78h-.77v-3.74a10.94,10.94,0,0,1-3.68,3.18,3.92,3.92,0,0,0-.54-.61,10,10,0,0,0,3.8-3.15H24.62v-.73h3.95v-1.72H25.34v-.73h3.23v-1.63h.77v1.63h3.33v.73H29.34v1.72h4v.73Z"/><path class="cls-3" d="M40.21,174.17a10,10,0,0,0,3.74,3,3.49,3.49,0,0,0-.52.63,11.18,11.18,0,0,1-3.73-3.23v3.62h-.77v-3.6a11,11,0,0,1-3.7,3.17,4.27,4.27,0,0,0-.52-.61,10,10,0,0,0,3.72-3H34.92v-.71h4V171H35.39v-.71h3.54v-1.2h.77v1.2h3.62V171H39.7v2.49h4v.71Zm-3.36-3a7.19,7.19,0,0,1,1,1.87l-.7.27a7.31,7.31,0,0,0-.9-1.89Zm4,1.95a14.35,14.35,0,0,0,1-2l.76.24a16.46,16.46,0,0,1-1.15,2Z"/><path class="cls-3" d="M49.7,176.07c0-.38,0-1,0-1.54-.92.5-1.56,1-1.56,1.66s.77.89,1.79.89a17.36,17.36,0,0,0,2.7-.24l0,.81a25.27,25.27,0,0,1-2.71.16c-1.42,0-2.56-.3-2.56-1.51s1.18-1.91,2.33-2.51a.84.84,0,0,0-.89-.61,2.63,2.63,0,0,0-1.71.73c-.28.27-.56.64-.9,1l-.68-.51a10.45,10.45,0,0,0,2.28-3H47.4c-.42,0-1.09,0-1.63-.06v-.75c.53.06,1.22.1,1.67.1h.65a5.4,5.4,0,0,0,.25-1.23l.82.07c-.07.28-.16.69-.3,1.14a26.46,26.46,0,0,0,3-.3v.74a30.48,30.48,0,0,1-3.28.28,7.12,7.12,0,0,1-.89,1.52,2.8,2.8,0,0,1,1.37-.37,1.24,1.24,0,0,1,1.31.9c.68-.32,1.28-.56,1.8-.8.3-.13.54-.25.82-.39l.32.75c-.25.07-.61.21-.87.31-.56.22-1.27.51-2,.86,0,.57,0,1.41,0,1.89Z"/><path class="cls-3" d="M62.63,177.4c.4,0,.48-.18.52-1.41a2,2,0,0,0,.69.3c-.09,1.45-.31,1.81-1.15,1.81H61.08c-.94,0-1.19-.22-1.19-1v-2H58.25c-.24,1.6-.88,2.6-3.15,3.12a2.05,2.05,0,0,0-.42-.65c2-.41,2.58-1.19,2.79-2.47H56.12v-5.67h6.29v5.67H60.64v2c0,.29.08.34.51.34Zm-5.79-6.31h4.82v-1H56.84Zm0,1.65h4.82v-1H56.84Zm0,1.67h4.82v-1H56.84Z"/><path class="cls-3" d="M66.16,171.91a16,16,0,0,1,4.23-1,2.65,2.65,0,0,1,2.95,2.61c0,2.38-2.36,3.53-5.42,3.7l-.35-.83c2.59-.07,4.89-.85,4.89-2.88a1.86,1.86,0,0,0-2.09-1.85,16.41,16.41,0,0,0-4.93,1.4l-.37-.88C65.43,172.13,65.79,172,66.16,171.91Z"/><path class="cls-3" d="M81.12,169.71c-.06.24-.12.58-.17.77s-.1.44-.16.67a3.11,3.11,0,0,1,2.68,3.19c0,2-1.41,3.18-3.53,3.47l-.48-.71c2.06-.18,3.21-1.27,3.21-2.79a2.4,2.4,0,0,0-2.06-2.47,12.88,12.88,0,0,1-1.45,3.37,5.77,5.77,0,0,0,.61.69l-.62.51c-.16-.18-.32-.36-.47-.56a2.67,2.67,0,0,1-2,1.23c-.75,0-1.39-.63-1.39-1.8a4.16,4.16,0,0,1,1.53-3.06c-.11-.31-.21-.62-.3-.91a7.66,7.66,0,0,0-.32-.89l.83-.26c0,.27.13.6.2.87s.14.48.23.76a5,5,0,0,1,2.54-.7c.06-.24.11-.48.15-.71a3.69,3.69,0,0,0,.06-.75Zm-2.88,5.51-.24-.38a12.47,12.47,0,0,1-.88-1.9,3.37,3.37,0,0,0-1.06,2.29c0,.66.29,1.06.74,1.06S77.8,175.8,78.24,175.22Zm.46-.68a12.61,12.61,0,0,0,1.15-2.75,4.25,4.25,0,0,0-2.11.68,11.19,11.19,0,0,0,.76,1.74Z"/><path class="cls-3" d="M90.37,171.42a11.76,11.76,0,0,1-1.79.36A17.78,17.78,0,0,1,86.42,176l-.78-.4a14.2,14.2,0,0,0,2.12-3.7c-.29,0-.58,0-.87,0l-1.15,0-.06-.75a9.17,9.17,0,0,0,1.22.07c.35,0,.72,0,1.1,0a8.06,8.06,0,0,0,.31-1.71l.89.08c-.1.36-.23,1-.39,1.53a10,10,0,0,0,1.54-.36Zm1.16,1.15a9.38,9.38,0,0,0,0,1.07c0,.36,0,1,.07,1.61a6.68,6.68,0,0,1,2,1.24l-.43.68A6.88,6.88,0,0,0,91.62,176c0,.15,0,.29,0,.4,0,.79-.52,1.44-1.74,1.44s-2-.45-2-1.43.86-1.5,2-1.5a4.71,4.71,0,0,1,.94.09c0-.81-.08-1.78-.1-2.47Zm-.67,3.17a3.6,3.6,0,0,0-1-.14c-.73,0-1.21.33-1.21.78s.37.77,1.14.77,1.08-.45,1.08-.94C90.87,176.08,90.87,175.92,90.86,175.74Zm2.64-2.9a11.87,11.87,0,0,0-2.26-1.36l.39-.62a15,15,0,0,1,2.32,1.32Z"/><path class="cls-3" d="M98.59,173.61a7.33,7.33,0,0,1,2.17-.36c1.44,0,2.48.79,2.48,2s-.75,2-2.11,2.29a6.36,6.36,0,0,1-1.22.13l-.28-.79a5.68,5.68,0,0,0,1.16-.07c.87-.16,1.66-.63,1.66-1.55s-.76-1.29-1.7-1.29a6.37,6.37,0,0,0-2.15.39c0,.84,0,1.71,0,2.14,0,.92-.35,1.21-.88,1.21-.78,0-2.07-.75-2.07-1.64s1-1.67,2.17-2.16v-.56c0-.4,0-.86,0-1.3l-.73,0a12.36,12.36,0,0,1-1.26,0l0-.76a8.94,8.94,0,0,0,1.26.08l.76,0c0-.52,0-.95,0-1.13a3.88,3.88,0,0,0-.06-.7h.87c0,.18,0,.45,0,.68s0,.63,0,1.07a13,13,0,0,0,2-.4v.79a20.16,20.16,0,0,1-2.06.34c0,.47,0,.94,0,1.34Zm-.69,2.76c0-.36,0-1,0-1.75-.8.38-1.39.94-1.39,1.39s.68.84,1.07.84C97.78,176.85,97.9,176.68,97.9,176.37Zm3.9-5.82a16.73,16.73,0,0,1,2.26,1.45l-.4.64a12.77,12.77,0,0,0-2.22-1.48Z"/><path class="cls-3" d="M107.4,169.66c0,.32-.08.67-.1,1,0,1.12-.12,3.46-.12,4.94,0,1.09.7,1.47,1.62,1.47a4.13,4.13,0,0,0,3.56-2l.55.69a4.93,4.93,0,0,1-4.13,2.18c-1.42,0-2.4-.6-2.4-2.21s.1-4,.1-5a5,5,0,0,0-.09-1Z"/><path class="cls-3" d="M121.45,177.3a7.35,7.35,0,0,0-2.39-1.49c0,.25,0,.47,0,.62,0,.68-.46,1.39-1.75,1.39s-2.21-.51-2.21-1.47.87-1.51,2.3-1.51a5.57,5.57,0,0,1,.83.06c0-.44,0-.91,0-1.32h-.55c-.68,0-1.78-.06-2.49-.14v-.76a17.58,17.58,0,0,0,2.49.19h.53v-1.42h-.49c-.69,0-1.74-.08-2.33-.15v-.74a15.72,15.72,0,0,0,2.32.19h.51v-.65a5.4,5.4,0,0,0,0-.59H119a5.17,5.17,0,0,0,0,.66c0,.12,0,.31,0,.55a22.07,22.07,0,0,0,2.54-.24v.73c-.78.08-1.63.16-2.56.21v1.42a26.73,26.73,0,0,0,2.75-.26v.75c-.93.12-1.81.19-2.75.23,0,.51,0,1,.07,1.5a8.11,8.11,0,0,1,2.88,1.54Zm-3.17-1.71a5.07,5.07,0,0,0-1-.09c-.94,0-1.45.36-1.45.81s.39.8,1.37.8c.57,0,1-.17,1-.85C118.29,176.09,118.28,175.86,118.28,175.59Z"/><path class="cls-3" d="M128.79,171.5c0,.56,0,1.17,0,1.62a2.42,2.42,0,0,1,.32,1.27c0,1.34-.65,2.83-2.95,3.52l-.69-.67a3.54,3.54,0,0,0,2.63-1.72,1.42,1.42,0,0,1-.85.25,1.59,1.59,0,0,1-1.64-1.66,1.74,1.74,0,0,1,1.75-1.73,2,2,0,0,1,.66.11c0-.29,0-.64,0-1-1.5,0-3.18.08-4.42.17l0-.78c1.1,0,3-.08,4.43-.1,0-.28,0-.51,0-.65s0-.5-.06-.62h.91l0,.62c0,.15,0,.38,0,.64h3v.75c-.56,0-1.46,0-2.91,0Zm-.53,2.17a.88.88,0,0,0-.88-.61,1,1,0,0,0-1,1,1,1,0,0,0,1,1C128,175.08,128.35,174.61,128.26,173.67Z"/><path class="cls-3" d="M136.11,176.5a1.52,1.52,0,1,1-1.53-1.52A1.53,1.53,0,0,1,136.11,176.5Zm-.52,0a1,1,0,0,0-1-1,1,1,0,0,0,0,2A1,1,0,0,0,135.59,176.5Z"/><path class="cls-3" d="M43,187.17a3.28,3.28,0,0,1,1,2.29c0,1.47-1.33,2.37-3.28,2.37-1.35,0-2.44-.59-2.44-2.21,0-.27,0-.67.08-1.14a9.59,9.59,0,0,1-2.06-.36l0-.76a8.14,8.14,0,0,0,2.09.4c.07-.58.15-1.2.22-1.78a13.49,13.49,0,0,1-2.11-.34l0-.74a9,9,0,0,0,2.16.36c0-.4.09-.76.11-1a4,4,0,0,0,0-.69l.9,0a5.48,5.48,0,0,0-.13.69c0,.25-.08.6-.13,1a15,15,0,0,0,2-.12l0,.75a19.93,19.93,0,0,1-2,.1h-.07c-.08.58-.15,1.2-.22,1.77h.19a16,16,0,0,0,2.06-.12l0,.76a17.79,17.79,0,0,1-1.94.09h-.36c0,.39-.06.74-.06,1,0,.94.54,1.54,1.67,1.54,1.5,0,2.46-.64,2.46-1.67a2.72,2.72,0,0,0-1.09-2Z"/><path class="cls-3" d="M52.65,185.31a31.9,31.9,0,0,1-4,.42,20.26,20.26,0,0,1-.62,2.34,4.41,4.41,0,0,1,2.77-.86c1.58,0,2.5.81,2.5,2,0,2.06-2.1,2.84-5.1,2.51L48,190.9c2.28.32,4.5-.08,4.5-1.7,0-.74-.6-1.3-1.76-1.3a3.72,3.72,0,0,0-2.92,1.18,2.08,2.08,0,0,0-.31.46l-.74-.27a16.36,16.36,0,0,0,1.15-3.52h0c-.67,0-1.31,0-1.88-.09v-.79a12.16,12.16,0,0,0,1.88.17H48c0-.26.08-.48.1-.65a3.92,3.92,0,0,0,.05-.82l.89,0c-.07.26-.13.57-.18.83s-.06.35-.11.57a23.41,23.41,0,0,0,3.86-.48Z"/><path class="cls-3" d="M57,184.16c.52,0,2.59,0,3.22-.09a2.43,2.43,0,0,0,.55-.09l.47.59a3.64,3.64,0,0,0-.43.28c-.74.57-1.93,1.52-2.66,2.16a3.84,3.84,0,0,1,1.49-.28c1.6,0,2.77.93,2.77,2.29,0,1.93-1.92,3-5,2.75l-.24-.81c2.55.31,4.37-.44,4.37-1.95,0-.94-.82-1.6-2.09-1.6-1.8,0-2.81,1-3.86,2.11l-.58-.62c1.38-1.29,3.88-3.38,4.73-4.14l-2.74.13-.68.07,0-.83A6.06,6.06,0,0,0,57,184.16Z"/><path class="cls-3" d="M68.49,184.38c-.44.68-1.4,2.43-1.91,3.39a2.15,2.15,0,0,1,1.45-.6,1.13,1.13,0,0,1,1.17,1.21c0,.59,0,1.35,0,1.83a.71.71,0,0,0,.79.7c1.1,0,1.75-1.36,2-2.41l.66.53c-.52,1.6-1.36,2.71-2.8,2.71a1.28,1.28,0,0,1-1.43-1.26c0-.58,0-1.35,0-1.88a.65.65,0,0,0-.72-.69c-.8,0-1.53.8-1.92,1.58a15.56,15.56,0,0,0-.85,2.25l-.87-.29a71.62,71.62,0,0,1,3.5-7.14c.11-.24.24-.48.36-.77l.89.36A4,4,0,0,0,68.49,184.38Z"/><path class="cls-3" d="M74.86,191.1a1.09,1.09,0,0,0,.1-.49v-5.72a7.85,7.85,0,0,0-.08-.91h1a6.59,6.59,0,0,0-.07.91v5.67a10.78,10.78,0,0,0,5.47-3.41l.45.7a11.63,11.63,0,0,1-5.85,3.57,1.44,1.44,0,0,0-.42.18Z"/><path class="cls-3" d="M86,187.41l-.46.7a22.36,22.36,0,0,0-2.19-1.37l.45-.68C84.41,186.38,85.58,187.1,86,187.41Zm1.16,2.39A10.21,10.21,0,0,0,91,186.13l.48.83a11.76,11.76,0,0,1-3.85,3.57,11.91,11.91,0,0,1-3.31,1.24l-.46-.81A10.85,10.85,0,0,0,87.17,189.8Zm.32-4.58-.47.69c-.48-.37-1.57-1.09-2.15-1.43l.45-.67C85.92,184.14,87.07,184.91,87.5,185.22Zm3,.29-.57.26a10,10,0,0,0-.91-1.57l.55-.24A14.89,14.89,0,0,1,90.52,185.51Zm1.34-.5-.57.26a11.83,11.83,0,0,0-1-1.55l.56-.24A14.45,14.45,0,0,1,91.86,185Z"/><path class="cls-3" d="M100.3,186.67a13.83,13.83,0,0,1-2.13,2.92l-.71-.35a9.47,9.47,0,0,0,1.72-2.06l-3,.6c.4,1.44.89,3.21,1,3.64l.22.68-.85.22a5.15,5.15,0,0,0-.15-.72c-.13-.45-.61-2.23-1-3.66l-2,.41-.2-.76c.28,0,.53-.06.83-.11l1.22-.22c-.15-.53-.27-1-.33-1.15a3.05,3.05,0,0,0-.23-.6l.85-.21c0,.17.08.39.14.64l.32,1.18c1.42-.27,3.12-.6,3.46-.68a2,2,0,0,0,.38-.12Z"/><path class="cls-3" d="M102,187.09c.3,0,.83,0,1.39,0h5.48c.5,0,.86,0,1.08,0v1c-.2,0-.62,0-1.07,0h-5.49c-.55,0-1.08,0-1.39,0Z"/><path class="cls-3" d="M118.88,187.17a3.28,3.28,0,0,1,1,2.29c0,1.47-1.33,2.37-3.28,2.37-1.35,0-2.44-.59-2.44-2.21,0-.27,0-.67.08-1.14a9.59,9.59,0,0,1-2.06-.36l0-.76a8.14,8.14,0,0,0,2.09.4c.07-.58.15-1.2.22-1.78a13.49,13.49,0,0,1-2.11-.34l0-.74a9,9,0,0,0,2.16.36c0-.4.09-.76.11-1a4,4,0,0,0,0-.69l.9,0a5.48,5.48,0,0,0-.13.69c0,.25-.08.6-.13,1a15,15,0,0,0,2-.12l0,.75a19.93,19.93,0,0,1-2,.1h-.07c-.08.58-.15,1.2-.22,1.77h.19a16,16,0,0,0,2.06-.12l0,.76a17.79,17.79,0,0,1-1.94.09H115c0,.39-.06.74-.06,1,0,.94.54,1.54,1.67,1.54,1.5,0,2.46-.64,2.46-1.67a2.72,2.72,0,0,0-1.09-2Z"/><path class="cls-3" d="M122.78,190.68a.8.8,0,1,1,.8.79A.77.77,0,0,1,122.78,190.68Zm.23-5.56,0-1.18h1.2l0,1.18-.25,3.88h-.66Z"/><path class="cls-3" d="M69.66,29.91A7,7,0,0,1,67.3,32,26.76,26.76,0,0,0,72,32.6a7.47,7.47,0,0,0-.94,1.49,19.69,19.69,0,0,1-5.77-1.15,26,26,0,0,1-5.94,1.15,5.23,5.23,0,0,0-.62-1.33,26,26,0,0,0,4.85-.69,8.91,8.91,0,0,1-1.42-1.18,17.44,17.44,0,0,1-2.33,1,4.37,4.37,0,0,0-1-1.16,9.73,9.73,0,0,0,3.94-1.88H60.61V23.44h3.61c0-.18.07-.36.1-.55H59.38V21.55h12V22.9H66.13a5,5,0,0,1-.2.55h4.23v5.38H64.82c-.15.18-.31.35-.48.52h4l.29-.07Zm-7.45-5h6.28v-.55H62.21Zm0,1.48h6.28v-.56H62.21Zm0,1.49h6.28v-.56H62.21Zm1.5,2.58a6.78,6.78,0,0,0,1.72,1,6.94,6.94,0,0,0,1.71-1Z"/><path class="cls-3" d="M81.5,21a14.07,14.07,0,0,0,6,4.82,8.13,8.13,0,0,0-1.08,1.5A16.8,16.8,0,0,1,84.27,26v1h-7V26a19.46,19.46,0,0,1-2.17,1.37A6.8,6.8,0,0,0,74.08,26a14.84,14.84,0,0,0,5.7-5Zm-5.13,7.34h8.88V34.1H83.54v-.52H78v.52H76.37Zm7.21-2.86a15.32,15.32,0,0,1-2.87-2.84,14.28,14.28,0,0,1-2.79,2.84ZM78,29.83v2.28h5.53V29.83Z"/><path class="cls-3" d="M94.31,24.48a16.15,16.15,0,0,1-1.2,2.13v7.48H91.53v-5.5a10.19,10.19,0,0,1-1.16,1.08,10.72,10.72,0,0,0-1-1.57,10.76,10.76,0,0,0,3.33-4.15Zm-2.49.29H90.19V22.1h5.1V21H97V22.1h5.16v2.48h-1.71v-1H91.81ZM99,26.32l-.38,1h3.1V34.1h-1.65v-.48H96.25v.49H94.67V27.35h2.27c.07-.34.15-.69.22-1h-3V24.86h8.07v1.46Zm1.06,2.44H96.25v1h3.84Zm0,3.46V31.11H96.25v1.11Z"/></g></g></svg>