<svg xmlns="http://www.w3.org/2000/svg" viewBox="0 0 163.5 207.5"><defs><style>.cls-1,.cls-3{fill:none;}.cls-1{stroke:#4c4b4c;stroke-miterlimit:10;stroke-dasharray:4 4;}.cls-2{fill:#221714;}.cls-3{stroke:#221714;stroke-linecap:round;stroke-linejoin:round;stroke-width:0.71px;}</style></defs><title>アセット 16</title><g id="レイヤー_2" data-name="レイヤー 2"><g id="レイヤー_14" data-name="レイヤー 14"><rect class="cls-1" x="0.5" y="0.5" width="162.5" height="206.5"/><path class="cls-2" d="M26.45,142.22a8.56,8.56,0,0,0,4.15,7.87,3.51,3.51,0,0,0-.6.62,8.62,8.62,0,0,1-4-5.57,8.84,8.84,0,0,1-4,5.58,4.86,4.86,0,0,0-.67-.59c2.21-1.15,3.44-3.16,4-6l.44.07c-.07-.46-.11-.9-.13-1.28H23.28v-.74Z"/><path class="cls-2" d="M35.51,147.87c-.26-.29-.81-.85-1.26-1.27v4.14h-.73v-3.87A9.9,9.9,0,0,1,32,148.11a3.44,3.44,0,0,0-.39-.67,8.66,8.66,0,0,0,3.13-3.28H32v-.68h1.57v-1.86h.73v1.86h.87l.13,0,.42.28a9.27,9.27,0,0,1-1.29,2.18c.46.37,1.34,1.14,1.59,1.36ZM41,149.73v.73h-5.6v-.73h2.53v-4.15H35.81v-.72h2.14v-3.17h.74v3.17h2.13v.72H38.69v4.15Z"/><path class="cls-2" d="M48.25,144.2c.25,3.36,1,5.79,2,5.79.27,0,.39-.55.45-1.88a2.08,2.08,0,0,0,.66.41c-.13,1.73-.41,2.24-1.17,2.24-1.62,0-2.45-2.87-2.72-6.56H42.34v-.73h5.11c0-.59,0-1.2-.05-1.81h.78c0,.62,0,1.22,0,1.81h3v.73Zm-3.06,4.94,2.14-.45.06.66c-1.69.4-3.52.82-4.79,1.1l-.23-.73,2.09-.42v-2.9H42.69v-.72h4.38v.72H45.19Zm5-5.79a8.63,8.63,0,0,0-1.42-1.25l.5-.41a8.67,8.67,0,0,1,1.44,1.19Z"/><path class="cls-2" d="M59.74,145.73a3.28,3.28,0,0,1,1,2.29c0,1.47-1.33,2.37-3.28,2.37-1.35,0-2.44-.59-2.44-2.21,0-.27,0-.67.08-1.14a9.59,9.59,0,0,1-2.06-.36l0-.76a8.14,8.14,0,0,0,2.09.4c.07-.58.15-1.2.22-1.78a13.49,13.49,0,0,1-2.11-.34l0-.74a9,9,0,0,0,2.16.36c0-.4.09-.76.11-1a4,4,0,0,0,0-.69l.9,0a5.48,5.48,0,0,0-.13.69c0,.25-.08.6-.13,1a15,15,0,0,0,2-.12l0,.75a19.93,19.93,0,0,1-2,.1h-.07c-.08.58-.15,1.2-.22,1.77h.19a16,16,0,0,0,2.06-.12l0,.76a17.79,17.79,0,0,1-1.94.09h-.36c0,.39-.06.74-.06,1,0,.94.54,1.54,1.67,1.54,1.5,0,2.46-.64,2.46-1.67a2.72,2.72,0,0,0-1.09-2Z"/><path class="cls-2" d="M68.74,148.14a8.33,8.33,0,0,0,2.83,1.79,2.54,2.54,0,0,0-.49.6,8.84,8.84,0,0,1-2.76-2v2.2H67.6v-2.61H66.23v2.61h-.72v-2.09a8.17,8.17,0,0,1-2.63,1.91,2.4,2.4,0,0,0-.49-.57,7.47,7.47,0,0,0,2.72-1.86H63.33v-.6h2.19v-.95H62.58v-.64h2.94v-.85h-2.1v-.6h2.1v-.88H62.74V143H65a7.44,7.44,0,0,0-1-1.09l.66-.3a6.74,6.74,0,0,1,1.11,1.2l-.39.19h2.74a8.3,8.3,0,0,0,1-1.38l.79.25a12.94,12.94,0,0,1-.9,1.13h2.16v.64H68.32v.88H70.4v1.45h1v.64h-1v1.55Zm-2.51-3.64H67.6v-.88H66.23Zm0,1.45H67.6v-.85H66.23Zm1.37,1.59v-.95H66.23v.95Zm.72-2.44v.85h1.36v-.85Zm1.36,1.49H68.32v.95h1.36Z"/><path class="cls-2" d="M76.45,143.92l-.44.69c0,.16,0,.32,0,.49a5.54,5.54,0,0,1,3.15-1.63c1.34,0,2,1.2,2,2.84A9.06,9.06,0,0,1,81,148a7.22,7.22,0,0,1,1.1,1l-.42.65a7.86,7.86,0,0,0-.88-.86A1.89,1.89,0,0,1,78.92,150c-.95,0-1.75-.41-1.75-1.41,0-.79.71-1.37,1.72-1.37a3.53,3.53,0,0,1,1.44.3,9.92,9.92,0,0,0,.08-1.39c0-1.24-.61-2-1.43-2s-2.2.95-3.07,1.88c0,.45,0,.89,0,1.27,0,.9,0,1.5,0,2.39,0,.17,0,.42,0,.6h-.87c0-.14,0-.43,0-.59,0-.95,0-1.44,0-2.54,0-.1,0-.23,0-.38-.48.73-1.13,1.68-1.61,2.34l-.5-.69c.55-.69,1.69-2.23,2.19-3,0-.32,0-.64.06-1l-1.93.25-.08-.82c.22,0,.41,0,.65,0s.9-.08,1.41-.17c0-.46,0-.82,0-.93a3.76,3.76,0,0,0,0-.74l.95,0c0,.24-.13.8-.2,1.49l0,0Zm3.72,4.35a2.85,2.85,0,0,0-1.35-.36c-.51,0-1,.29-1,.69s.45.73,1,.73A1.32,1.32,0,0,0,80.17,148.27Z"/><path class="cls-2" d="M84.16,143.29c.65-.06,2.52-.25,4.34-.4,1.08-.09,2-.14,2.67-.17v.8a8.28,8.28,0,0,0-1.94.16A3.45,3.45,0,0,0,87,146.8c0,1.94,1.8,2.55,3.41,2.61l-.29.83c-1.83-.07-3.92-1-3.92-3.26A4,4,0,0,1,88,143.64c-.87.1-3.57.36-4.64.58l-.09-.88C83.66,143.33,84,143.31,84.16,143.29Z"/><path class="cls-2" d="M100.35,147.74a5.43,5.43,0,0,1-2.07,1.68,15,15,0,0,0,3.75.66,3.32,3.32,0,0,0-.42.68,13.31,13.31,0,0,1-4.18-1,17.83,17.83,0,0,1-4.35.95,2.48,2.48,0,0,0-.29-.62,16.49,16.49,0,0,0,3.87-.72,5.74,5.74,0,0,1-1.42-1.15,10.49,10.49,0,0,1-1.9.91,2.51,2.51,0,0,0-.45-.52,7.3,7.3,0,0,0,3-1.71H94.14v-3.68h2.63c0-.19.1-.38.14-.57H93.17v-.62h8.43v.62H97.72c-.07.21-.14.39-.21.57h3.13v3.68H96.79a4.18,4.18,0,0,1-.51.53h3.47l.14,0Zm-5.49-3.42h5v-.58h-5Zm0,1.07h5v-.59h-5Zm0,1.08h5v-.6h-5Zm1,1.55a5,5,0,0,0,1.59,1.09A5.94,5.94,0,0,0,99.22,148Z"/><path class="cls-2" d="M108.08,141.64a11.88,11.88,0,0,0,4.39,3.57,3.4,3.4,0,0,0-.49.64,13.37,13.37,0,0,1-4.23-3.49,12.31,12.31,0,0,1-4.15,3.55,2.7,2.7,0,0,0-.46-.59,11.23,11.23,0,0,0,4.19-3.68Zm-3.33,5.13h6.08v4h-.76v-.41h-4.59v.41h-.73Zm5.53-1.91v.66h-5v-.66Zm-4.8,2.58v2.23h4.59v-2.23Z"/><path class="cls-2" d="M116.54,143.89a11.16,11.16,0,0,1-.82,1.47v5.38H115v-4.42a9.42,9.42,0,0,1-1.13,1.15,6.29,6.29,0,0,0-.47-.65,8.77,8.77,0,0,0,2.45-3.15Zm-1.78.34H114v-1.76h3.75v-.85h.74v.85h3.81v1.63h-.75v-.95h-6.82Zm5.08.75c-.11.36-.23.73-.34,1H122v4.7h-.72v-.35H117.8v.38h-.7V146h1.67a9.15,9.15,0,0,0,.25-1h-2.4v-.67h5.76V145Zm1.41,1.7H117.8v1.14h3.45Zm0,3v-1.29H117.8v1.29Z"/><path class="cls-2" d="M128.31,144.95c0,.65,0,1.61.1,2.47a7.85,7.85,0,0,1,3.08,1.69l-.48.74a6.9,6.9,0,0,0-2.57-1.63c0,.26,0,.48,0,.66,0,.81-.5,1.51-1.82,1.51s-2.37-.44-2.37-1.57c0-.89.78-1.63,2.49-1.63a5.93,5.93,0,0,1,.84.06c0-.8-.08-1.71-.08-2.3s0-1.39,0-1.81a7.38,7.38,0,0,0-.08-1h1a8.56,8.56,0,0,0-.08,1c0,.27,0,.62,0,1,.79,0,2-.07,2.93-.19l0,.76c-.88.08-2.15.14-3,.16Zm-.68,3a4.47,4.47,0,0,0-1-.1c-1,0-1.6.35-1.6.89s.55.85,1.5.85c.73,0,1.08-.34,1.08-1C127.64,148.46,127.63,148.25,127.63,148Z"/><path class="cls-2" d="M135.46,142.12a18.41,18.41,0,0,0-.46,2.75,3.31,3.31,0,0,1,2.68-2.25c1.32,0,2.27,1.32,2.27,3.4,0,2.75-1.73,4-4.19,4.41l-.47-.72c2.15-.33,3.83-1.19,3.83-3.68,0-1.56-.52-2.68-1.57-2.68-1.23,0-2.37,1.79-2.49,3.09a4.09,4.09,0,0,0,0,1.21l-.78.06a12.13,12.13,0,0,1-.1-1.57,26.13,26.13,0,0,1,.3-3.2c0-.31.07-.61.08-.85Z"/><path class="cls-2" d="M24.21,157.07A11.28,11.28,0,0,1,22,160.58a3.53,3.53,0,0,0-.65-.44,8.85,8.85,0,0,0,2-3.27Zm5,3c-.93,2.79-2.95,4.12-6.63,4.69a2.83,2.83,0,0,0-.4-.72c3.52-.46,5.42-1.66,6.27-4.21Zm-2.82-4.44v5c0,.46-.11.67-.44.8a5.47,5.47,0,0,1-1.71.14,2.54,2.54,0,0,0-.27-.76c.66,0,1.27,0,1.44,0s.23,0,.23-.2v-5Zm2.07,1.15A15.48,15.48,0,0,1,30.59,160l-.74.4a14,14,0,0,0-2.11-3.33Z"/><path class="cls-2" d="M33.84,156.22c0,.32-.08.67-.1,1,0,1.12-.12,3.46-.12,4.94,0,1.09.7,1.47,1.62,1.47a4.13,4.13,0,0,0,3.56-2l.55.69a4.93,4.93,0,0,1-4.13,2.18c-1.42,0-2.4-.6-2.4-2.21s.1-4,.1-5a5,5,0,0,0-.09-1Z"/><path class="cls-2" d="M42.35,162.74a2.89,2.89,0,0,0,2.52,1.12c1.1,0,3.4,0,4.6-.06a2.74,2.74,0,0,0-.24.73c-1.12,0-3.23.07-4.35,0A3.49,3.49,0,0,1,42,163.37c-.44.43-.9.85-1.39,1.28l-.39-.71a16.26,16.26,0,0,0,1.38-1.15v-2.56H40.38v-.7h2Zm-.3-4.79a7.38,7.38,0,0,0-1.58-1.67l.57-.42a7.45,7.45,0,0,1,1.61,1.63Zm3.56,3.54a8.44,8.44,0,0,1-2.37,1.5,3,3,0,0,0-.45-.57,6.87,6.87,0,0,0,2.57-1.58h-1.7v-2.08h4.74v2l.15-.13.55.35a14.66,14.66,0,0,1-1.49,1,5.61,5.61,0,0,0,1.67.68,2.32,2.32,0,0,0-.43.57,5.51,5.51,0,0,1-2.54-1.56v1.75h-.7Zm3.63-3.27h-6.4v-.56h2.78v-.72H43.38v-.56h2.24v-.76h.72v.76h2.29v.56H46.33v.72h2.9Zm-4.9,2.08h3.33v-1H44.34Zm2,.54a3.9,3.9,0,0,0,.82.86,13,13,0,0,0,1.2-.86Z"/><path class="cls-2" d="M52.11,158c0,.62,0,1.53.07,2.34.16,1.66.64,2.75,1.34,2.75.51,0,1-1,1.23-2l.63.72c-.59,1.68-1.2,2.25-1.88,2.25-.93,0-1.83-.93-2.1-3.5a26.28,26.28,0,0,1-.11-2.64,5.2,5.2,0,0,0-.06-.88l1,0C52.15,157.26,52.12,157.72,52.11,158Zm7,4.16-.81.32a9.79,9.79,0,0,0-1.71-4.9l.78-.27A10.2,10.2,0,0,1,59.09,162.14Z"/><path class="cls-2" d="M61.49,161a7.45,7.45,0,0,1-.89,3.77,3.57,3.57,0,0,0-.57-.45,7.26,7.26,0,0,0,.75-3.73v-2.69h3.67V161Zm3.21-4.14H60.42v-.67H64.7Zm-3.21,1.72v1.74h2.24v-1.74Zm7.9,1.15h-1.1v5h-.73v-5H65.83a7.5,7.5,0,0,1-1.69,5,1.88,1.88,0,0,0-.55-.5,7,7,0,0,0,1.52-5V156.6l.59.15a12.92,12.92,0,0,0,2.83-1l.66.55a17.58,17.58,0,0,1-3.35,1.1V159h3.55Z"/><path class="cls-2" d="M71.35,160.55c.53-.54,1.36-1.66,1.94-2.36s1.1-.77,1.76-.11,1.36,1.59,2,2.27,1.58,1.7,2.47,2.5l-.63.71c-.75-.71-1.66-1.71-2.34-2.48s-1.4-1.68-1.86-2.19-.61-.39-.94,0c-.46.58-1.28,1.68-1.78,2.28-.21.26-.43.56-.58.77l-.74-.77A5.8,5.8,0,0,0,71.35,160.55Z"/><path class="cls-2" d="M83,164.54a16,16,0,0,0-2.21-2.23l.65-.57A18.68,18.68,0,0,1,83.69,164Z"/><path class="cls-2" d="M88.83,157.07a11.28,11.28,0,0,1-2.16,3.51,3.53,3.53,0,0,0-.65-.44,8.85,8.85,0,0,0,2-3.27Zm5,3c-.93,2.79-2.95,4.12-6.63,4.69a2.83,2.83,0,0,0-.4-.72c3.52-.46,5.42-1.66,6.27-4.21ZM91,155.63v5c0,.46-.11.67-.44.8a5.47,5.47,0,0,1-1.71.14,2.54,2.54,0,0,0-.27-.76c.66,0,1.27,0,1.44,0s.23,0,.23-.2v-5ZM93,156.78A15.48,15.48,0,0,1,95.21,160l-.74.4a14,14,0,0,0-2.11-3.33Z"/><path class="cls-2" d="M98.46,156.22c0,.32-.08.67-.1,1,0,1.12-.12,3.46-.12,4.94,0,1.09.7,1.47,1.62,1.47a4.13,4.13,0,0,0,3.56-2l.55.69a4.93,4.93,0,0,1-4.13,2.18c-1.42,0-2.4-.6-2.4-2.21s.1-4,.1-5a5,5,0,0,0-.09-1Z"/><path class="cls-2" d="M111.86,156.45c0,.16,0,.5-.05.72,0,.44,0,.94,0,1.37l1.08-.07.78,0v.79h-.78l-1.1,0a16.22,16.22,0,0,1-.15,2.08c-.09.44-.31.57-.76.57a11.68,11.68,0,0,1-1.31-.14l0-.71a5.15,5.15,0,0,0,1,.13c.24,0,.34,0,.37-.26s.09-1,.11-1.61c-1,.08-2.18.19-3.16.29,0,1,0,2,0,2.43,0,1.07,0,1.44,1.76,1.44a20.12,20.12,0,0,0,2.94-.23l0,.84a27.6,27.6,0,0,1-2.87.17c-2.29,0-2.51-.53-2.56-2.11,0-.42,0-1.47,0-2.46l-1,.11-1,.14-.08-.82c.3,0,.67,0,1,0l1.11-.1v-1.38a5.88,5.88,0,0,0-.06-.83h.87c0,.23,0,.5,0,.8v1.33l3.16-.29v-1.41a5.61,5.61,0,0,0,0-.74Zm1,1.51a15,15,0,0,0-.57-1.42l.48-.15a14.67,14.67,0,0,1,.59,1.4Zm.91-1.89a14.75,14.75,0,0,1,.6,1.39l-.5.17a9,9,0,0,0-.59-1.4Z"/><path class="cls-2" d="M116.68,158c0,.62,0,1.53.07,2.34.16,1.66.64,2.75,1.34,2.75.51,0,1-1,1.23-2l.63.72c-.59,1.68-1.2,2.25-1.88,2.25-.93,0-1.83-.93-2.1-3.5a26.28,26.28,0,0,1-.11-2.64,5.2,5.2,0,0,0-.06-.88l1,0C116.72,157.26,116.69,157.72,116.68,158Zm7,4.16-.81.32a9.79,9.79,0,0,0-1.71-4.9l.78-.27A10.2,10.2,0,0,1,123.66,162.14Z"/><path class="cls-2" d="M130.08,158.09a19.19,19.19,0,0,1-2,.34c-.09.43-.2.89-.31,1.31a29.41,29.41,0,0,1-1.55,4.54l-.88-.29a22.06,22.06,0,0,0,1.66-4.43c.09-.33.17-.69.25-1l-.9,0c-.44,0-.8,0-1.15,0l0-.78a8.73,8.73,0,0,0,1.19.07c.33,0,.68,0,1.06,0,.07-.36.12-.67.15-.87a4.75,4.75,0,0,0,0-.82l1,.08c-.07.22-.14.59-.18.79l-.15.73a14.32,14.32,0,0,0,1.89-.36Zm-.39,3.47a3.54,3.54,0,0,0-.14.89c0,.47.22.92,1.63.92a11,11,0,0,0,1.93-.19l0,.81a14.63,14.63,0,0,1-1.91.13c-1.56,0-2.38-.48-2.38-1.46a5.51,5.51,0,0,1,.15-1.17Zm-.25-2.41c.52,0,1.17-.08,1.81-.08a15.64,15.64,0,0,1,1.71.08l0,.76a14.12,14.12,0,0,0-1.67-.12,16,16,0,0,0-1.83.11Z"/><path class="cls-2" d="M139.75,156.63c-.22.16-.52.42-.68.56-.69.59-2.11,1.73-2.84,2.33s-.6.67,0,1.2c.9.72,2.73,2.24,3.7,3.2l-.72.65c-.2-.24-.47-.49-.68-.72-.54-.58-2.19-2-3.12-2.75s-.83-1.23.07-2c.74-.63,2.24-1.81,2.91-2.49A4.57,4.57,0,0,0,139,156Z"/><path class="cls-2" d="M26.69,172a11.76,11.76,0,0,1-1.79.36,17.78,17.78,0,0,1-2.16,4.19l-.78-.4a14.2,14.2,0,0,0,2.12-3.7c-.29,0-.58,0-.87,0l-1.15,0-.06-.75a9.17,9.17,0,0,0,1.22.07c.35,0,.72,0,1.1,0a8.06,8.06,0,0,0,.31-1.71l.89.08c-.1.36-.23,1-.39,1.53a10,10,0,0,0,1.54-.36Zm1.16,1.15a9.38,9.38,0,0,0,0,1.07c0,.36,0,1,.07,1.61A6.68,6.68,0,0,1,30,177l-.43.68a6.88,6.88,0,0,0-1.59-1.13c0,.15,0,.29,0,.4,0,.79-.52,1.44-1.74,1.44s-2-.45-2-1.43.86-1.5,2-1.5a4.71,4.71,0,0,1,.94.09c0-.81-.08-1.78-.1-2.47Zm-.67,3.17a3.6,3.6,0,0,0-1-.14c-.73,0-1.21.33-1.21.78s.37.77,1.14.77,1.08-.45,1.08-.94C27.19,176.64,27.19,176.48,27.18,176.3Zm2.64-2.9A11.87,11.87,0,0,0,27.56,172l.39-.62a15,15,0,0,1,2.32,1.32Z"/><path class="cls-2" d="M35.81,173.55c-.08,3.35-.14,4.48-.4,4.82a.67.67,0,0,1-.57.31,7.28,7.28,0,0,1-1.07,0,1.61,1.61,0,0,0-.19-.67c.41,0,.78,0,.93,0a.32.32,0,0,0,.31-.14c.16-.24.23-1.22.3-4H33.91a8.43,8.43,0,0,1-1.42,4.88,3.1,3.1,0,0,0-.55-.45,8.31,8.31,0,0,0,1.32-5v-1.37H32.11v-.68h1.74v-1.6h.71v1.6h1.6v.68H33.92v1.31h1.9Zm1.46-1.93a6.77,6.77,0,0,1-1,1.5,4.31,4.31,0,0,0-.61-.47,6.94,6.94,0,0,0,1.62-3l.72.15a11.63,11.63,0,0,1-.4,1.18H41v.68Zm4,2.47a16.75,16.75,0,0,1-1.76,1.42,5,5,0,0,0,1.81,2.6,2.3,2.3,0,0,0-.51.6c-1.36-1-2.07-2.85-2.44-5.13-.22.1-.45.19-.67.27v4.89H37V174.1l-.54.16a2.34,2.34,0,0,0-.45-.61,12.58,12.58,0,0,0,4.18-1.74l.53.39a9.81,9.81,0,0,1-1.74,1,14.74,14.74,0,0,0,.35,1.58,13,13,0,0,0,1.42-1.26Z"/><path class="cls-2" d="M46,177.06a1.52,1.52,0,1,1-1.53-1.52A1.53,1.53,0,0,1,46,177.06Zm-.52,0a1,1,0,0,0-1-1,1,1,0,0,0,0,2A1,1,0,0,0,45.5,177.06Z"/><path class="cls-2" d="M57.29,176.36a9.9,9.9,0,0,0-1-.78,4.71,4.71,0,0,1-2.61,2.95L53,178a4.21,4.21,0,0,0,2.59-2.8,7.3,7.3,0,0,0-2.82-.89,19.56,19.56,0,0,1-1.25,2.58,1.41,1.41,0,0,1-1.25.69A1.27,1.27,0,0,1,49,176.2c0-1.46,1.35-2.58,3.29-2.63.36-.78.72-1.63,1-2.25l-2,.11a6.35,6.35,0,0,0-.73.07l0-.84a6.69,6.69,0,0,0,.75,0c.52,0,1.82-.07,2.24-.1a1.94,1.94,0,0,0,.48-.11l.51.41a1.68,1.68,0,0,0-.26.33c-.28.44-.7,1.45-1.12,2.38a8.1,8.1,0,0,1,2.69.79c0-.25.06-.5.08-.74a6.8,6.8,0,0,0,0-.91l.82.09a14.79,14.79,0,0,1-.21,1.92,11.93,11.93,0,0,1,1.19.76Zm-5.36-2.08c-1.42.12-2.23,1-2.23,1.81a.6.6,0,0,0,.57.66.7.7,0,0,0,.6-.35A12.21,12.21,0,0,0,51.94,174.28Z"/><path class="cls-2" d="M63.78,170.94c-.44.68-1.4,2.43-1.91,3.39a2.15,2.15,0,0,1,1.45-.6,1.13,1.13,0,0,1,1.17,1.21c0,.59,0,1.35,0,1.83a.71.71,0,0,0,.79.7c1.1,0,1.75-1.36,2-2.41l.66.53c-.52,1.6-1.36,2.71-2.8,2.71A1.28,1.28,0,0,1,63.76,177c0-.58,0-1.35,0-1.88a.65.65,0,0,0-.72-.69c-.8,0-1.53.8-1.92,1.58a15.56,15.56,0,0,0-.85,2.25l-.87-.29a71.62,71.62,0,0,1,3.5-7.14c.11-.24.24-.48.36-.77l.89.36A4,4,0,0,0,63.78,170.94Z"/><path class="cls-2" d="M74.73,172a11.76,11.76,0,0,1-1.79.36,17.78,17.78,0,0,1-2.16,4.19l-.78-.4a14.2,14.2,0,0,0,2.12-3.7c-.29,0-.58,0-.87,0l-1.15,0-.06-.75a9.17,9.17,0,0,0,1.22.07c.35,0,.72,0,1.1,0a8.06,8.06,0,0,0,.31-1.71l.89.08c-.1.36-.23,1-.39,1.53a10,10,0,0,0,1.54-.36Zm1.16,1.15a9.38,9.38,0,0,0,0,1.07c0,.36,0,1,.07,1.61A6.68,6.68,0,0,1,78,177l-.43.68A6.88,6.88,0,0,0,76,176.6c0,.15,0,.29,0,.4,0,.79-.52,1.44-1.74,1.44s-2-.45-2-1.43.86-1.5,2-1.5a4.71,4.71,0,0,1,.94.09c0-.81-.08-1.78-.1-2.47Zm-.67,3.17a3.6,3.6,0,0,0-1-.14c-.73,0-1.21.33-1.21.78s.37.77,1.14.77,1.08-.45,1.08-.94C75.23,176.64,75.23,176.48,75.22,176.3Zm2.64-2.9A11.87,11.87,0,0,0,75.6,172l.39-.62a15.09,15.09,0,0,1,2.32,1.32Z"/><path class="cls-2" d="M81,171.35l4.34-.4c1.08-.09,2-.14,2.67-.17v.8a8.17,8.17,0,0,0-1.94.16,3.46,3.46,0,0,0-2.26,3.13c0,1.93,1.8,2.54,3.41,2.6l-.29.84C85.11,178.23,83,177.25,83,175a4,4,0,0,1,1.84-3.34c-.87.1-3.57.36-4.64.58l-.09-.88C80.52,171.39,80.83,171.37,81,171.35Zm6.43,2.83-.51.24a9.26,9.26,0,0,0-.82-1.41l.51-.22A12,12,0,0,1,87.44,174.18Zm1.14-.43-.52.24a8.83,8.83,0,0,0-.85-1.39l.5-.23A14.83,14.83,0,0,1,88.58,173.75Z"/><path class="cls-2" d="M99.18,173.4V174H90.27v-.62h3.08v-2H90.83v-.62h1.88a4.82,4.82,0,0,0-.65-1l.64-.25a3.7,3.7,0,0,1,.76,1.1l-.28.12h3.06l-.34-.12a9.28,9.28,0,0,0,.71-1.1l.73.23a9.57,9.57,0,0,1-.72,1h2.07v.62H96v2Zm-7.26-1.82a5.28,5.28,0,0,1,.84,1.52l-.66.26a5.38,5.38,0,0,0-.78-1.55Zm-.19,3h6v4.06H97v-.3H92.49v.34h-.75Zm.75.59v1H97v-1ZM97,177.79v-1H92.49v1ZM94,173.4h1.28v-2H94Zm2.54-.27a10,10,0,0,0,.89-1.6l.67.23a14.28,14.28,0,0,1-1,1.57Z"/><path class="cls-2" d="M102.43,177v1.7h-.7v-1.57l-.69.12-.13-.72.82-.13v-6.07l.4.14a11.24,11.24,0,0,0,2.36-.88l.64.53a14.5,14.5,0,0,1-2.7.9v1.15h2.3v.68h-2.3v1.22h2.38v.69h-2.38v1.52c.82-.13,1.74-.29,2.64-.45l0,.69Zm7.24-2.85A6.41,6.41,0,0,1,108,177a5.91,5.91,0,0,0,2.19,1.08,2.17,2.17,0,0,0-.49.64,6.18,6.18,0,0,1-2.26-1.23,8.09,8.09,0,0,1-2.57,1.26,2.63,2.63,0,0,0-.41-.65A7,7,0,0,0,106.9,177a6.78,6.78,0,0,1-1.27-2.15l.49-.13h-.9V174h3.83l.14,0Zm-3.18-2.72a2.66,2.66,0,0,1-1.2,2.42,2.68,2.68,0,0,0-.5-.51,2,2,0,0,0,1-1.93V170h2.95v2.45c0,.19,0,.29.06.33a.25.25,0,0,0,.16,0h.29a.57.57,0,0,0,.21,0,.3.3,0,0,0,.11-.22,6.57,6.57,0,0,0,0-.85,1.56,1.56,0,0,0,.56.28,6.18,6.18,0,0,1-.1,1,.53.53,0,0,1-.3.33,1,1,0,0,1-.47.1h-.51a.83.83,0,0,1-.55-.18c-.14-.12-.2-.29-.2-.84v-1.75h-1.57Zm-.19,3.24a5.53,5.53,0,0,0,1.16,1.83,5.38,5.38,0,0,0,1.26-1.83Z"/><path class="cls-2" d="M113.94,170.37a4.75,4.75,0,0,0-.17.67,24.39,24.39,0,0,0-.49,4,8.69,8.69,0,0,0,.09,1.35c.16-.45.39-1,.56-1.44l.42.33a21.27,21.27,0,0,0-.7,2.19,1.69,1.69,0,0,0-.05.44c0,.1,0,.24,0,.34l-.71.06a12,12,0,0,1-.38-3.14A30.85,30.85,0,0,1,113,171a4.35,4.35,0,0,0,.07-.7Zm6.44,7.21a7.51,7.51,0,0,0-1.49-1.13v.18a1.5,1.5,0,0,1-1.72,1.62c-1.33,0-2.06-.55-2.06-1.43s.74-1.51,2-1.51a4.37,4.37,0,0,1,.92.09c0-.76-.09-1.71-.1-2.53l-.95,0c-.56,0-1.08,0-1.66-.06v-.76a15.33,15.33,0,0,0,1.68.09l.93,0v-1.23a4.14,4.14,0,0,0,0-.6h.91a5.48,5.48,0,0,0-.06.59c0,.27,0,.73,0,1.19a12.7,12.7,0,0,0,1.71-.23v.78c-.54.09-1.12.15-1.71.19,0,1,.08,2,.12,2.81a6.76,6.76,0,0,1,1.95,1.29Zm-2.28-1.47a3.11,3.11,0,0,0-1-.16c-.74,0-1.25.33-1.25.79s.48.77,1.19.77,1.08-.41,1.08-1.07C118.1,176.35,118.1,176.23,118.09,176.11Z"/><path class="cls-2" d="M123.54,171.35l4.34-.4c1.08-.09,2-.14,2.67-.17v.8a8.17,8.17,0,0,0-1.94.16,3.46,3.46,0,0,0-2.26,3.13c0,1.93,1.8,2.54,3.41,2.6l-.29.84c-1.83-.08-3.92-1.06-3.92-3.27a4,4,0,0,1,1.84-3.34c-.87.1-3.57.36-4.64.58l-.09-.88C123,171.39,123.35,171.37,123.54,171.35Zm6.43,2.83-.51.24a9.26,9.26,0,0,0-.82-1.41l.51-.22A12,12,0,0,1,130,174.18Zm1.14-.43-.52.24a8.83,8.83,0,0,0-.85-1.39l.5-.23A14.83,14.83,0,0,1,131.1,173.75Z"/><path class="cls-2" d="M140.33,173.31a13.26,13.26,0,0,1-1.68.42c.29.63.61,1.3.89,1.82l-.39.49c-.5-.09-1.3-.2-1.93-.28l.07-.61,1.26.14c-.19-.39-.42-.91-.65-1.43a23.82,23.82,0,0,1-4.43.09l0-.73a19.75,19.75,0,0,0,4.16,0l-.35-.81c-.08-.17-.15-.35-.22-.51a20.37,20.37,0,0,1-3.48,0l0-.73a18,18,0,0,0,3.24.08l-.13-.3a7.27,7.27,0,0,0-.37-.7l.9-.19a10.05,10.05,0,0,0,.37,1.1,11.09,11.09,0,0,0,2-.47l.14.71a13.69,13.69,0,0,1-1.84.42l.18.41c.08.21.22.52.39.89a10.27,10.27,0,0,0,1.83-.49Zm-5.69,2.06a3.4,3.4,0,0,0-.23,1c0,.76.6,1.24,2,1.24a11.86,11.86,0,0,0,2.44-.23l0,.81a15.28,15.28,0,0,1-2.39.19c-1.77,0-2.81-.61-2.81-1.85a4.49,4.49,0,0,1,.23-1.24Z"/><path class="cls-2" d="M27.14,186a11.76,11.76,0,0,1-1.79.36,17.78,17.78,0,0,1-2.16,4.19l-.78-.4a14.2,14.2,0,0,0,2.12-3.7c-.29,0-.58,0-.87,0l-1.15,0-.06-.75a9.17,9.17,0,0,0,1.22.07c.35,0,.72,0,1.1,0a8.06,8.06,0,0,0,.31-1.71l.89.08c-.1.36-.23,1-.39,1.53a10,10,0,0,0,1.54-.36Zm1.16,1.15a9.38,9.38,0,0,0,0,1.07c0,.36,0,1,.07,1.61a6.68,6.68,0,0,1,2,1.24l-.43.68a6.88,6.88,0,0,0-1.59-1.13c0,.15,0,.29,0,.4,0,.79-.52,1.44-1.74,1.44s-2-.45-2-1.43.86-1.5,2-1.5a4.71,4.71,0,0,1,.94.09c0-.81-.08-1.78-.1-2.47Zm-.67,3.17a3.6,3.6,0,0,0-1-.14c-.73,0-1.21.33-1.21.78s.37.77,1.14.77,1.08-.45,1.08-.94C27.64,190.64,27.64,190.48,27.63,190.3Zm2.64-2.9A11.87,11.87,0,0,0,28,186l.39-.62a15.09,15.09,0,0,1,2.32,1.32Z"/><path class="cls-2" d="M33.21,186c0,.62,0,1.53.07,2.34.16,1.66.64,2.75,1.34,2.75.51,0,1-1,1.23-2l.63.72c-.59,1.68-1.2,2.25-1.88,2.25-.93,0-1.83-.93-2.1-3.5a26.28,26.28,0,0,1-.11-2.64,5.2,5.2,0,0,0-.06-.88l1,0C33.25,185.26,33.22,185.72,33.21,186Zm7,4.16-.81.32a9.79,9.79,0,0,0-1.71-4.9l.78-.27A10.2,10.2,0,0,1,40.18,190.14Z"/><path class="cls-2" d="M43.82,183.86a16.94,16.94,0,0,1-.89,2.11v6.76h-.71V187.2a10.63,10.63,0,0,1-.85,1.15,5.57,5.57,0,0,0-.43-.73,11.63,11.63,0,0,0,2.19-4Zm3.77,2.48a10,10,0,0,0,2.7,4.2,2.62,2.62,0,0,0-.56.59,11.25,11.25,0,0,1-2.62-4.38v3.47h1.61v.68H47.1v1.79h-.72V190.9H44.76v-.68h1.63v-3.4a11.53,11.53,0,0,1-2.65,4.33,3.58,3.58,0,0,0-.54-.56,10.16,10.16,0,0,0,2.74-4.25H43.59v-.72h2.8v-2h.72v2h3v.72Z"/><path class="cls-2" d="M50.88,191.95a4.43,4.43,0,0,0,.5-2.21l.47.09a4.81,4.81,0,0,1-.55,2.36Zm4.21-3.42s0,.19,0,.29c-.1,2.46-.22,3.34-.45,3.64a.71.71,0,0,1-.53.26,6.34,6.34,0,0,1-.89,0,1.5,1.5,0,0,0-.17-.59c.34,0,.65,0,.78,0a.3.3,0,0,0,.27-.1,2.87,2.87,0,0,0,.24-1.23L54,191a5.77,5.77,0,0,0-.54-1.3l.35-.13a6,6,0,0,1,.54,1.21c0-.41.07-.94.1-1.61h-3V184H55v.63H53.68v.86h1.11v.6H53.68V187h1.11v.6H53.68v.92Zm-2.62,1.33a10,10,0,0,1,.16,1.82l-.41.06a9.94,9.94,0,0,0-.14-1.83Zm-.37-5.2v.86h1v-.86Zm1,1.46h-1V187h1Zm-1,2.41h1v-.92h-1Zm1.09,2.9a7.82,7.82,0,0,0-.39-1.61l.37-.08a7.18,7.18,0,0,1,.41,1.59Zm4.63-7.81A7.09,7.09,0,0,0,60.28,186a4.44,4.44,0,0,0-.39.63,8.14,8.14,0,0,1-2.38-2.37,7.53,7.53,0,0,1-2.36,2.46,2.71,2.71,0,0,0-.37-.58,6.39,6.39,0,0,0,2.36-2.55Zm.31,6.34a3.75,3.75,0,0,0,2.08,2.18,2.67,2.67,0,0,0-.47.59,4.26,4.26,0,0,1-2.12-2.41,4.15,4.15,0,0,1-2.35,2.42,2.49,2.49,0,0,0-.47-.52A3.73,3.73,0,0,0,57,190H55.37V187.5H57.2v-.79H56v-.61H59.1v.61H57.86v.79h1.9V190Zm-1-.57a6.54,6.54,0,0,0,.06-1v-.33H56v1.31Zm.72-1.31v.34a7.85,7.85,0,0,1,0,1h1.3v-1.31Z"/><path class="cls-2" d="M65.52,190.63c0-.38,0-1,0-1.54-.92.5-1.56,1-1.56,1.66s.77.89,1.79.89a17.36,17.36,0,0,0,2.7-.24l0,.81a25.27,25.27,0,0,1-2.71.16c-1.42,0-2.56-.3-2.56-1.51s1.18-1.91,2.33-2.51a.84.84,0,0,0-.89-.61,2.63,2.63,0,0,0-1.71.73c-.28.27-.56.64-.9,1l-.68-.51a10.43,10.43,0,0,0,2.28-3h-.41c-.42,0-1.09,0-1.63-.06v-.75c.53.06,1.22.1,1.67.1h.65a5.4,5.4,0,0,0,.25-1.23l.82.07c-.07.28-.16.69-.3,1.14a26.46,26.46,0,0,0,3-.3v.74a30.48,30.48,0,0,1-3.28.28,7.08,7.08,0,0,1-.89,1.52,2.8,2.8,0,0,1,1.37-.37,1.24,1.24,0,0,1,1.31.9c.68-.32,1.28-.56,1.8-.8.3-.13.54-.25.82-.39l.32.75c-.25.07-.61.21-.87.31-.56.22-1.27.51-2,.86,0,.57,0,1.41,0,1.89Z"/><path class="cls-2" d="M73.71,184a10.3,10.3,0,0,1-3.14,4.11,4.94,4.94,0,0,0-.63-.58,8.4,8.4,0,0,0,3-3.75Zm4.06,3.33s0,.26,0,.36c-.14,3.07-.29,4.22-.63,4.6a1,1,0,0,1-.77.35,14.15,14.15,0,0,1-1.57,0,1.82,1.82,0,0,0-.25-.74c.65.06,1.27.07,1.5.07s.33,0,.42-.13c.26-.25.4-1.25.52-3.77H74.39c-.26,2-.9,3.78-3.44,4.7a3,3,0,0,0-.48-.65,4.31,4.31,0,0,0,3.13-4h-2v-.72Zm-1.39-3.57a10.56,10.56,0,0,0,3,3.6,3.76,3.76,0,0,0-.61.66,13.21,13.21,0,0,1-3.1-4Z"/><path class="cls-2" d="M83.84,184.21c0,.18-.08.39-.12.58s-.14.87-.25,1.4c.46,0,.87-.06,1.11-.06.88,0,1.61.34,1.61,1.68a9.51,9.51,0,0,1-.58,3.57,1.39,1.39,0,0,1-1.45.83,5.9,5.9,0,0,1-1.16-.15l-.13-.84a4.87,4.87,0,0,0,1.21.22.83.83,0,0,0,.87-.51,8.51,8.51,0,0,0,.46-3c0-.9-.41-1.06-1-1.06-.24,0-.63,0-1.06.07a19.87,19.87,0,0,1-2.08,5.32l-.82-.33A15.49,15.49,0,0,0,82.5,187l-1.25.13-.89.12-.08-.87c.31,0,.57,0,.88,0s.91-.06,1.51-.11a11.58,11.58,0,0,0,.25-2.15Zm3.41,1a17.43,17.43,0,0,1,1.81,3.54l-.78.37a11.89,11.89,0,0,0-1.77-3.59Z"/><path class="cls-2" d="M96.66,185.87a31.9,31.9,0,0,1-4,.42,20.26,20.26,0,0,1-.62,2.34,4.41,4.41,0,0,1,2.77-.86c1.58,0,2.5.81,2.5,2,0,2.06-2.1,2.84-5.1,2.51l-.22-.79c2.28.32,4.5-.08,4.5-1.7,0-.74-.6-1.3-1.76-1.3a3.72,3.72,0,0,0-2.92,1.18,2.08,2.08,0,0,0-.31.46l-.74-.27a16.36,16.36,0,0,0,1.15-3.52h0c-.67,0-1.31,0-1.88-.09v-.79a12.16,12.16,0,0,0,1.88.17H92c0-.26.08-.48.1-.65a3.92,3.92,0,0,0,.05-.82l.89,0c-.07.26-.13.57-.18.83s-.06.35-.11.57a23.41,23.41,0,0,0,3.86-.48Z"/><path class="cls-2" d="M103.33,183.64a11.88,11.88,0,0,0,4.39,3.57,3.4,3.4,0,0,0-.49.64,13.37,13.37,0,0,1-4.23-3.49,12.31,12.31,0,0,1-4.15,3.55,2.7,2.7,0,0,0-.46-.59,11.23,11.23,0,0,0,4.19-3.68ZM100,188.77h6.08v4h-.76v-.41h-4.59v.41H100Zm5.53-1.91v.66h-5v-.66Zm-4.8,2.58v2.23h4.59v-2.23Z"/><path class="cls-2" d="M110,186c0,.62,0,1.53.07,2.34.16,1.66.64,2.75,1.34,2.75.51,0,1-1,1.23-2l.63.72c-.59,1.68-1.2,2.25-1.88,2.25-.93,0-1.83-.93-2.1-3.5a26.28,26.28,0,0,1-.11-2.64,5.2,5.2,0,0,0-.06-.88l1,0C110,185.26,110,185.72,110,186Zm7,4.16-.81.32a9.79,9.79,0,0,0-1.71-4.9l.78-.27A10.2,10.2,0,0,1,117,190.14Z"/><path class="cls-2" d="M125.24,191.86a7.35,7.35,0,0,0-2.39-1.49c0,.25,0,.47,0,.62,0,.68-.46,1.39-1.75,1.39s-2.21-.51-2.21-1.47.87-1.51,2.3-1.51a5.57,5.57,0,0,1,.83.06c0-.44,0-.91,0-1.32h-.55c-.68,0-1.78-.06-2.49-.14v-.76a17.58,17.58,0,0,0,2.49.19H122V186h-.49c-.69,0-1.74-.08-2.33-.15v-.74a15.72,15.72,0,0,0,2.32.19H122v-.65a5.4,5.4,0,0,0,0-.59h.85a5.17,5.17,0,0,0,0,.66c0,.12,0,.31,0,.55a22.07,22.07,0,0,0,2.54-.24v.73c-.78.08-1.63.16-2.56.21v1.42a26.73,26.73,0,0,0,2.75-.26v.75c-.93.12-1.81.19-2.75.23,0,.51,0,1,.07,1.5a8.11,8.11,0,0,1,2.88,1.54Zm-3.17-1.71a5.07,5.07,0,0,0-1-.09c-.94,0-1.45.36-1.45.81s.39.8,1.37.8c.57,0,1-.17,1-.85C122.08,190.65,122.07,190.42,122.07,190.15Z"/><path class="cls-2" d="M132.18,186.06c0,.56,0,1.17,0,1.62a2.42,2.42,0,0,1,.32,1.27c0,1.34-.65,2.83-2.95,3.52l-.69-.67a3.54,3.54,0,0,0,2.63-1.72,1.42,1.42,0,0,1-.85.25,1.59,1.59,0,0,1-1.64-1.66,1.74,1.74,0,0,1,1.75-1.73,2,2,0,0,1,.66.11c0-.29,0-.64,0-1-1.5,0-3.18.08-4.42.17l0-.78c1.1,0,3-.08,4.43-.1,0-.28,0-.51,0-.65s0-.5-.06-.62h.91l0,.62c0,.15,0,.38,0,.64h3v.75c-.56,0-1.46,0-2.91,0Zm-.53,2.17a.88.88,0,0,0-.88-.61,1,1,0,0,0-1,1,1,1,0,0,0,1,1C131.36,189.64,131.74,189.17,131.65,188.23Z"/><path class="cls-2" d="M137.23,191.24a.8.8,0,1,1,.8.79A.77.77,0,0,1,137.23,191.24Zm.23-5.56,0-1.18h1.2l0,1.18-.25,3.88h-.66Z"/><path class="cls-2" d="M54,27.37a8.17,8.17,0,0,0,3,2.1,6.69,6.69,0,0,0-1.12,1.39A8.45,8.45,0,0,1,54,29.69V34H52.32v-.36H48.19v.42H46.54V29.93a11.94,11.94,0,0,1-1.86,1.23,4.52,4.52,0,0,0-1.08-1.33,9.42,9.42,0,0,0,3.18-2.46H44V26h3.73a6.69,6.69,0,0,0,.35-.7H45.17V24h3.36c.07-.22.13-.46.18-.69h-4V22h4.24c0-.32.07-.66.1-1l1.71.13c0,.28-.06.57-.1.85h5.21v1.33H50.42l-.17.69h5.16v1.32H52.56c.13.24.25.48.39.7h3.67v1.34Zm-1.65,2H48.19v.87h4.13Zm0,3v-.94H48.19v.94Zm-3.52-5q-.23.36-.5.71h4.16a6.46,6.46,0,0,1-.5-.71Zm1-2a6.31,6.31,0,0,1-.29.7h1.67c-.11-.22-.21-.46-.31-.7Z"/><path class="cls-2" d="M65.26,31.81c.53-.07.92-.14,1.29-.22a3.76,3.76,0,0,0,3.15-3.71,3.43,3.43,0,0,0-2.9-3.67A30.12,30.12,0,0,1,66,28c-.83,2.8-2,4.51-3.54,4.51s-2.83-1.69-2.83-4A6.19,6.19,0,0,1,66,22.51a5.29,5.29,0,0,1,5.6,5.42c0,2.91-1.79,5-5.29,5.52Zm-1.08-4.2a22.25,22.25,0,0,0,.74-3.36,4.35,4.35,0,0,0-3.52,4c0,1.4.56,2.09,1.08,2.09S63.62,29.48,64.18,27.6Z"/><path class="cls-2" d="M82.17,26.48a9.35,9.35,0,0,0,5.24,6A6.7,6.7,0,0,0,86.18,34a10.45,10.45,0,0,1-5.25-5.94,9.64,9.64,0,0,1-5.24,6,4.92,4.92,0,0,0-1.25-1.41,8.4,8.4,0,0,0,5.08-6.16H74.71V24.76h5.1c.14-1.32.13-2.59.14-3.74h1.82c0,1.15,0,2.44-.17,3.74H87.1v1.72Z"/><path class="cls-2" d="M95.29,26.69c-.07,4.52-.14,6.19-.49,6.71a1.28,1.28,0,0,1-.91.59,8.69,8.69,0,0,1-1.44.06A4,4,0,0,0,92,32.56c.43,0,.8.06,1,.06a.4.4,0,0,0,.39-.21c.18-.29.27-1.49.32-4.85h-1a11,11,0,0,1-1.95,6.57,6.81,6.81,0,0,0-1.23-1,10,10,0,0,0,1.74-6.28V24.68H89.9V23.14H92V21h1.6v2.13h2.07V24.2A9.83,9.83,0,0,0,97,21l1.64.31c-.11.46-.25.92-.41,1.37h4.36V24.2h-5a8.94,8.94,0,0,1-1.44,2.1,10.19,10.19,0,0,0-1.34-1.06,5,5,0,0,0,.52-.56H92.78V26h2.51ZM103,27.86a22.64,22.64,0,0,1-2.16,1.78,5.85,5.85,0,0,0,2.21,3,5.87,5.87,0,0,0-1.13,1.4c-1.85-1.34-2.7-3.78-3.21-6.79l-.49.21v6.61H96.61V28l-.29.08a7.63,7.63,0,0,0-1-1.39,15.93,15.93,0,0,0,5.73-2.38l1.19.87a13.13,13.13,0,0,1-2.21,1.4c.08.55.2,1.09.32,1.61a12.52,12.52,0,0,0,1.43-1.44Z"/><path class="cls-2" d="M110.38,24.65a18.46,18.46,0,0,1-1.5,2.14V34.1h-1.67V28.63c-.39.38-.77.73-1.15,1a16.44,16.44,0,0,0-1.13-1.44A13.65,13.65,0,0,0,108.78,24Zm-.52-3A18.81,18.81,0,0,1,106,25.35a9.69,9.69,0,0,0-.92-1.36,12.48,12.48,0,0,0,3.17-3Zm8.24,5.58h-1.92v4.92c0,.9-.17,1.36-.78,1.61a7.73,7.73,0,0,1-2.73.28,6.94,6.94,0,0,0-.5-1.7c.8,0,1.72,0,2,0s.35-.06.35-.27V27.24h-4.13V25.66h7.75Zm-.35-3.85h-6.81V21.8h6.81Z"/><circle class="cls-3" cx="67.58" cy="65.2" r="1.18" transform="matrix(0.04, -1, 1, 0.04, -0.07, 130.33)"/><circle class="cls-3" cx="68.81" cy="74.48" r="1.18" transform="translate(-8.15 140.49) rotate(-87.89)"/><line class="cls-3" x1="67.79" y1="66.75" x2="68.62" y2="73.07"/><circle class="cls-3" cx="72.83" cy="69.22" r="1.18" transform="translate(0.97 139.45) rotate(-87.89)"/><circle class="cls-3" cx="63.56" cy="70.46" r="1.18" transform="translate(-9.2 131.37) rotate(-87.89)"/><line class="cls-3" x1="71.28" y1="69.43" x2="64.96" y2="70.27"/><circle class="cls-3" cx="71.04" cy="66.12" r="1.18" transform="translate(-26.01 66.02) rotate(-42.89)"/><circle class="cls-3" cx="65.35" cy="73.55" r="1.18" transform="translate(-32.59 64.13) rotate(-42.89)"/><line class="cls-3" x1="70.09" y1="67.37" x2="66.21" y2="72.43"/><circle class="cls-3" cx="71.91" cy="72.68" r="1.18" transform="translate(-30.24 68.37) rotate(-42.89)"/><circle class="cls-3" cx="64.48" cy="67" r="1.18" transform="matrix(0.73, -0.68, 0.68, 0.73, -28.36, 61.79)"/><line class="cls-3" x1="70.67" y1="71.73" x2="65.61" y2="67.86"/><path class="cls-3" d="M82.93,62.91s6.7-5.29-2.53-4.45a14.37,14.37,0,0,0-7.17,3,14.48,14.48,0,0,0-2.1-8c-5.23-7.91-5.17.69-5.17.69s-2.38-8.2-5.07.67a14.56,14.56,0,0,0,.25,8.2,14.16,14.16,0,0,0-7.51-1c-9.34,1.59-1.46,5-1.46,5s-8.46-1.13-1.43,4.91a14.74,14.74,0,0,0,8,3.14,14.34,14.34,0,0,0-3.14,7.31c-.83,9.44,4.47,2.68,4.47,2.68S56.87,93,64.5,87.69a14.92,14.92,0,0,0,5.23-7.43A14.72,14.72,0,0,0,76.57,86c8.92,3.2,3.73-3.64,3.73-3.64s6.82,5.14,3.66-3.58a14.52,14.52,0,0,0-5-6.37,14.45,14.45,0,0,0,6.59-4.94C90.87,59.62,82.93,62.91,82.93,62.91Z"/><circle class="cls-3" cx="99.29" cy="97.8" r="0.75" transform="translate(-27.85 154.89) rotate(-68.75)"/><circle class="cls-3" cx="98.1" cy="103.62" r="0.75" transform="translate(-34.04 157.49) rotate(-68.75)"/><line class="cls-3" x1="99.09" y1="98.78" x2="98.28" y2="102.74"/><circle class="cls-3" cx="101.6" cy="101.31" r="0.75" transform="translate(-29.64 159.28) rotate(-68.75)"/><circle class="cls-3" cx="95.78" cy="100.12" r="0.75" transform="translate(-32.25 153.1) rotate(-68.75)"/><line class="cls-3" x1="100.63" y1="101.11" x2="96.66" y2="100.3"/><circle class="cls-3" cx="101.17" cy="99.08" r="0.75" transform="translate(-31.33 49.13) rotate(-23.75)"/><circle class="cls-3" cx="96.21" cy="102.35" r="0.75" transform="translate(-33.07 47.41) rotate(-23.75)"/><line class="cls-3" x1="100.34" y1="99.63" x2="96.96" y2="101.85"/><circle class="cls-3" cx="100.33" cy="103.19" r="0.75" transform="translate(-33.06 49.14) rotate(-23.75)"/><circle class="cls-3" cx="97.05" cy="98.23" r="0.75" transform="translate(-31.34 47.41) rotate(-23.75)"/><line class="cls-3" x1="99.78" y1="102.36" x2="97.55" y2="98.99"/><path class="cls-3" d="M109,99.62s5.12-1.78-.59-3.19a9.12,9.12,0,0,0-4.94.34,9.19,9.19,0,0,0,.41-5.25c-1.49-5.83-3.24-.66-3.24-.66s.28-5.41-3.18-.65a9.24,9.24,0,0,0-1.56,5A9,9,0,0,0,91.58,93c-5.94-1-1.92,2.7-1.92,2.7s-4.84-2.44-1.88,2.65A9.36,9.36,0,0,0,92,101.89a9.1,9.1,0,0,0-3.4,3.73c-2.47,5.49,2.12,2.54,2.12,2.54s-3.59,4.06,2.08,2.49a9.47,9.47,0,0,0,4.68-3.37,9.35,9.35,0,0,0,2.92,4.85c4.68,3.78,3-1.41,3-1.41s3,4.5,2.94-1.38a9.22,9.22,0,0,0-1.7-4.87,9.18,9.18,0,0,0,5-1.59C114.42,99.3,109,99.62,109,99.62Z"/><path class="cls-3" d="M106.88,72.8c-.26,4.38-5.07,9.15-7.87,7.65s-1.45-8.3,2.08-10.9c4.8-3.53,2.87,1.61,2.87,1.61S107.23,66.72,106.88,72.8Z"/><path class="cls-3" d="M52.61,92.7c4.36.49,8.87,5.55,7.22,8.27s-8.37,1-10.77-2.66c-3.26-5,1.76-2.78,1.76-2.78S46.55,92,52.61,92.7Z"/><path class="cls-3" d="M67.26,111.09c1.26-4.2,7-7.73,9.43-5.63s-.51,8.41-4.54,10.12c-5.49,2.32-2.42-2.23-2.42-2.23S65.51,116.92,67.26,111.09Z"/></g></g></svg>