<svg xmlns="http://www.w3.org/2000/svg" viewBox="0 0 163.5 207.5"><defs><style>.cls-1,.cls-2{fill:none;}.cls-1{stroke:#4c4b4c;stroke-miterlimit:10;stroke-dasharray:4 4;}.cls-2{stroke:#221714;stroke-linecap:round;stroke-linejoin:round;stroke-width:0.71px;}.cls-3{fill:#221714;}</style></defs><title>アセット 17</title><g id="レイヤー_2" data-name="レイヤー 2"><g id="レイヤー_14" data-name="レイヤー 14"><rect class="cls-1" x="0.5" y="0.5" width="162.5" height="206.5"/><path class="cls-2" d="M66.91,87.08l31.8-31.8c3.46-3.46,7-2.94,9.56-.43h0c2.51,2.51,3,6.11-.43,9.56L76,96.21Z"/><path class="cls-2" d="M57.28,105.84h0c-2.19-2.19-2.81-5.16.21-8.18l10-10,8,8-10,10C62.44,108.65,59.47,108,57.28,105.84Z"/><path class="cls-2" d="M48.41,114.71h0c-1.64-1.64.35-6.31,1.27-7.23l5.21-5.21L56,104.54l2.66,2.66,2.22,1-5.21,5.21C54.72,114.35,50.05,116.34,48.41,114.71Z"/><path class="cls-2" d="M104.35,58.77h0c.5.5-.12,1.94-1.39,3.21L95.2,69.73l-1.82-1.82,7.75-7.75C102.4,58.9,103.85,58.27,104.35,58.77Z"/><rect class="cls-2" x="51.32" y="109.44" width="2.36" height="2.36" rx="1.18" ry="1.18" transform="translate(93.6 -4.72) rotate(45)"/><line class="cls-2" x1="51.21" y1="111.91" x2="48.41" y2="114.71"/><line class="cls-2" x1="84.25" y1="69.73" x2="93.39" y2="78.87"/><line class="cls-2" x1="50.3" y1="115.82" x2="102.51" y2="115.82"/><line class="cls-2" x1="72.91" y1="110.93" x2="106.38" y2="110.93"/><path class="cls-3" d="M30.61,147.91h-4v1.95c0,.44-.12.66-.48.77a7.41,7.41,0,0,1-1.84.12A3.17,3.17,0,0,0,24,150c.76,0,1.44,0,1.63,0s.26-.06.26-.21v-1.93h-4v-.69h4v-.72h.38a8.39,8.39,0,0,0,1.41-.88H23.5V145h4.88l.15,0,.48.36A8.89,8.89,0,0,1,26.58,147v.25h4Zm-7.87-2.43H22v-2.21h1.53a8.25,8.25,0,0,0-.84-1.25l.62-.28a6.7,6.7,0,0,1,1,1.36l-.34.17h2a5.82,5.82,0,0,0-.73-1.46l.64-.24a6.16,6.16,0,0,1,.81,1.53l-.43.17h1.77a10.82,10.82,0,0,0,1.07-1.59l.77.26c-.31.45-.68.93-1,1.33h1.55v2.21h-.72v-1.55h-7Z"/><path class="cls-3" d="M39.22,142.76a8.18,8.18,0,0,0,2.11,4.09l-.59.62a11,11,0,0,1-1.22-1.85c.21,2.5-.83,5-3.4,5A2.42,2.42,0,0,1,33.56,148a6.38,6.38,0,0,1,1.78-4.13c-.5.08-1.24.2-1.63.28l-.55.11-.12-.84.53,0a17.59,17.59,0,0,0,3.18-.57l.24.72c-.13.05-.38.11-.52.18a6.28,6.28,0,0,0-2.13,4.17,1.71,1.71,0,0,0,1.82,1.9c2.06,0,3.23-2.39,2.54-6l-.24-.72Zm1.07,1a14.52,14.52,0,0,0-.67-1.43l.5-.17c.2.37.52,1,.69,1.4Zm.85-2c.22.37.52,1,.71,1.4l-.52.19a11.3,11.3,0,0,0-.68-1.4Z"/><path class="cls-3" d="M47.36,149.49a6.33,6.33,0,0,0,.85-.12,3,3,0,0,0,2.51-2.93,2.74,2.74,0,0,0-2.63-2.87,20.84,20.84,0,0,1-.59,2.85c-.61,2-1.4,3.08-2.32,3.08s-1.77-1-1.77-2.65a4.23,4.23,0,0,1,4.34-4,3.59,3.59,0,0,1,3.8,3.64c0,2.08-1.37,3.47-3.73,3.78Zm-.65-3.24a16,16,0,0,0,.55-2.67,3.45,3.45,0,0,0-3.06,3.2c0,1.25.58,1.8,1,1.8S46.2,147.92,46.71,146.25Z"/><path class="cls-3" d="M56.8,147.48c-1,.51-2.1,1-2.94,1.44l-.29-.73,1.36-.59v-3.13H53.77v-.7h1.17v-2.08h.69v2.08h1.08v.7H55.63v2.81l1-.46Zm1.86-1.15a6.17,6.17,0,0,1-.43.7h4.3a3,3,0,0,1,0,.3c-.15,2.06-.31,2.84-.59,3.13a.81.81,0,0,1-.56.25c-.22,0-.59,0-1,0a1.26,1.26,0,0,0-.17-.6c.37,0,.7,0,.85,0s.23,0,.3-.11a5.49,5.49,0,0,0,.45-2.38H61a7,7,0,0,1-2,3.13,2.24,2.24,0,0,0-.53-.43,5.88,5.88,0,0,0,1.95-2.7h-1a7.56,7.56,0,0,1-2.43,2.7,2,2,0,0,0-.49-.46,6.6,6.6,0,0,0,2.25-2.24h-1a6.84,6.84,0,0,1-1.3,1.14,3.25,3.25,0,0,0-.51-.46,5.66,5.66,0,0,0,2-2h-1.4v-.63h6.26v.63Zm3.4-1.19H57.5v-3.23h4.57Zm-.69-2.67h-3.2v.79h3.2Zm0,1.31h-3.2v.8h3.2Z"/><path class="cls-3" d="M71.73,144c-.22.14-.47.27-.76.42a33.35,33.35,0,0,0-3,1.63c-.92.6-1.47,1.25-1.47,2s.78,1.33,2.34,1.33a14.62,14.62,0,0,0,3.17-.34v.9a19.45,19.45,0,0,1-3.13.24c-1.86,0-3.21-.56-3.21-2a3.24,3.24,0,0,1,1.71-2.57,32.83,32.83,0,0,1-1.44-3l.79-.32A22.65,22.65,0,0,0,68,145.16c.93-.56,2-1.08,2.54-1.39a3.92,3.92,0,0,0,.71-.47Z"/><path class="cls-3" d="M76.46,142.22c0,.32-.08.67-.1,1,0,1.12-.12,3.46-.12,4.94,0,1.09.7,1.47,1.62,1.47a4.13,4.13,0,0,0,3.56-2l.55.69a4.93,4.93,0,0,1-4.13,2.18c-1.42,0-2.4-.6-2.4-2.21s.1-4,.1-5a5,5,0,0,0-.09-1Z"/><path class="cls-3" d="M84.54,143.29c.65-.06,2.52-.25,4.34-.4,1.08-.09,2-.14,2.67-.17v.8a8.28,8.28,0,0,0-1.94.16,3.45,3.45,0,0,0-2.26,3.12c0,1.94,1.8,2.55,3.41,2.61l-.29.83c-1.83-.07-3.92-1-3.92-3.26a4,4,0,0,1,1.84-3.34c-.87.1-3.57.36-4.64.58l-.09-.88C84,143.33,84.35,143.31,84.54,143.29Z"/><path class="cls-3" d="M99,144.09a19.19,19.19,0,0,1-2,.34c-.09.43-.2.89-.31,1.31a29.41,29.41,0,0,1-1.55,4.54l-.88-.29a22,22,0,0,0,1.66-4.43c.09-.33.17-.69.25-1l-.9,0c-.44,0-.8,0-1.15,0l0-.78a8.73,8.73,0,0,0,1.19.07c.33,0,.68,0,1.06,0,.07-.36.12-.67.15-.87a4.75,4.75,0,0,0,0-.82l1,.08c-.07.22-.14.59-.18.79l-.15.73A14.32,14.32,0,0,0,99,143.3Zm-.39,3.47a3.54,3.54,0,0,0-.14.89c0,.47.22.92,1.63.92a11,11,0,0,0,1.93-.19l0,.81a14.63,14.63,0,0,1-1.91.13c-1.56,0-2.38-.48-2.38-1.46a5.51,5.51,0,0,1,.15-1.17Zm-.25-2.41c.52,0,1.17-.08,1.81-.08a15.64,15.64,0,0,1,1.71.08l0,.76a14.12,14.12,0,0,0-1.67-.12,16,16,0,0,0-1.83.11Z"/><path class="cls-3" d="M109.38,142.63c-.22.16-.52.42-.68.56-.69.59-2.11,1.73-2.84,2.33s-.6.67,0,1.2c.9.72,2.73,2.24,3.7,3.2l-.72.65c-.2-.24-.47-.49-.68-.72-.54-.58-2.19-2-3.12-2.75s-.83-1.23.07-2c.74-.63,2.24-1.81,2.91-2.49a4.57,4.57,0,0,0,.57-.66Z"/><path class="cls-3" d="M119.6,144c-.61.16-1.26.31-1.87.41.36.79.9,1.94,1.33,2.77l-.46.48c-.43-.09-1.41-.23-2-.29l.08-.65,1.4.14c-.28-.61-.78-1.64-1.08-2.33a21,21,0,0,1-4.21,0l0-.8a16.81,16.81,0,0,0,3.93.06l-.33-.73a7.89,7.89,0,0,0-.42-.83l.89-.17c.24.66.42,1.1.64,1.63a14.93,14.93,0,0,0,2-.5Zm-5.59,3a4,4,0,0,0-.28,1.25c0,.87.59,1.39,2.07,1.39a10.44,10.44,0,0,0,2.6-.27v.83a12.9,12.9,0,0,1-2.6.23c-1.84,0-2.86-.74-2.86-2a5.77,5.77,0,0,1,.27-1.52Z"/><path class="cls-3" d="M126.24,142.94c-.44.68-1.4,2.43-1.91,3.39a2.15,2.15,0,0,1,1.45-.6,1.13,1.13,0,0,1,1.17,1.21c0,.59,0,1.35,0,1.83a.71.71,0,0,0,.79.7c1.1,0,1.75-1.36,2-2.41l.66.53c-.52,1.6-1.36,2.71-2.8,2.71a1.28,1.28,0,0,1-1.43-1.26c0-.58,0-1.35,0-1.88a.65.65,0,0,0-.72-.69c-.8,0-1.53.8-1.92,1.58a15.56,15.56,0,0,0-.85,2.25l-.87-.29a71.62,71.62,0,0,1,3.5-7.14c.11-.24.24-.48.36-.77l.89.36A4,4,0,0,0,126.24,142.94Z"/><path class="cls-3" d="M136.26,149.49a6.33,6.33,0,0,0,.85-.12,3,3,0,0,0,2.51-2.93,2.74,2.74,0,0,0-2.63-2.87,20.84,20.84,0,0,1-.59,2.85c-.61,2-1.4,3.08-2.32,3.08s-1.77-1-1.77-2.65a4.23,4.23,0,0,1,4.34-4,3.59,3.59,0,0,1,3.8,3.64c0,2.08-1.37,3.47-3.73,3.78Zm-.65-3.24a16,16,0,0,0,.55-2.67,3.45,3.45,0,0,0-3.06,3.2c0,1.25.58,1.8,1,1.8S135.1,147.92,135.61,146.25Z"/><path class="cls-3" d="M27,161.12a9.42,9.42,0,0,0,1.78-2.38l-3.78.77v3c0,.69.25.91,1.45.91a16,16,0,0,0,3.12-.29l0,.86a23.13,23.13,0,0,1-3.14.2c-1.86,0-2.2-.48-2.2-1.47v-3c-1,.2-1.9.39-2.3.48l-.16-.84c.45-.06,1.4-.23,2.46-.43v-1.71a5.63,5.63,0,0,0-.07-.92h.95a5.72,5.72,0,0,0-.07.92v1.56c1.7-.33,3.45-.69,3.87-.78a2,2,0,0,0,.53-.18l.59.46a4.54,4.54,0,0,0-.25.4,15.17,15.17,0,0,1-2,2.91Z"/><path class="cls-3" d="M38.86,163.46l-.34.77a32.65,32.65,0,0,0-5.92-1.51l.31-.76A35.16,35.16,0,0,1,38.86,163.46Zm-.36-3.21-.32.77a29.23,29.23,0,0,0-5-1.22l.3-.75A35.64,35.64,0,0,1,38.5,160.25Zm.66-2.68-.32.77a33.1,33.1,0,0,0-5.22-1.19l.29-.74A35.31,35.31,0,0,1,39.16,157.57Z"/><path class="cls-3" d="M49.11,158.58c.33,0,.71,0,.87,0v.85c-.16,0-.57,0-.88,0H46.46a5.24,5.24,0,0,1-2.77,5l-.78-.58a4.47,4.47,0,0,0,2.71-4.42H42.69c-.38,0-.74,0-.94,0v-.86c.2,0,.56,0,.92,0h2.95v-1.35a5.59,5.59,0,0,0-.09-1h1a9.15,9.15,0,0,0-.06,1v1.34Z"/><path class="cls-3" d="M52.54,159.65c.3,0,.83,0,1.39,0h5.48c.5,0,.86,0,1.08,0v1c-.2,0-.62,0-1.07,0H53.93c-.55,0-1.08,0-1.39,0Z"/><path class="cls-3" d="M65.05,156.48c-.06.17-.15.49-.19.67a22.71,22.71,0,0,0-.48,3.79,10.42,10.42,0,0,0,.08,1.36c.17-.45.39-1,.55-1.42l.43.32a21.39,21.39,0,0,0-.7,2.22,2.44,2.44,0,0,0,0,.44l0,.35-.72.05a12.44,12.44,0,0,1-.36-3.18,27.47,27.47,0,0,1,.44-4,5.85,5.85,0,0,0,.07-.7Zm2.26,4.8a3.68,3.68,0,0,0-.13.91c0,.45.3.89,1.66.89a10.76,10.76,0,0,0,2.45-.26v.84a13.14,13.14,0,0,1-2.47.2c-1.66,0-2.4-.55-2.4-1.48a5.75,5.75,0,0,1,.16-1.17Zm-.39-4a17.32,17.32,0,0,0,4.07,0v.82a24.91,24.91,0,0,1-4.06,0Z"/><path class="cls-3" d="M82,160.62v4.1h-.76v-.6H75v.62h-.74v-4.12H75v2.77h2.67V160h-3v-3.42h.74v2.7h2.29v-3.59h.76v3.59h2.4v-2.7h.77V160H78.44v3.41h2.81v-2.77Z"/><path class="cls-3" d="M86.13,160.73a4.68,4.68,0,0,1,3.2-1.19,2.25,2.25,0,0,1,2.53,2.07c0,1.78-1.57,3-5.25,2.67l-.24-.82c3.12.38,4.65-.52,4.65-1.87,0-.79-.73-1.34-1.74-1.34a3.85,3.85,0,0,0-3.06,1.31,2.05,2.05,0,0,0-.3.5l-.75-.18a34.86,34.86,0,0,0,.5-4l.85.11C86.39,158.65,86.22,160.09,86.13,160.73Zm.61-4.56a26.52,26.52,0,0,0,3.83.76l-.19.78c-.94-.13-3.09-.57-3.85-.78Z"/><path class="cls-3" d="M103.62,163.18a2.53,2.53,0,0,1-1.82.83c-.65,0-1.1-.44-1.1-1.26,0-1.1.37-2.73.37-3.69a.7.7,0,0,0-.79-.81c-.8,0-2,.93-2.91,1.91,0,.42,0,.81,0,1.16,0,.9,0,1.5,0,2.39,0,.17,0,.42,0,.6h-.87c0-.14,0-.43,0-.59,0-.95,0-1.44,0-2.54,0-.1,0-.23,0-.38-.48.73-1.13,1.68-1.61,2.34l-.5-.69c.55-.69,1.69-2.23,2.19-3,0-.32,0-.64.06-1l-1.93.25-.08-.83a4.87,4.87,0,0,0,.65,0c.32,0,.9-.08,1.41-.16,0-.47,0-.82,0-.93a3.76,3.76,0,0,0,0-.74l.95,0c0,.24-.13.8-.2,1.49l0,0,.29.35-.44.69c0,.18,0,.37,0,.56a5.6,5.6,0,0,1,3-1.66,1.24,1.24,0,0,1,1.4,1.33c0,1-.37,2.7-.37,3.7,0,.34.16.6.51.6a2.18,2.18,0,0,0,1.49-.82Z"/><path class="cls-3" d="M112.75,163.86a7.35,7.35,0,0,0-2.39-1.49c0,.25,0,.47,0,.62,0,.68-.46,1.39-1.75,1.39s-2.21-.51-2.21-1.47.87-1.51,2.3-1.51a5.57,5.57,0,0,1,.83.06c0-.44,0-.91,0-1.32H109c-.68,0-1.78-.06-2.49-.14v-.76a17.58,17.58,0,0,0,2.49.19h.53V158H109c-.69,0-1.74-.08-2.33-.15v-.74a15.72,15.72,0,0,0,2.32.19h.51v-.65a5.4,5.4,0,0,0,0-.59h.85a5.17,5.17,0,0,0,0,.66c0,.12,0,.31,0,.55a22.07,22.07,0,0,0,2.54-.24v.73c-.78.08-1.63.16-2.56.21v1.42a26.73,26.73,0,0,0,2.75-.26v.75c-.93.12-1.81.19-2.75.23,0,.51,0,1,.07,1.5a8.11,8.11,0,0,1,2.88,1.54Zm-3.17-1.71a5.07,5.07,0,0,0-1-.09c-.94,0-1.45.36-1.45.81s.39.8,1.37.8c.57,0,1-.17,1-.85C109.59,162.65,109.58,162.42,109.58,162.15Z"/><path class="cls-3" d="M120.76,158.06c0,.56,0,1.17,0,1.62a2.42,2.42,0,0,1,.32,1.27c0,1.34-.65,2.83-2.95,3.52l-.69-.67a3.54,3.54,0,0,0,2.63-1.72,1.42,1.42,0,0,1-.85.25,1.59,1.59,0,0,1-1.64-1.66,1.74,1.74,0,0,1,1.75-1.73,2,2,0,0,1,.66.11c0-.29,0-.64,0-1-1.5,0-3.18.08-4.42.17l0-.78c1.1,0,3-.08,4.43-.1,0-.28,0-.51,0-.65s0-.5-.06-.62h.91l0,.62c0,.15,0,.38,0,.64h3v.75c-.56,0-1.46,0-2.91,0Zm-.53,2.17a.88.88,0,0,0-.88-.61,1,1,0,0,0-1,1,1,1,0,0,0,1,1C119.95,161.64,120.33,161.17,120.24,160.23Z"/><path class="cls-3" d="M128.76,163.06a1.52,1.52,0,1,1-1.53-1.52A1.53,1.53,0,0,1,128.76,163.06Zm-.52,0a1,1,0,0,0-1-1,1,1,0,0,0,0,2A1,1,0,0,0,128.24,163.06Z"/><path class="cls-3" d="M140.1,160.62v4.1h-.76v-.6H133.1v.62h-.74v-4.12h.74v2.77h2.67V160h-3v-3.42h.74v2.7h2.29v-3.59h.76v3.59h2.4v-2.7h.77V160h-3.17v3.41h2.81v-2.77Z"/><path class="cls-3" d="M26.94,172.09a19.19,19.19,0,0,1-2,.34c-.09.43-.2.89-.31,1.31A29.41,29.41,0,0,1,23,178.28l-.88-.29a22.06,22.06,0,0,0,1.66-4.43c.09-.33.17-.69.25-1l-.9,0c-.44,0-.8,0-1.15,0l0-.78a8.73,8.73,0,0,0,1.19.07c.33,0,.68,0,1.06,0,.07-.36.12-.67.15-.87a4.75,4.75,0,0,0,0-.82l1,.08c-.07.22-.14.59-.18.79l-.15.73a14.32,14.32,0,0,0,1.89-.36Zm-.39,3.47a3.54,3.54,0,0,0-.14.89c0,.47.22.92,1.63.92a11,11,0,0,0,1.93-.19l0,.81a14.63,14.63,0,0,1-1.91.13c-1.56,0-2.38-.48-2.38-1.46a5.51,5.51,0,0,1,.15-1.17Zm-.25-2.41c.52,0,1.17-.08,1.81-.08a15.64,15.64,0,0,1,1.71.08l0,.76a14.12,14.12,0,0,0-1.67-.12,16,16,0,0,0-1.83.11Z"/><path class="cls-3" d="M34.15,172c0,.62,0,1.53.07,2.34.16,1.66.64,2.75,1.34,2.75.51,0,1-1,1.23-2l.63.72c-.59,1.68-1.2,2.25-1.88,2.25-.93,0-1.83-.93-2.1-3.5a26.28,26.28,0,0,1-.11-2.64,5.2,5.2,0,0,0-.06-.88l1,0C34.19,171.26,34.16,171.72,34.15,172Zm7,4.16-.81.32a9.79,9.79,0,0,0-1.71-4.9l.78-.27A10.2,10.2,0,0,1,41.12,176.14Z"/><path class="cls-3" d="M50.58,173.73a3.28,3.28,0,0,1,1,2.29c0,1.47-1.33,2.37-3.28,2.37-1.35,0-2.44-.59-2.44-2.21,0-.27,0-.67.08-1.14a9.59,9.59,0,0,1-2.06-.36l0-.76a8.14,8.14,0,0,0,2.09.4c.07-.58.15-1.2.22-1.78a13.49,13.49,0,0,1-2.11-.34l0-.74a9,9,0,0,0,2.16.36c0-.4.09-.76.11-1a4,4,0,0,0,0-.69l.9,0a5.48,5.48,0,0,0-.13.69c0,.25-.08.6-.13,1a15,15,0,0,0,2-.12l0,.75a19.93,19.93,0,0,1-2,.1H47c-.08.58-.15,1.2-.22,1.77H47a16,16,0,0,0,2.06-.12l0,.76a17.79,17.79,0,0,1-1.94.09h-.36c0,.39-.06.74-.06,1,0,.94.54,1.54,1.67,1.54,1.5,0,2.46-.64,2.46-1.67a2.72,2.72,0,0,0-1.09-2Z"/><path class="cls-3" d="M58.52,177.49a6.33,6.33,0,0,0,.85-.12,3,3,0,0,0,2.51-2.93,2.74,2.74,0,0,0-2.63-2.87,20.84,20.84,0,0,1-.59,2.85c-.61,2-1.4,3.08-2.32,3.08s-1.77-1-1.77-2.65a4.23,4.23,0,0,1,4.34-4,3.59,3.59,0,0,1,3.8,3.64c0,2.08-1.37,3.47-3.73,3.78Zm-.65-3.24a16,16,0,0,0,.55-2.67,3.45,3.45,0,0,0-3.06,3.2c0,1.25.58,1.8,1,1.8S57.36,175.92,57.87,174.25Z"/><path class="cls-3" d="M67.45,170.48c-.06.17-.15.49-.19.67a22.71,22.71,0,0,0-.48,3.79,10.42,10.42,0,0,0,.08,1.36c.17-.45.39-1,.55-1.42l.43.32a21.39,21.39,0,0,0-.7,2.22,2.44,2.44,0,0,0,0,.44l0,.35-.72.05a12.44,12.44,0,0,1-.36-3.18,27.61,27.61,0,0,1,.44-4,5.85,5.85,0,0,0,.07-.7Zm2.26,4.8a3.68,3.68,0,0,0-.13.91c0,.45.3.89,1.66.89a10.76,10.76,0,0,0,2.45-.26v.84a13.14,13.14,0,0,1-2.47.2c-1.66,0-2.4-.55-2.4-1.48a5.75,5.75,0,0,1,.16-1.17Zm-.39-4a17.32,17.32,0,0,0,4.07,0v.82a24.91,24.91,0,0,1-4.06,0Z"/><path class="cls-3" d="M84.38,171v7.74h-.77v-.51H78.28v.56h-.74V171h2.51a12.79,12.79,0,0,0,.39-1.37l.85.11c-.15.43-.33.88-.5,1.26Zm-6.1.71v1.49h5.33v-1.49Zm0,2.19v1.45h5.33v-1.45Zm5.33,3.63V176H78.28v1.48Z"/><path class="cls-3" d="M91.32,170a10.3,10.3,0,0,1-3.14,4.11,4.94,4.94,0,0,0-.63-.58,8.4,8.4,0,0,0,3-3.75Zm4.06,3.33s0,.26,0,.36c-.14,3.07-.29,4.22-.63,4.6a1,1,0,0,1-.77.35,14.15,14.15,0,0,1-1.57,0,1.82,1.82,0,0,0-.25-.74c.65.06,1.27.07,1.5.07s.33,0,.42-.13c.26-.25.4-1.25.52-3.77H92c-.26,2-.9,3.78-3.44,4.7a3,3,0,0,0-.48-.65,4.31,4.31,0,0,0,3.13-4h-2v-.72ZM94,169.8a10.56,10.56,0,0,0,3,3.6,3.76,3.76,0,0,0-.61.66,13.21,13.21,0,0,1-3.1-4Z"/><path class="cls-3" d="M102.9,170.21c0,.18-.08.39-.12.58s-.14.87-.25,1.4c.46,0,.87-.06,1.11-.06.88,0,1.61.34,1.61,1.68a9.51,9.51,0,0,1-.58,3.57,1.39,1.39,0,0,1-1.45.83,5.9,5.9,0,0,1-1.16-.15l-.13-.84a4.87,4.87,0,0,0,1.21.22.83.83,0,0,0,.87-.51,8.51,8.51,0,0,0,.46-3c0-.9-.41-1.06-1-1.06-.24,0-.63,0-1.06.07a19.87,19.87,0,0,1-2.08,5.32l-.82-.33a15.51,15.51,0,0,0,2.08-4.91l-1.25.13-.89.12-.08-.87c.31,0,.57,0,.88,0s.91-.06,1.51-.11a11.58,11.58,0,0,0,.25-2.15Zm3.41,1a17.43,17.43,0,0,1,1.81,3.54l-.78.37a11.89,11.89,0,0,0-1.77-3.59Z"/><path class="cls-3" d="M111.73,174.73a4.68,4.68,0,0,1,3.2-1.19,2.25,2.25,0,0,1,2.53,2.07c0,1.78-1.57,3-5.25,2.67l-.24-.82c3.12.38,4.65-.52,4.65-1.87,0-.79-.73-1.34-1.74-1.34a3.85,3.85,0,0,0-3.06,1.31,2.05,2.05,0,0,0-.3.5l-.75-.18a34.86,34.86,0,0,0,.5-4l.85.11C112,172.65,111.82,174.09,111.73,174.73Zm.61-4.56a26.52,26.52,0,0,0,3.83.76l-.19.78c-.94-.13-3.09-.57-3.85-.78Z"/><path class="cls-3" d="M126.75,173.47a7.25,7.25,0,0,0,2.73,1.92,3.05,3.05,0,0,0-.49.58,8,8,0,0,1-3.06-2.5h-2.21a8.29,8.29,0,0,1-3.14,2.55,4.26,4.26,0,0,0-.55-.58,7.19,7.19,0,0,0,2.79-2h-2.45v-.64h2.93a5.86,5.86,0,0,0,.49-.89l-2.95.08-.09-.68,1.66,0a11.47,11.47,0,0,0,1.08-1.7l.8.22c-.32.48-.7,1-1.06,1.46l3.76-.09c-.37-.29-.76-.58-1.12-.82l.58-.35a12.63,12.63,0,0,1,2.53,2l-.61.41a7.26,7.26,0,0,0-.68-.69l-3.09.12a8.77,8.77,0,0,1-.46.92h5.13v.64Zm1.32,3.07c-1.21,1.24-3.49,1.93-6,2.26a2.42,2.42,0,0,0-.35-.62c2.41-.26,4.63-.87,5.72-1.95Zm-1.34-1.14a10.53,10.53,0,0,1-4,1.71,2.52,2.52,0,0,0-.41-.53,10.56,10.56,0,0,0,3.85-1.47Zm-1-1.17a9.45,9.45,0,0,1-2.93,1.33,2.61,2.61,0,0,0-.44-.45,9.31,9.31,0,0,0,2.78-1.16Z"/><path class="cls-3" d="M136.1,171.87c-.08,4.42-.15,5.87-.46,6.3a.79.79,0,0,1-.66.38,6.38,6.38,0,0,1-1.17,0,1.89,1.89,0,0,0-.22-.75c.46,0,.89,0,1.07,0a.29.29,0,0,0,.33-.16c.23-.28.32-1.64.39-5.47h-1.51c-.09,2.68-.43,5.07-1.78,6.53a2.3,2.3,0,0,0-.56-.51c1.24-1.31,1.54-3.52,1.62-6h-1.38v-.73h1.4c0-.57,0-1.15,0-1.74h.73c0,.59,0,1.17,0,1.74h2.21Zm4.2-1v7.67h-.74v-.66h-1.94v.73h-.7v-7.74Zm-.74,6.3v-5.58h-1.94v5.58Z"/><path class="cls-3" d="M60,186.06c0,.56,0,1.17,0,1.62a2.42,2.42,0,0,1,.32,1.27c0,1.34-.65,2.83-2.95,3.52l-.69-.67a3.54,3.54,0,0,0,2.63-1.72,1.42,1.42,0,0,1-.85.25,1.59,1.59,0,0,1-1.64-1.66,1.74,1.74,0,0,1,1.75-1.73,2,2,0,0,1,.66.11c0-.29,0-.64,0-1-1.5,0-3.18.08-4.42.17l0-.78c1.1,0,3-.08,4.43-.1,0-.28,0-.51,0-.65s0-.5-.06-.62h.91l0,.62c0,.15,0,.38,0,.64h3v.75c-.56,0-1.46,0-2.91,0Zm-.53,2.17a.88.88,0,0,0-.88-.61,1,1,0,0,0-1,1,1,1,0,0,0,1,1C59.2,189.64,59.58,189.17,59.49,188.23Z"/><path class="cls-3" d="M71.18,185l-.55.38c-.49.37-1.82,1.54-2.58,2.18a4.22,4.22,0,0,1,1.34-.21c1.65,0,2.84,1,2.84,2.34,0,1.6-1.33,2.64-3.42,2.64-1.35,0-2.18-.6-2.18-1.42a1.41,1.41,0,0,1,1.53-1.3,2,2,0,0,1,2,1.75,1.73,1.73,0,0,0,1.23-1.68c0-1-1-1.68-2.23-1.68-1.63,0-2.53.69-3.79,2l-.58-.59,2.67-2.22c.55-.46,1.78-1.5,2.27-1.94l-3,.14a4.72,4.72,0,0,0-.67.06l0-.83a5.76,5.76,0,0,0,.7,0c.51,0,2.86-.07,3.38-.12a3.68,3.68,0,0,0,.54-.08Zm-1.71,6.55a1.32,1.32,0,0,0-1.31-1.32c-.45,0-.79.27-.79.61,0,.49.57.77,1.31.77A4.85,4.85,0,0,0,69.47,191.59Z"/><path class="cls-3" d="M76,189a3.9,3.9,0,0,0-.2,1.13c0,.74.76,1.26,2.34,1.26a12.89,12.89,0,0,0,3.39-.38v.86a14.58,14.58,0,0,1-3.38.34c-2,0-3.18-.66-3.18-1.9a6.27,6.27,0,0,1,.2-1.39Zm-.41-4a22.1,22.1,0,0,0,2.62.13c.95,0,2-.07,2.67-.14v.82c-.67,0-1.76.12-2.67.12s-1.83,0-2.62-.11Z"/><path class="cls-3" d="M90.89,186c-.22.14-.47.27-.76.42a33.35,33.35,0,0,0-3,1.63c-.92.6-1.47,1.25-1.47,2s.78,1.33,2.34,1.33a14.62,14.62,0,0,0,3.17-.34v.9a19.45,19.45,0,0,1-3.13.24c-1.86,0-3.21-.56-3.21-2a3.24,3.24,0,0,1,1.71-2.57,32.83,32.83,0,0,1-1.44-3l.79-.32a22.65,22.65,0,0,0,1.33,2.93c.93-.56,2-1.08,2.54-1.39a3.92,3.92,0,0,0,.71-.47Z"/><path class="cls-3" d="M100.44,187.73a3.28,3.28,0,0,1,1,2.29c0,1.47-1.33,2.37-3.28,2.37-1.35,0-2.44-.59-2.44-2.21,0-.27,0-.67.08-1.14a9.59,9.59,0,0,1-2.06-.36l0-.76a8.14,8.14,0,0,0,2.09.4c.07-.58.15-1.2.22-1.78A13.49,13.49,0,0,1,94,186.2l0-.74a9,9,0,0,0,2.16.36c0-.4.09-.76.11-1a4,4,0,0,0,0-.69l.9,0a5.48,5.48,0,0,0-.13.69c0,.25-.08.6-.13,1a15,15,0,0,0,2-.12l0,.75a19.93,19.93,0,0,1-2,.1h-.07c-.08.58-.15,1.2-.22,1.77h.19a16,16,0,0,0,2.06-.12l0,.76a17.79,17.79,0,0,1-1.94.09h-.36c0,.39-.06.74-.06,1,0,.94.54,1.54,1.67,1.54,1.5,0,2.46-.64,2.46-1.67a2.72,2.72,0,0,0-1.09-2Z"/><path class="cls-3" d="M106.62,191.06a1.52,1.52,0,1,1-1.53-1.52A1.53,1.53,0,0,1,106.62,191.06Zm-.52,0a1,1,0,0,0-1-1,1,1,0,0,0,0,2A1,1,0,0,0,106.1,191.06Z"/><path class="cls-3" d="M43.15,30.28c-.29-.39-.77-1-1.25-1.47v5.28H40.25V29.26a11.56,11.56,0,0,1-1.74,1.34A6.71,6.71,0,0,0,37.73,29a10.54,10.54,0,0,0,3.92-3.92H38.26V23.6h2V21H41.9V23.6h.63l.29-.07.94.6a13.6,13.6,0,0,1-1.65,3c.67.55,1.75,1.51,2,1.79Zm8,1.78v1.63H43.25V32.06h3.24V26.93H43.82V25.32h2.66V21.13h1.71v4.19h2.65v1.61H48.19v5.13Z"/><path class="cls-3" d="M63.83,27.56a11.56,11.56,0,0,0,2.93,1.88,8,8,0,0,0-1.22,1.46,11.88,11.88,0,0,1-1.71-1.11v4.27H62.09v-5.9a15.83,15.83,0,0,1-1.71-2.26c-1.05,4-3,6.64-5.49,8.05a7.07,7.07,0,0,0-1.33-1.25,9.51,9.51,0,0,0,3.8-3.63,17.89,17.89,0,0,0-2.1-1.6,6.9,6.9,0,0,1-.71.83,10,10,0,0,0-1.39-1.06A12.67,12.67,0,0,0,56.45,21l1.65.32c-.15.59-.32,1.15-.52,1.71h1.95l.29-.06,1.09.38q-.11.63-.21,1.22l.52-.2a9.48,9.48,0,0,0,.87,1.34V21h1.74ZM57,24.62a14.78,14.78,0,0,1-.84,1.62,17.27,17.27,0,0,1,2,1.36,16,16,0,0,0,.9-3Z"/><path class="cls-3" d="M76.2,28.78A12.16,12.16,0,0,0,78.44,26l-4.31.85v3.71c0,.87.25,1.18,1.78,1.18a24.12,24.12,0,0,0,4.43-.46l-.06,1.89a32.94,32.94,0,0,1-4.34.31c-3.19,0-3.66-.77-3.66-2.42V27.18c-1.25.25-2.35.48-2.94.62L69,26c.66-.08,1.89-.29,3.28-.55v-2a11.7,11.7,0,0,0-.11-1.6h2.09a11.63,11.63,0,0,0-.13,1.6v1.65c2-.38,4-.79,4.64-.92a4.61,4.61,0,0,0,1-.34l1.35,1a8.77,8.77,0,0,0-.46.76,19.69,19.69,0,0,1-2.9,4.08Z"/><path class="cls-3" d="M93.73,31.78,93,33.53a50,50,0,0,0-8.56-2.09l.7-1.76A56.38,56.38,0,0,1,93.73,31.78Zm-.59-4.4-.69,1.75a48.65,48.65,0,0,0-7.28-1.76l.64-1.7A57.89,57.89,0,0,1,93.14,27.38Zm1-3.82-.71,1.75a48.24,48.24,0,0,0-7.58-1.75l.66-1.65A51.09,51.09,0,0,1,94.1,23.56Z"/><path class="cls-3" d="M108.12,25c.64,0,1.23-.06,1.53-.08v1.91c-.29,0-1-.06-1.54-.06H105a7.53,7.53,0,0,1-4,6.92l-1.74-1.29a6,6,0,0,0,3.8-5.63H99.45c-.62,0-1.18,0-1.61.07V24.87c.42,0,1,.1,1.55.1H103V23.43a7,7,0,0,0-.18-1.64h2.23a10.94,10.94,0,0,0-.11,1.65V25Z"/><path class="cls-3" d="M112.43,26.39c.5,0,1.53.08,2.25.08h7.52c.64,0,1.27-.06,1.64-.08v2.2c-.34,0-1.05-.07-1.64-.07h-7.52c-.8,0-1.74,0-2.25.07Z"/></g></g></svg>