<svg xmlns="http://www.w3.org/2000/svg" viewBox="0 0 163.5 207.5"><defs><style>.cls-1{fill:none;stroke:#4c4b4c;stroke-miterlimit:10;stroke-dasharray:4 4;}.cls-2{fill:#e6e6e6;stroke:#221714;stroke-linecap:round;stroke-linejoin:round;stroke-width:0.71px;}.cls-3{fill:#221714;}</style></defs><title>アセット 18</title><g id="レイヤー_2" data-name="レイヤー 2"><g id="レイヤー_14" data-name="レイヤー 14"><rect class="cls-1" x="0.5" y="0.5" width="162.5" height="206.5"/><path class="cls-2" d="M110.1,60.75s-.88-3.11-11.77,12.92c-.37-.3.41.24,0,0l6.86-10.58c.57-.93,1-4.47.62-4.67,0,0-2.83,1.3-3.85,2.77-1.39,2-2.36,4.28-6.74,11.07-.31-.1.3.08,0,0C104.68,55.19,101.39,56,101.39,56c-.37-.2-1.15.4-1.72,1.33L91,71.45l-2.89,4.7-.63,1c-.57.93-.82,3.63.47,4.33l.33.18L68.53,113.84c-.57.93,0,2.27,1.31,3s2.82.51,3.39-.42L93,84.22l.33.18c1.29.7,3.65-.85,4.23-1.78l.63-1,2.89-4.71,8.66-14.08C110.3,61.88,110.47,61,110.1,60.75Z"/><path class="cls-2" d="M57.84,58.05c1.29-.7,2.82-.51,3.39.42l7.92,12.88L79.46,88.13l15.81,25.71c.57.93,0,2.27-1.31,3s-2.82.51-3.39-.42l-14.76-24L72.8,94c-1.29.7-2.82.51-3.39-.42l-6-9.8C53.76,62.53,57.84,58.05,57.84,58.05Z"/><path class="cls-3" d="M25.2,146.17a7.33,7.33,0,0,1,2.17-.36c1.44,0,2.48.79,2.48,2s-.75,2-2.11,2.29a6.36,6.36,0,0,1-1.22.13l-.28-.79a5.68,5.68,0,0,0,1.16-.07c.87-.16,1.66-.63,1.66-1.55s-.76-1.29-1.7-1.29a6.37,6.37,0,0,0-2.15.39c0,.84,0,1.71,0,2.14,0,.92-.35,1.21-.88,1.21-.78,0-2.07-.75-2.07-1.64s1-1.67,2.17-2.16v-.56c0-.4,0-.86,0-1.3l-.73,0a12.36,12.36,0,0,1-1.26,0l0-.76a8.94,8.94,0,0,0,1.26.08l.76,0c0-.52,0-.95,0-1.13a3.88,3.88,0,0,0-.06-.7h.87c0,.18,0,.45,0,.68s0,.63,0,1.07a13,13,0,0,0,2-.4v.79a20.16,20.16,0,0,1-2.06.34c0,.47,0,.94,0,1.34Zm-.69,2.76c0-.36,0-1,0-1.75-.8.38-1.39.94-1.39,1.39s.68.84,1.07.84C24.39,149.41,24.51,149.24,24.51,148.93Zm3.9-5.82a16.73,16.73,0,0,1,2.26,1.45l-.4.64A12.77,12.77,0,0,0,28,143.72Z"/><path class="cls-3" d="M39.54,144.59a5.76,5.76,0,0,0,2.1,3.38,2.94,2.94,0,0,0-.53.63,5.24,5.24,0,0,1-1.67-2.21V149H34.66v-3.59h4.4c-.08-.25-.16-.51-.22-.78H34.48a6.88,6.88,0,0,1-1.57,4.08,2.5,2.5,0,0,0-.55-.53,6.79,6.79,0,0,0,1.45-4.69v-1.39h6.7v2.53Zm-6.69,5.14h8.34v.68H32.86Zm1.67-6.27c0,.15,0,.31,0,.48h5.24V142.7H34.53Zm4.21,2.48H35.33v1h3.41Zm0,1.48H35.33v1h3.41Z"/><path class="cls-3" d="M48,148.63c0-.38,0-1,0-1.54-.92.5-1.56,1-1.56,1.66s.77.89,1.79.89a17.36,17.36,0,0,0,2.7-.24l0,.81a25.27,25.27,0,0,1-2.71.16c-1.42,0-2.56-.3-2.56-1.51s1.18-1.91,2.33-2.51a.84.84,0,0,0-.89-.61,2.63,2.63,0,0,0-1.71.73c-.28.27-.56.64-.9,1l-.68-.51a10.43,10.43,0,0,0,2.28-3h-.41c-.42,0-1.09,0-1.63-.06v-.75c.53.06,1.22.1,1.67.1h.65a5.4,5.4,0,0,0,.25-1.23l.82.07c-.07.28-.16.69-.3,1.14a26.46,26.46,0,0,0,3-.3v.74a30.48,30.48,0,0,1-3.28.28,7.08,7.08,0,0,1-.89,1.52,2.8,2.8,0,0,1,1.37-.37,1.24,1.24,0,0,1,1.31.9c.68-.32,1.28-.56,1.8-.8.3-.13.54-.25.82-.39l.32.75c-.25.07-.61.21-.87.31-.56.22-1.27.51-2,.86,0,.57,0,1.41,0,1.89Z"/><path class="cls-3" d="M62.13,147.83a18.44,18.44,0,0,1-2.28,1.36,7.85,7.85,0,0,0,2.83.91,2.8,2.8,0,0,0-.45.64,6,6,0,0,1-4.59-2.89H56.09v1.95l2.57-.24v.66c-1.56.17-3.19.33-4.33.43l-.11-.69,1.13-.1v-5.29a12.24,12.24,0,0,1-1.34.72,3,3,0,0,0-.44-.6,10.81,10.81,0,0,0,4.16-3.09h.73a11.61,11.61,0,0,0,4.37,3,5,5,0,0,0-.48.65,14,14,0,0,1-1.33-.69v3.26l.55-.4Zm-1.44-3.49a11.9,11.9,0,0,1-2.55-2.07,11.2,11.2,0,0,1-2.42,2.07h2.06v-1h.75v1Zm-4.61,1.45H60.3v-.84H56.09Zm0,1.45H60.3v-.88H56.09Zm2.31.61a3.82,3.82,0,0,0,.91,1,14.62,14.62,0,0,0,1.64-1Z"/><path class="cls-3" d="M65.52,146.73c.53-.53,1.37-1.66,1.94-2.35s1.11-.77,1.76-.11,1.36,1.59,2,2.27,1.57,1.7,2.46,2.5l-.63.71c-.75-.71-1.66-1.73-2.34-2.5s-1.39-1.69-1.86-2.19-.61-.39-.94,0c-.46.58-1.29,1.67-1.78,2.28-.21.26-.43.58-.59.78l-.73-.76A5.29,5.29,0,0,0,65.52,146.73Zm6.65-1.9-.59.26a10.72,10.72,0,0,0-.94-1.61l.58-.25A17.56,17.56,0,0,1,72.16,144.83Zm1.32-.54-.57.28a11.37,11.37,0,0,0-1-1.59l.56-.26A12.66,12.66,0,0,1,73.48,144.29Z"/><path class="cls-3" d="M81.07,144a11.76,11.76,0,0,1-1.79.36,17.78,17.78,0,0,1-2.16,4.19l-.78-.4a14.2,14.2,0,0,0,2.12-3.7c-.29,0-.58,0-.87,0l-1.15,0-.06-.75a9.17,9.17,0,0,0,1.22.07c.35,0,.72,0,1.1,0A8.06,8.06,0,0,0,79,142l.89.08c-.1.36-.23,1-.39,1.53a10,10,0,0,0,1.54-.36Zm1.16,1.15a9.38,9.38,0,0,0,0,1.07c0,.36,0,1,.07,1.61a6.68,6.68,0,0,1,2,1.24l-.43.68a6.88,6.88,0,0,0-1.59-1.13c0,.15,0,.29,0,.4,0,.79-.52,1.44-1.74,1.44s-2-.45-2-1.43.86-1.5,2-1.5a4.71,4.71,0,0,1,.94.09c0-.81-.08-1.78-.1-2.47Zm-.67,3.17a3.6,3.6,0,0,0-1-.14c-.73,0-1.21.33-1.21.78s.37.77,1.14.77,1.08-.45,1.08-.94C81.56,148.64,81.56,148.48,81.55,148.3Zm2.64-2.9A11.87,11.87,0,0,0,81.93,144l.39-.62a15,15,0,0,1,2.32,1.32Z"/><path class="cls-3" d="M90.38,142.24c0,.19-.09.39-.12.59s-.15.87-.26,1.4c.46,0,.87-.07,1.11-.07.89,0,1.61.35,1.61,1.69a9.51,9.51,0,0,1-.57,3.57,1.4,1.4,0,0,1-1.45.82,6.08,6.08,0,0,1-1.17-.14l-.13-.85a4.52,4.52,0,0,0,1.22.22.83.83,0,0,0,.86-.51,8.23,8.23,0,0,0,.47-3c0-.9-.41-1.06-1-1.06-.24,0-.63,0-1.06.07a19.86,19.86,0,0,1-2.08,5.31l-.81-.33A15.69,15.69,0,0,0,89,145l-1.25.13c-.24,0-.64.07-.89.12l-.08-.87c.31,0,.56,0,.88,0s.9-.06,1.5-.11a10.88,10.88,0,0,0,.25-2.15Zm3.4,1.13a16.78,16.78,0,0,1,1.81,3.52l-.77.38A12,12,0,0,0,93,143.71Zm.41.16a12.29,12.29,0,0,0-.81-1.39l.53-.22a14.43,14.43,0,0,1,.83,1.37Zm1.13-.41a11.27,11.27,0,0,0-.83-1.38l.53-.22a13,13,0,0,1,.84,1.36Z"/><path class="cls-3" d="M98.91,146.73a4.68,4.68,0,0,1,3.2-1.19,2.25,2.25,0,0,1,2.53,2.07c0,1.78-1.57,3-5.25,2.67l-.24-.82c3.12.38,4.65-.52,4.65-1.87,0-.79-.73-1.34-1.74-1.34A3.85,3.85,0,0,0,99,147.56a2.05,2.05,0,0,0-.3.5l-.75-.18a35.07,35.07,0,0,0,.5-4l.85.11C99.17,144.65,99,146.09,98.91,146.73Zm.61-4.56a26.52,26.52,0,0,0,3.83.76l-.19.78c-.94-.13-3.09-.57-3.85-.78Z"/><path class="cls-3" d="M109.21,150.54a16,16,0,0,0-2.21-2.23l.65-.57a18.68,18.68,0,0,1,2.24,2.22Z"/><path class="cls-3" d="M118.26,142.08a13,13,0,0,1,.2,1.33,2.67,2.67,0,0,1,2.94,2.65,2.74,2.74,0,0,1-3,2.88l-.33,0a3.92,3.92,0,0,1-1.42,1.64l-.74-.44a3.3,3.3,0,0,0,1.38-1.39,3,3,0,0,1-1.63-1.53l.47-.56a2.54,2.54,0,0,0,1.45,1.41,7.49,7.49,0,0,0,.31-2.35c0-.54,0-1.07-.06-1.54a4.09,4.09,0,0,0-3.11,3.06,2,2,0,0,0-.07.61,6.7,6.7,0,0,0,.13.93l-.7.11a10.14,10.14,0,0,1-.32-2.56,27.73,27.73,0,0,1,.26-3,3.8,3.8,0,0,0,0-.46l.86.07c0,.14-.09.3-.13.47a13.77,13.77,0,0,0-.27,2.88,4.4,4.4,0,0,1,3.27-2.76c0-.32-.09-.59-.13-.77a3.9,3.9,0,0,0-.16-.61Zm.1,6.1a2,2,0,0,0,2.27-2.09,1.93,1.93,0,0,0-2.1-2c0,.51.07,1.06.07,1.6a9.27,9.27,0,0,1-.29,2.48Z"/><path class="cls-3" d="M130.19,143l-.55.38c-.49.37-1.82,1.54-2.58,2.18a4.22,4.22,0,0,1,1.34-.21c1.65,0,2.84,1,2.84,2.34,0,1.6-1.33,2.64-3.42,2.64-1.35,0-2.18-.6-2.18-1.42a1.41,1.41,0,0,1,1.53-1.3,2,2,0,0,1,2,1.75,1.73,1.73,0,0,0,1.23-1.68c0-1-1-1.68-2.23-1.68-1.63,0-2.53.69-3.79,2l-.58-.59,2.67-2.22c.55-.46,1.78-1.5,2.27-1.94l-3,.14a4.72,4.72,0,0,0-.67.06l0-.83a5.76,5.76,0,0,0,.7,0c.51,0,2.86-.07,3.38-.12a3.68,3.68,0,0,0,.54-.08Zm-1.71,6.55a1.32,1.32,0,0,0-1.31-1.32c-.45,0-.79.27-.79.61,0,.49.57.77,1.31.77A4.85,4.85,0,0,0,128.48,149.59Z"/><path class="cls-3" d="M135.91,142.12a18.41,18.41,0,0,0-.46,2.75,3.31,3.31,0,0,1,2.68-2.25c1.32,0,2.27,1.32,2.27,3.4,0,2.75-1.73,4-4.19,4.41l-.47-.72c2.15-.33,3.83-1.19,3.83-3.68,0-1.56-.52-2.68-1.57-2.68-1.23,0-2.37,1.79-2.49,3.09a4.09,4.09,0,0,0,0,1.21l-.78.06a12.13,12.13,0,0,1-.1-1.57,26.13,26.13,0,0,1,.3-3.2c0-.31.07-.61.08-.85Z"/><path class="cls-3" d="M29,158c-.22.14-.47.27-.76.42a33.35,33.35,0,0,0-3,1.63c-.92.6-1.47,1.25-1.47,2s.78,1.33,2.34,1.33a14.62,14.62,0,0,0,3.17-.34v.9a19.45,19.45,0,0,1-3.13.24c-1.86,0-3.21-.56-3.21-2a3.24,3.24,0,0,1,1.71-2.57,32.83,32.83,0,0,1-1.44-3l.79-.32a22.65,22.65,0,0,0,1.33,2.93c.93-.56,2-1.08,2.54-1.39a3.92,3.92,0,0,0,.71-.47Z"/><path class="cls-3" d="M35.76,161.87c-.26-.29-.81-.85-1.26-1.27v4.14h-.73v-3.87a9.9,9.9,0,0,1-1.53,1.24,3.44,3.44,0,0,0-.39-.67A8.66,8.66,0,0,0,35,158.16H32.2v-.68h1.57v-1.86h.73v1.86h.87l.13,0,.42.28a9.27,9.27,0,0,1-1.29,2.18c.46.37,1.34,1.14,1.59,1.36Zm5.51,1.86v.73h-5.6v-.73H38.2v-4.15H36.06v-.72H38.2v-3.17h.74v3.17h2.13v.72H38.94v4.15Z"/><path class="cls-3" d="M52,163.76c0,.48-.11.72-.45.84a6.64,6.64,0,0,1-1.86.13,2.76,2.76,0,0,0-.25-.75c.7,0,1.38,0,1.59,0s.24-.07.24-.25V158h-2.9a6.94,6.94,0,0,1-.18,1.3A30,30,0,0,1,51,162.13l-.61.48A24.69,24.69,0,0,0,48,160.06a5.33,5.33,0,0,1-2.43,2.68,3.1,3.1,0,0,0-.53-.56A4.5,4.5,0,0,0,47.61,158H44.73v6.71H44v-7.44h3.62v-1.71h.74v1.71H52Z"/><path class="cls-3" d="M62.48,164c.65,0,.75-.16.82-1.08a2.09,2.09,0,0,0,.64.26c-.12,1.16-.36,1.45-1.43,1.45h-3c-1.37,0-1.72-.21-1.72-1.07V161H57c-.15,1.59-.52,3-1.89,3.77a3.14,3.14,0,0,0-.47-.56c1.24-.64,1.57-1.88,1.69-3.21h-1v-2.4l-.16.15a2.31,2.31,0,0,0-.5-.43,6.77,6.77,0,0,0,1.88-2.73l.68.11c-.09.22-.19.45-.3.68h1.37l.11,0,.44.27a9.17,9.17,0,0,1-.74,1.42h1.57v-.4h1.23q0-.91,0-1.95h.7c0,.68,0,1.34,0,1.95h2V158c-.12,3.26-.21,4.38-.5,4.75a.78.78,0,0,1-.6.32,6.63,6.63,0,0,1-1,0,1.91,1.91,0,0,0-.2-.7c.39,0,.74,0,.9,0a.3.3,0,0,0,.31-.14c.2-.23.31-1.21.4-3.91H61.58c-.14,2.22-.56,3.9-2,4.95a1.68,1.68,0,0,0-.48-.51c1.25-.93,1.63-2.44,1.75-4.44h-1.2V161H58.49v2.49c0,.37.15.45,1,.45Zm-5.87-7a8.12,8.12,0,0,1-.74,1.06H57.4A6.79,6.79,0,0,0,58,157Zm-.6,3.39h1.16v-1.71H56Zm3-1.71H57.82v1.71H59Z"/><path class="cls-3" d="M69.15,160.31s0,.22,0,.33c-.13,2.52-.23,3.45-.52,3.78a.78.78,0,0,1-.64.29,8.19,8.19,0,0,1-1.23,0,1.89,1.89,0,0,0-.22-.72c.5,0,1,0,1.15,0a.41.41,0,0,0,.35-.11c.18-.2.31-1,.41-3H66.93c0,.16,0,.31-.06.45l-.66-.11c.12-.77.26-2,.32-3h1.9V156.8H66.35v-.67h2.79V159h-2c0,.44-.08.89-.12,1.32Zm5.69,4.52a6.25,6.25,0,0,0-.34-.69l-5.06.42-.1-.73,2.61-.17V162H69.78v-2.68h2.17v-1l-2.37.15-.1-.71.85,0a15.15,15.15,0,0,0,1.08-2.12l.78.21c-.32.61-.72,1.31-1.08,1.88l2.77-.15c-.24-.29-.49-.58-.74-.83l.61-.3a10,10,0,0,1,1.62,2l-.65.35a4.45,4.45,0,0,0-.38-.61l-1.68.11v1.09h2.21V162H72.66v1.59l1.43-.11a11.69,11.69,0,0,0-.72-1l.6-.29a9.3,9.3,0,0,1,1.5,2.26Zm-2.89-3.44V160H70.46v1.42Zm.71-1.42v1.42h1.5V160Z"/><path class="cls-3" d="M82.4,155.63A10.77,10.77,0,0,0,86.76,159a4,4,0,0,0-.48.66,12.26,12.26,0,0,1-4.22-3.37,11.44,11.44,0,0,1-4.13,3.41,2.32,2.32,0,0,0-.43-.59,10.5,10.5,0,0,0,4.14-3.53Zm-4.38,5h8.21v.69H81.55c-.35.74-.78,1.6-1.18,2.3l4-.15a15.43,15.43,0,0,0-1.32-1.35l.63-.34a13.27,13.27,0,0,1,2.35,2.61l-.67.41a6.26,6.26,0,0,0-.46-.67c-2.45.12-5,.23-6.75.29l-.1-.73,1.47,0a18.87,18.87,0,0,0,1.08-2.33H78Zm6.43-1.9v.68H79.72v-.68Z"/><path class="cls-3" d="M93.5,162.63c0-.38,0-1,0-1.54-.92.5-1.56,1-1.56,1.66s.77.89,1.79.89a17.36,17.36,0,0,0,2.7-.24l0,.81a25.27,25.27,0,0,1-2.71.16c-1.42,0-2.56-.3-2.56-1.51s1.18-1.91,2.33-2.51a.84.84,0,0,0-.89-.61,2.63,2.63,0,0,0-1.71.73c-.28.27-.56.64-.9,1l-.68-.51a10.43,10.43,0,0,0,2.28-3h-.41c-.42,0-1.09,0-1.63-.06v-.75c.53.06,1.22.1,1.67.1h.65a5.4,5.4,0,0,0,.25-1.23l.82.07c-.07.28-.16.69-.3,1.14a26.46,26.46,0,0,0,3-.3v.74a30.48,30.48,0,0,1-3.28.28,7.08,7.08,0,0,1-.89,1.52,2.8,2.8,0,0,1,1.37-.37,1.24,1.24,0,0,1,1.31.9c.68-.32,1.28-.56,1.8-.8.3-.13.54-.25.82-.39l.32.75c-.25.07-.61.21-.87.31-.56.22-1.27.51-2,.86,0,.57,0,1.41,0,1.89Z"/><path class="cls-3" d="M100.73,159.38v5.37H100V156h3.62v3.34Zm0-2.77v.81h2.19v-.81Zm2.19,2.2v-.86h-2.19v.86Zm2.48,3.52v2.23h-.66v-2.23h-1.42a3.21,3.21,0,0,1-1.34,2.36,2.64,2.64,0,0,0-.49-.44,2.51,2.51,0,0,0,1.18-1.92h-1.25v-.63h1.27v-1.08h-1.08V160h4.93v.61H105.4v1.08h1.36v.63Zm-.66-.63v-1.08h-1.4v1.08Zm3.47,2.08c0,.44-.1.68-.39.81a4.62,4.62,0,0,1-1.55.13A2.49,2.49,0,0,0,106,164c.55,0,1.09,0,1.24,0s.21-.06.21-.22v-4.38h-3V156h3.71Zm-3-7.17v.81h2.27v-.81Zm2.27,2.21v-.87h-2.27v.87Z"/><path class="cls-3" d="M112.46,158c0,.62,0,1.53.07,2.34.16,1.66.64,2.75,1.34,2.75.51,0,1-1,1.23-2l.63.72c-.59,1.68-1.2,2.25-1.88,2.25-.93,0-1.83-.93-2.1-3.5a26.28,26.28,0,0,1-.11-2.64,5.2,5.2,0,0,0-.06-.88l1,0C112.5,157.26,112.47,157.72,112.46,158Zm7,4.16-.81.32a9.79,9.79,0,0,0-1.71-4.9l.78-.27A10.2,10.2,0,0,1,119.44,162.14Z"/><path class="cls-3" d="M122.62,157.29c.65-.06,2.52-.25,4.34-.4,1.08-.09,2-.14,2.67-.17v.8a8.28,8.28,0,0,0-1.94.16,3.45,3.45,0,0,0-2.26,3.12c0,1.94,1.8,2.55,3.41,2.61l-.29.83c-1.83-.07-3.92-1-3.92-3.26a4,4,0,0,1,1.84-3.34c-.87.1-3.57.36-4.64.58l-.09-.88C122.12,157.33,122.43,157.31,122.62,157.29Z"/><path class="cls-3" d="M135.61,160.17a7.33,7.33,0,0,1,2.17-.36c1.44,0,2.48.79,2.48,2s-.75,2-2.11,2.29a6.36,6.36,0,0,1-1.22.13l-.28-.79a5.68,5.68,0,0,0,1.16-.07c.87-.16,1.66-.63,1.66-1.55s-.76-1.29-1.7-1.29a6.37,6.37,0,0,0-2.15.39c0,.84,0,1.71,0,2.14,0,.92-.35,1.21-.88,1.21-.78,0-2.07-.75-2.07-1.64s1-1.67,2.17-2.16v-.56c0-.4,0-.86,0-1.3l-.73,0a12.36,12.36,0,0,1-1.26,0l0-.76a8.94,8.94,0,0,0,1.26.08l.76,0c0-.52,0-.95,0-1.13a3.88,3.88,0,0,0-.06-.7h.87c0,.18,0,.45,0,.68s0,.63,0,1.07a13,13,0,0,0,2-.4v.79a20.16,20.16,0,0,1-2.06.34c0,.47,0,.94,0,1.34Zm-.69,2.76c0-.36,0-1,0-1.75-.8.38-1.39.94-1.39,1.39s.68.84,1.07.84C134.8,163.41,134.92,163.24,134.92,162.93Zm3.9-5.82a16.73,16.73,0,0,1,2.26,1.45l-.4.64a12.77,12.77,0,0,0-2.22-1.48Z"/><path class="cls-3" d="M30.89,177.61v.69H22v-.69h5.66c.08-.49.17-1.07.26-1.69H24.28l-.13.52-.8-.08c.38-1.37.88-3.68,1.19-5.42H22.32v-.69h8.28v.69H25.32c-.09.46-.18,1-.28,1.46h4c-.17,1.65-.43,3.84-.64,5.21ZM28,175.24c.09-.73.17-1.47.24-2.16H24.9c-.16.75-.32,1.5-.47,2.16Z"/><path class="cls-3" d="M34.44,172c0,.62,0,1.53.07,2.34.16,1.66.64,2.75,1.34,2.75.51,0,1-1,1.23-2l.63.72c-.59,1.68-1.2,2.25-1.88,2.25-.93,0-1.83-.93-2.1-3.5a26.28,26.28,0,0,1-.11-2.64,5.2,5.2,0,0,0-.06-.88l1,0C34.48,171.26,34.45,171.72,34.44,172Zm7,4.16-.81.32a9.79,9.79,0,0,0-1.71-4.9l.78-.27A10.2,10.2,0,0,1,41.41,176.14Z"/><path class="cls-3" d="M47.56,177.49a6.33,6.33,0,0,0,.85-.12,3,3,0,0,0,2.51-2.93,2.74,2.74,0,0,0-2.63-2.87,20.84,20.84,0,0,1-.59,2.85c-.61,2-1.4,3.08-2.32,3.08s-1.77-1-1.77-2.65a4.23,4.23,0,0,1,4.34-4,3.59,3.59,0,0,1,3.8,3.64c0,2.08-1.37,3.47-3.73,3.78Zm-.65-3.24a16,16,0,0,0,.55-2.67,3.45,3.45,0,0,0-3.06,3.2c0,1.25.58,1.8,1,1.8S46.4,175.92,46.91,174.25Z"/><path class="cls-3" d="M60.45,171.66a13.68,13.68,0,0,1-1.83,3.64,10,10,0,0,1-3.77,2.85l-.7-.73a8.68,8.68,0,0,0,3.78-2.65,10.25,10.25,0,0,0,1.88-4.24l1,.26C60.65,171.06,60.53,171.41,60.45,171.66Z"/><path class="cls-3" d="M70.85,171.91c0,.15-.11.41-.15.6a9.19,9.19,0,0,1-1,3,6.33,6.33,0,0,1-4,2.84l-.65-.75a5.38,5.38,0,0,0,1-.28,5.27,5.27,0,0,0,2.71-2,7.35,7.35,0,0,0,.95-2.92H64.22v1.79a3.73,3.73,0,0,0,0,.59h-.87c0-.17,0-.44,0-.63v-1.76a6.62,6.62,0,0,0,0-.77,9,9,0,0,0,.93,0h2.21v-.93a5.6,5.6,0,0,0,0-.75h1a4.5,4.5,0,0,0-.06.75v.93h2.24a2,2,0,0,0,.69-.08Z"/><path class="cls-3" d="M75.24,171.1l.89.18c-.07.23-.14.52-.19.73a21.09,21.09,0,0,1-.9,3.13,14.75,14.75,0,0,1-1.48,2.75l-.85-.36a12.73,12.73,0,0,0,1.54-2.72A15.5,15.5,0,0,0,75.24,171.1Zm2.49.16.81-.27c.39.73,1,2.11,1.46,3.17s.93,2.52,1.2,3.42l-.89.29a31.34,31.34,0,0,0-1.13-3.44A28.12,28.12,0,0,0,77.73,171.26Z"/><path class="cls-3" d="M91.45,171.91c0,.15-.11.41-.15.6a9.19,9.19,0,0,1-1,3,6.33,6.33,0,0,1-4,2.84l-.65-.75a5.38,5.38,0,0,0,1-.28,5.27,5.27,0,0,0,2.71-2,7.35,7.35,0,0,0,.95-2.92H84.83v1.79a3.73,3.73,0,0,0,0,.59H84c0-.17,0-.44,0-.63v-1.76a6.62,6.62,0,0,0,0-.77,9,9,0,0,0,.93,0h2.21v-.93a5.6,5.6,0,0,0,0-.75h1a4.5,4.5,0,0,0-.06.75v.93h2.24a2,2,0,0,0,.69-.08Z"/><path class="cls-3" d="M98,176.63c0-.38,0-1,0-1.54-.92.5-1.56,1-1.56,1.66s.77.89,1.79.89a17.36,17.36,0,0,0,2.7-.24l0,.81a25.27,25.27,0,0,1-2.71.16c-1.42,0-2.56-.3-2.56-1.51s1.18-1.91,2.33-2.51a.84.84,0,0,0-.89-.61,2.63,2.63,0,0,0-1.71.73c-.28.27-.56.64-.9,1l-.68-.51a10.43,10.43,0,0,0,2.28-3h-.41c-.42,0-1.09,0-1.63-.06v-.75c.53.06,1.22.1,1.67.1h.65a5.4,5.4,0,0,0,.25-1.23l.82.07c-.07.28-.16.69-.3,1.14a26.46,26.46,0,0,0,3-.3v.74a30.48,30.48,0,0,1-3.28.28,7.08,7.08,0,0,1-.89,1.52,2.8,2.8,0,0,1,1.37-.37,1.24,1.24,0,0,1,1.31.9c.68-.32,1.28-.56,1.8-.8.3-.13.54-.25.82-.39l.32.75c-.25.07-.61.21-.87.31-.56.22-1.27.51-2,.86,0,.57,0,1.41,0,1.89Z"/><path class="cls-3" d="M106.8,173.9l-.46.7a21.82,21.82,0,0,0-2.18-1.37l.44-.68C105.2,172.87,106.36,173.58,106.8,173.9Zm1.16,2.38a10.19,10.19,0,0,0,3.79-3.66l.48.82a11.76,11.76,0,0,1-3.84,3.58,12.48,12.48,0,0,1-3.32,1.24l-.46-.82A10.58,10.58,0,0,0,108,176.28Zm.32-4.57-.47.68c-.48-.36-1.56-1.08-2.15-1.42l.45-.67C106.7,170.63,107.85,171.39,108.28,171.71Z"/><path class="cls-3" d="M120.36,177.26a4.55,4.55,0,0,0,.67,0V178c-.2,0-.51,0-.67,0h-5.53c-.22,0-.48,0-.72,0v-.84a5.89,5.89,0,0,0,.72,0h2.3v-3.68h-1.84c-.16,0-.48,0-.69,0v-.8a5.8,5.8,0,0,0,.69,0h4.6c.25,0,.5,0,.71,0v.8c-.22,0-.48,0-.71,0h-1.95v3.68Z"/><path class="cls-3" d="M131.62,171.22c-.07.1-.2.25-.27.36a9.66,9.66,0,0,1-2.49,2.76l-.66-.53a6.73,6.73,0,0,0,2.18-2.24h-5.69a11.29,11.29,0,0,0-1.14.06v-.9a10.52,10.52,0,0,0,1.14.08h5.74a5,5,0,0,0,.7-.06Zm-4,1.32c0,2.71-.24,4.54-2.79,5.81l-.73-.6a3.88,3.88,0,0,0,.89-.44c1.55-.95,1.77-2.38,1.77-4a6.17,6.17,0,0,0,0-.72Z"/><path class="cls-3" d="M135.62,170.22c0,.32-.08.67-.1,1,0,1.12-.12,3.46-.12,4.94,0,1.09.7,1.47,1.62,1.47a4.13,4.13,0,0,0,3.56-2l.55.69a4.93,4.93,0,0,1-4.13,2.18c-1.42,0-2.4-.6-2.4-2.21s.1-4,.1-5a5,5,0,0,0-.09-1Z"/><path class="cls-3" d="M60.33,185.29c.65-.06,2.52-.25,4.34-.4,1.08-.09,2-.14,2.67-.17v.8a8.28,8.28,0,0,0-1.94.16,3.45,3.45,0,0,0-2.26,3.12c0,1.94,1.8,2.55,3.41,2.61l-.29.83c-1.83-.07-3.92-1-3.92-3.26a4,4,0,0,1,1.84-3.34c-.87.1-3.57.36-4.64.58l-.09-.88C59.83,185.33,60.14,185.31,60.33,185.29Z"/><path class="cls-3" d="M70.93,186c0,.62,0,1.53.07,2.34.16,1.66.64,2.75,1.34,2.75.51,0,1-1,1.23-2l.63.72c-.59,1.68-1.2,2.25-1.88,2.25-.93,0-1.83-.93-2.1-3.5a26.28,26.28,0,0,1-.11-2.64,5.2,5.2,0,0,0-.06-.88l1,0C71,185.26,70.94,185.72,70.93,186Zm7,4.16-.81.32a9.79,9.79,0,0,0-1.71-4.9l.78-.27A10.2,10.2,0,0,1,77.91,190.14Z"/><path class="cls-3" d="M87,191.86a7.35,7.35,0,0,0-2.39-1.49c0,.25,0,.47,0,.62,0,.68-.46,1.39-1.75,1.39s-2.21-.51-2.21-1.47.87-1.51,2.3-1.51a5.57,5.57,0,0,1,.83.06c0-.44,0-.91,0-1.32H83.2c-.68,0-1.78-.06-2.49-.14v-.76a17.58,17.58,0,0,0,2.49.19h.53V186h-.49c-.69,0-1.74-.08-2.33-.15v-.74a15.72,15.72,0,0,0,2.32.19h.51v-.65a5.4,5.4,0,0,0,0-.59h.85a5.17,5.17,0,0,0,0,.66c0,.12,0,.31,0,.55A22.07,22.07,0,0,0,87,185v.73c-.78.08-1.63.16-2.56.21v1.42a26.73,26.73,0,0,0,2.75-.26v.75c-.93.12-1.81.19-2.75.23,0,.51,0,1,.07,1.5a8.11,8.11,0,0,1,2.88,1.54Zm-3.17-1.71a5.07,5.07,0,0,0-1-.09c-.94,0-1.45.36-1.45.81s.39.8,1.37.8c.57,0,1-.17,1-.85C83.84,190.65,83.83,190.42,83.83,190.15Z"/><path class="cls-3" d="M94.74,186.06c0,.56,0,1.17,0,1.62a2.42,2.42,0,0,1,.32,1.27c0,1.34-.65,2.83-2.95,3.52l-.69-.67a3.54,3.54,0,0,0,2.63-1.72,1.42,1.42,0,0,1-.85.25,1.59,1.59,0,0,1-1.64-1.66,1.74,1.74,0,0,1,1.75-1.73A2,2,0,0,1,94,187c0-.29,0-.64,0-1-1.5,0-3.18.08-4.42.17l0-.78c1.1,0,3-.08,4.43-.1,0-.28,0-.51,0-.65s0-.5-.06-.62h.91l0,.62c0,.15,0,.38,0,.64h3v.75c-.56,0-1.46,0-2.91,0Zm-.53,2.17a.88.88,0,0,0-.88-.61,1,1,0,0,0-1,1,1,1,0,0,0,1,1C93.92,189.64,94.3,189.17,94.21,188.23Z"/><path class="cls-3" d="M102.46,191.06a1.52,1.52,0,1,1-1.53-1.52A1.53,1.53,0,0,1,102.46,191.06Zm-.52,0a1,1,0,0,0-1-1,1,1,0,0,0,0,2A1,1,0,0,0,101.94,191.06Z"/><path class="cls-3" d="M49.42,26.75a5.22,5.22,0,0,0-.27.59,10.06,10.06,0,0,1-2.07,3.88,10.48,10.48,0,0,1-5,3l-1.4-1.58a9.45,9.45,0,0,0,4.86-2.45A6.08,6.08,0,0,0,47,27.78H40.22c-.34,0-1,0-1.62.07V26c.59.06,1.19.08,1.63.08h6.93a3,3,0,0,0,1-.14Zm-9.54-4.06a11.67,11.67,0,0,0,1.46.07h5.39a13.08,13.08,0,0,0,1.51-.07v1.81c-.38,0-1,0-1.54,0H41.34c-.45,0-1,0-1.46,0Z"/><path class="cls-3" d="M58.14,30.28a13.29,13.29,0,0,0,5.1-5.45l1.09,2A14.89,14.89,0,0,1,59.15,32,15.16,15.16,0,0,1,54,34l-1.18-1.85A14.45,14.45,0,0,0,58.14,30.28Zm0-4.54-1.43,1.47a29.12,29.12,0,0,0-3.5-3l1.32-1.4A29.47,29.47,0,0,1,58.14,25.74Z"/><path class="cls-3" d="M77.23,26.8c.29,0,1-.06,1.27-.08v1.81c-.38,0-.85-.06-1.23-.06H73.64a7,7,0,0,1-3.59,5.76L68.28,33a5.54,5.54,0,0,0,3.52-4.55H67.94c-.43,0-1,0-1.32.06V26.72a12.2,12.2,0,0,0,1.29.08h4v-2c-1.34.11-2.82.15-3.75.18l-.43-1.62a33.07,33.07,0,0,0,4.78-.22A15.18,15.18,0,0,0,76,22.3l1.15,1.54-1.08.27a22.44,22.44,0,0,1-2.35.46V26.8Z"/><path class="cls-3" d="M93.75,24.31s0,.45,0,.64c-.1,4.37-.22,6-.6,6.54a1.46,1.46,0,0,1-.31.34,5.71,5.71,0,0,0,1.25.42c-.22,1.76-.7,2.17-2.45,2.17H88c-2.27,0-2.83-.41-2.83-2V29.38h-.66c-.18,2.12-.69,4.15-2.72,5.34a4.88,4.88,0,0,0-1-1.29c1.74-.88,2.12-2.45,2.28-4H81.65V25.86a4.44,4.44,0,0,0-.91-.81,8.69,8.69,0,0,0,2.51-3.52l1.49.24c-.1.22-.2.46-.31.69h1.44l.21-.06,1,.58a13.29,13.29,0,0,1-1,1.92h2v-.59h1.4c0-.8,0-1.65,0-2.56H91c0,.9,0,1.75,0,2.56Zm-10-.59a9.68,9.68,0,0,1-.85,1.18h1.6a12.13,12.13,0,0,0,.66-1.18ZM84.14,28V26.23h-1V28Zm2.48-1.82H85.54V28h1.08ZM91.52,33c.81,0,1-.15,1.09-1.06a1.32,1.32,0,0,1-.42.14,6.87,6.87,0,0,1-1.48.06,4.08,4.08,0,0,0-.42-1.55,8.23,8.23,0,0,0,1.05.06.43.43,0,0,0,.42-.21c.21-.28.32-1.46.42-4.58H90.89c-.18,3-.77,5.24-2.65,6.7a4,4,0,0,0-1-1.21c1.54-1.19,2-3,2.16-5.49H88.16v3.52H86.63v3c0,.52.18.6,1.37.6Z"/><path class="cls-3" d="M96.65,22.32h4.19v4.51H98.19c0,.42-.07.85-.11,1.26h2.76s0,.42,0,.63c-.14,3.39-.29,4.8-.7,5.31a1.54,1.54,0,0,1-1.06.56,12.31,12.31,0,0,1-1.69,0,4.29,4.29,0,0,0-.5-1.64c.6.06,1.18.06,1.46.06a.52.52,0,0,0,.49-.17c.22-.22.36-1.15.48-3.36H97.94l-.08.67L96.4,30c.2-1.22.36-3.11.45-4.62h2.42V23.79H96.65Zm11.49,12.4a5.84,5.84,0,0,0-.35-.91c-2.4.21-4.89.39-6.7.52l-.2-1.61c.92,0,2.09-.1,3.35-.18V30.72h-2.82v-4h2.82V25.61c-1.08.08-2.09.14-2.94.2l-.22-1.55,1.23-.06a17.22,17.22,0,0,0,1.25-2.65l1.79.41c-.39.73-.85,1.49-1.29,2.16l2.66-.14c-.22-.29-.46-.6-.69-.87l1.4-.62a12.61,12.61,0,0,1,2.06,3l-1.5.69a6.62,6.62,0,0,0-.38-.81l-1.78.14V26.7h2.94v4h-2.94v1.69l1.15-.08c-.2-.32-.41-.63-.62-.92l1.34-.56a12,12,0,0,1,1.88,3.22Zm-3.89-5.35V28.08h-1.32v1.29Zm1.6-1.29v1.29h1.36V28.08Z"/><path class="cls-3" d="M115,26.27a16.2,16.2,0,0,1-2.37,1.4,6.54,6.54,0,0,0-1-1.4,13.8,13.8,0,0,0,5.66-4.69H119A12.81,12.81,0,0,0,125,26a8.61,8.61,0,0,0-1.08,1.53,17,17,0,0,1-2.35-1.36v1.11H115Zm-2.48,2.19H124.1V30h-6.28c-.41.83-.87,1.69-1.29,2.48l4.22-.15a16.52,16.52,0,0,0-1.37-1.43l1.47-.77a18.82,18.82,0,0,1,3.21,3.6l-1.55.94a7.31,7.31,0,0,0-.56-.87c-3.29.18-6.75.32-9.13.43l-.22-1.62,2.12-.07A27.18,27.18,0,0,0,115.77,30h-3.25Zm8.42-2.69a13.58,13.58,0,0,1-2.69-2.59,12.73,12.73,0,0,1-2.56,2.59Z"/></g></g></svg>